<?xml version="1.0" encoding="UTF-8"?>
<svg version="1.1" xmlns="http://www.w3.org/2000/svg" width="188" height="188">
<path d="M0 0 C0.74362793 0.00265869 1.48725586 0.00531738 2.25341797 0.00805664 C8.12631632 0.05830128 13.91818712 0.41090046 19.75 1.125 C21.02875 1.269375 22.3075 1.41375 23.625 1.5625 C26.57384274 2.09329169 29.02968086 2.8884913 31.75 4.125 C31.75 4.785 31.75 5.445 31.75 6.125 C34.85776788 7.82687288 37.34429943 9.06820192 40.875 9.5625 C44.38893837 10.25000968 45.38451104 11.52296215 47.75 14.125 C48.45125 14.455 49.1525 14.785 49.875 15.125 C51.75 16.125 51.75 16.125 52.64453125 17.9765625 C53.89640601 20.40953465 55.27744902 21.68284336 57.3125 23.5 C72.10327042 37.9680627 78.94328406 58.0886199 79.1875 78.4375 C79.03523694 98.91412969 72.42650532 116.77091918 58.75 132.125 C57.68708982 133.39549028 56.62455439 134.66629424 55.5625 135.9375 C51.22734322 141.03229151 46.76955802 145.06060637 40.9375 148.375 C40.35935547 148.725625 39.78121094 149.07625 39.18554688 149.4375 C34.66609555 152.03431181 30.9126785 152.58553516 25.75 153.125 C24.76 153.785 23.77 154.445 22.75 155.125 C19.47558914 157.30794057 18.49648324 157.38111401 14.69921875 157.390625 C13.69713379 157.39457275 12.69504883 157.39852051 11.66259766 157.40258789 C10.06617432 157.38893188 10.06617432 157.38893188 8.4375 157.375 C6.81013916 157.36811157 6.81013916 157.36811157 5.14990234 157.36108398 C-1.81200465 157.28262093 -8.45779929 156.82858765 -15.3203125 155.62890625 C-18.98837177 154.99800006 -22.64815353 154.71452626 -26.359375 154.46875 C-28.25 154.125 -28.25 154.125 -30.25 152.125 C-32.22407125 151.01087099 -32.22407125 151.01087099 -34.51953125 150.7734375 C-37.82439366 149.98859178 -40.08992463 148.59140617 -42.9375 146.75 C-43.89011719 146.14414063 -44.84273437 145.53828125 -45.82421875 144.9140625 C-48.25 143.125 -48.25 143.125 -50.25 140.125 C-50.91 139.815625 -51.57 139.50625 -52.25 139.1875 C-54.78125828 137.84276904 -54.98194574 136.66110853 -56.25 134.125 C-57.43324305 132.66677794 -58.64483179 131.23135935 -59.875 129.8125 C-74.38529193 111.84612036 -78.68344751 90.83015135 -77.25 68.125 C-75.53452438 52.90132562 -68.45715715 39.80878832 -60.25 27.125 C-59.92 26.135 -59.59 25.145 -59.25 24.125 C-58.63125 23.83625 -58.0125 23.5475 -57.375 23.25 C-55.01508051 22.23929655 -55.01508051 22.23929655 -53.75 19.5625 C-52.25 17.125 -52.25 17.125 -50.125 16.5 C-49.50625 16.37625 -48.8875 16.2525 -48.25 16.125 C-47.92 15.135 -47.59 14.145 -47.25 13.125 C-44.85605353 11.26654156 -42.15027063 9.90028142 -39.5 8.4375 C-38.78328125 8.02177734 -38.0665625 7.60605469 -37.328125 7.17773438 C-33.53344457 5.0536899 -30.73367877 3.51599639 -26.25 4.125 C-25.92 3.465 -25.59 2.805 -25.25 2.125 C-23.2109375 1.74609375 -23.2109375 1.74609375 -20.625 1.5625 C-17.69222626 1.34141398 -14.83808076 1.06054675 -11.9296875 0.60546875 C-7.91345691 0.08105648 -4.04287462 -0.02619275 0 0 Z M14.75 155.125 C18.75 156.125 18.75 156.125 18.75 156.125 Z " fill="#323238" transform="translate(93.25,15.875)"/>
<path d="M0 0 C5.12580403 0.50227728 8.73592705 1.68649326 13.25 4.125 C18.62158846 6.67711217 21.82972623 7.40337896 27.625 6.4375 C32.41956274 5.81598261 37.17075926 5.86276375 42 5.875 C43.39992188 5.86895752 43.39992188 5.86895752 44.828125 5.86279297 C45.70984375 5.86424316 46.5915625 5.86569336 47.5 5.8671875 C48.2940625 5.86831543 49.088125 5.86944336 49.90625 5.87060547 C52 6 52 6 55 7 C60.95439699 7.72910984 64.59220695 5.99706356 69.66796875 3.19140625 C74.12977763 0.91192265 78.00474365 0.81149976 83 1 C84 2 84 2 84.03417969 3.93017578 C83.99711914 4.7601709 83.96005859 5.59016602 83.921875 6.4453125 C83.89609375 7.35796875 83.8703125 8.270625 83.84375 9.2109375 C83.78198484 11.13080445 83.70424667 13.05023406 83.609375 14.96875 C83.4582229 21.71391235 84.72195221 24.90978233 89 30 C93.23695758 37.66504144 92.0011594 49.95223823 90.34765625 58.2890625 C87.5803701 65.96145242 82.38912117 70.92203638 75.3125 74.75 C69.76116617 77.34176294 63.97464706 78.73731686 58 80 C58.48545288 81.52052979 58.48545288 81.52052979 58.98071289 83.07177734 C60.01549286 86.70482239 60.26785387 90.06248746 60.30859375 93.8515625 C60.33373047 95.11484375 60.35886719 96.378125 60.38476562 97.6796875 C60.42002562 100.31765778 60.45125216 102.95568495 60.47851562 105.59375 C60.5181543 107.48480469 60.5181543 107.48480469 60.55859375 109.4140625 C60.57877563 111.13036865 60.57877563 111.13036865 60.59936523 112.88134766 C61.03923446 116.30541195 62.20762541 118.10675049 64 121 C63.505 122.485 63.505 122.485 63 124 C57.25731797 124.81758002 51.67361095 125.19346013 45.875 125.1875 C45.05185303 125.18669434 44.22870605 125.18588867 43.38061523 125.18505859 C24.98008047 125.0030341 24.98008047 125.0030341 18 121 C18.72123047 119.97326172 18.72123047 119.97326172 19.45703125 118.92578125 C21.25702122 115.51263572 21.49378405 113.02307577 21.6875 109.1875 C21.75324219 108.02605469 21.81898437 106.86460937 21.88671875 105.66796875 C21.92410156 104.78753906 21.96148437 103.90710938 22 103 C20.96552734 103.05220703 20.96552734 103.05220703 19.91015625 103.10546875 C12.9392113 103.30627786 5.83000664 103.36684304 0.3203125 98.5234375 C-1.24318037 96.74931865 -2.63071804 94.92770421 -4 93 C-5.01743092 91.60168469 -6.03828235 90.20585193 -7.0625 88.8125 C-7.55105469 88.14347656 -8.03960937 87.47445312 -8.54296875 86.78515625 C-10.08229986 84.76530886 -10.08229986 84.76530886 -12.875 82.75 C-13.926875 81.88375 -13.926875 81.88375 -15 81 C-15 79.68 -15 78.36 -15 77 C-6.97129281 77 -2.77112961 80.70979786 3 86 C3.8971875 87.09634766 3.8971875 87.09634766 4.8125 88.21484375 C7.90323148 90.73710141 10.92102756 90.67038054 14.75 90.75 C15.44738281 90.77964844 16.14476563 90.80929688 16.86328125 90.83984375 C18.57490813 90.91018458 20.28745815 90.95739946 22 91 C22.12375 89.9275 22.2475 88.855 22.375 87.75 C22.89643936 84.62136385 23.40088254 82.66519576 25 80 C23.97261719 79.8040625 22.94523437 79.608125 21.88671875 79.40625 C11.88295754 77.31910824 3.32542456 74.44204584 -3.453125 66.2421875 C-4.5 64.5625 -4.5 64.5625 -6 61 C-6.29390625 60.35804687 -6.5878125 59.71609375 -6.890625 59.0546875 C-10.31121101 50.62760743 -10.44417996 40.85489359 -7.1875 32.375 C-6.12648222 29.9927915 -5.1366553 28.16000183 -3.44091797 26.17456055 C-1.70965912 23.56183223 -1.67231987 22.22212455 -1.77734375 19.12109375 C-1.79603516 18.20005859 -1.81472656 17.27902344 -1.83398438 16.33007812 C-1.88522461 14.89825195 -1.88522461 14.89825195 -1.9375 13.4375 C-1.9974548 11.54063233 -2.04862554 9.64346103 -2.08984375 7.74609375 C-2.11941162 6.90747803 -2.14897949 6.0688623 -2.17944336 5.20483398 C-2 3 -2 3 0 0 Z M55 123 C59 124 59 124 59 124 Z " fill="#EAECED" transform="translate(53,48)"/>
<path d="M0 0 C0.74362793 0.00265869 1.48725586 0.00531738 2.25341797 0.00805664 C8.12631632 0.05830128 13.91818712 0.41090046 19.75 1.125 C21.02875 1.269375 22.3075 1.41375 23.625 1.5625 C26.57384274 2.09329169 29.02968086 2.8884913 31.75 4.125 C31.75 4.785 31.75 5.445 31.75 6.125 C34.85776788 7.82687288 37.34429943 9.06820192 40.875 9.5625 C44.38893837 10.25000968 45.38451104 11.52296215 47.75 14.125 C48.45125 14.455 49.1525 14.785 49.875 15.125 C51.75 16.125 51.75 16.125 52.62109375 17.9375 C53.95772172 20.52750576 55.58199902 22.11752048 57.6875 24.125 C60.32608636 26.6501518 62.62974137 29.14733271 64.75 32.125 C64.42 32.785 64.09 33.445 63.75 34.125 C58.99335378 31.74667689 58.99335378 31.74667689 57.8203125 28.75 C54.06884234 19.54931406 42.06431308 14.57980498 33.75 10.125 C33.04101562 9.70089844 32.33203125 9.27679688 31.6015625 8.83984375 C16.14558094 -0.03553431 -4.44645495 2.38555743 -21.25 5.125 C-21.25 5.785 -21.25 6.445 -21.25 7.125 C-22.136875 7.599375 -23.02375 8.07375 -23.9375 8.5625 C-28.43417152 11.1069129 -32.61345821 14.11617702 -36.80541992 17.12670898 C-41.03730783 20.125 -41.03730783 20.125 -43.25 20.125 C-43.58 21.115 -43.91 22.105 -44.25 23.125 C-45.8515625 24.66796875 -45.8515625 24.66796875 -47.875 26.3125 C-50.87654414 28.83615966 -53.43835498 31.41655547 -55.9375 34.4375 C-58.53930155 37.53827719 -60.44196901 38.71058849 -64.25 40.125 C-65.41953416 42.54883077 -65.41953416 42.54883077 -66.25 45.125 C-66.9615625 45.805625 -66.9615625 45.805625 -67.6875 46.5 C-70.04859587 48.9555397 -70.92641844 52.01746068 -72.25 55.125 C-73.24 55.62 -73.24 55.62 -74.25 56.125 C-71.97494808 46.52644762 -67.59024453 38.07798465 -62.08984375 29.921875 C-60.136792 27.2140099 -60.136792 27.2140099 -59.25 24.125 C-58.63125 23.83625 -58.0125 23.5475 -57.375 23.25 C-55.01508051 22.23929655 -55.01508051 22.23929655 -53.75 19.5625 C-52.25 17.125 -52.25 17.125 -50.125 16.5 C-49.50625 16.37625 -48.8875 16.2525 -48.25 16.125 C-47.92 15.135 -47.59 14.145 -47.25 13.125 C-44.85605353 11.26654156 -42.15027063 9.90028142 -39.5 8.4375 C-38.78328125 8.02177734 -38.0665625 7.60605469 -37.328125 7.17773438 C-33.53344457 5.0536899 -30.73367877 3.51599639 -26.25 4.125 C-25.92 3.465 -25.59 2.805 -25.25 2.125 C-23.2109375 1.74609375 -23.2109375 1.74609375 -20.625 1.5625 C-17.69222626 1.34141398 -14.83808076 1.06054675 -11.9296875 0.60546875 C-7.91345691 0.08105648 -4.04287462 -0.02619275 0 0 Z " fill="#CACCCE" transform="translate(93.25,15.875)"/>
<path d="M0 0 C-0.66 0.37125 -1.32 0.7425 -2 1.125 C-4.38629842 2.61643651 -6.48599617 4.14237629 -8.6875 5.875 C-11.6350339 8.13680368 -14.49476103 9.77892219 -17.875 11.3125 C-23.88446845 14.20254971 -28.26747022 18.36770535 -33 23 C-33.94488281 23.90621094 -34.88976562 24.81242187 -35.86328125 25.74609375 C-42.17012892 31.85957109 -47.81350733 38.00610501 -52.125 45.6875 C-54.38313681 49.67687503 -56.8545348 52.91998996 -60.1875 56.0625 C-62.09124975 58.09754283 -62.61164058 59.28148409 -63 62 C-63.66 62 -64.32 62 -65 62 C-64.56803527 56.81642321 -64.30128238 54.06311677 -61 50 C-60.49046863 48.67797267 -60.01423885 47.34287396 -59.5625 46 C-58.31353495 42.4754337 -56.89958544 40.44652522 -54 38 C-53.54109375 37.5359375 -53.0821875 37.071875 -52.609375 36.59375 C-50.89615302 34.89716125 -49.0941784 33.36529822 -47.25 31.8125 C-44.40261135 29.3451102 -41.87486658 26.80952111 -39.4375 23.9375 C-33.71233283 17.24958051 -27.13597725 12.62636774 -19.76953125 7.83203125 C-17.04527388 6.08937096 -17.04527388 6.08937096 -14.82421875 4.26171875 C-13 3 -13 3 -10 3 C-10 2.34 -10 1.68 -10 1 C-3.71428571 -1.42857143 -3.71428571 -1.42857143 0 0 Z " fill="#676E7F" transform="translate(82,20)"/>
<path d="M0 0 C0 0.66 0 1.32 0 2 C-0.886875 2.474375 -1.77375 2.94875 -2.6875 3.4375 C-7.18417152 5.9819129 -11.36345821 8.99117702 -15.55541992 12.00170898 C-19.78730783 15 -19.78730783 15 -22 15 C-22.33 15.99 -22.66 16.98 -23 18 C-24.6015625 19.54296875 -24.6015625 19.54296875 -26.625 21.1875 C-29.62654414 23.71115966 -32.18835498 26.29155547 -34.6875 29.3125 C-37.28930155 32.41327719 -39.19196901 33.58558849 -43 35 C-44.36078035 37.52372901 -44.36078035 37.52372901 -45 40 C-45.66 39.67 -46.32 39.34 -47 39 C-44.19829383 33.91303119 -41.36090691 30.17925053 -36.8203125 26.5625 C-34.82540775 24.85013541 -33.19573151 23.00750278 -31.5 21 C-28.78760063 17.81535252 -25.9714807 15.07362335 -22.73046875 12.43359375 C-20.98729142 11.02758262 -20.98729142 11.02758262 -19.42578125 9.47265625 C-14.53591644 4.81958876 -6.93916811 0 0 0 Z " fill="#878C99" transform="translate(72,21)"/>
<path d="M0 0 C0 0.66 0 1.32 0 2 C3.10776788 3.70187288 5.59429943 4.94320192 9.125 5.4375 C12.63893837 6.12500968 13.63451104 7.39796215 16 10 C16.70125 10.33 17.4025 10.66 18.125 11 C20 12 20 12 20.87109375 13.8125 C22.20772172 16.40250576 23.83199902 17.99252048 25.9375 20 C28.57608636 22.5251518 30.87974137 25.02233271 33 28 C32.67 28.66 32.34 29.32 32 30 C27.24335378 27.62167689 27.24335378 27.62167689 26.0703125 24.625 C22.31884234 15.42431406 10.31431308 10.45480498 2 6 C1.29101562 5.57589844 0.58203125 5.15179688 -0.1484375 4.71484375 C-6.49597161 1.06986237 -13.87636355 0.22437501 -21 -1 C-21 -1.33 -21 -1.66 -21 -2 C-13.47819984 -3.10865535 -7.08814996 -3.22188635 0 0 Z " fill="#97A0B6" transform="translate(125,20)"/>
<path d="M0 0 C7.94702653 0 12.365143 3.61651209 18 9 C18.99 10.485 18.99 10.485 20 12 C19.67 12.99 19.34 13.98 19 15 C18.01 14.67 17.02 14.34 16 14 C15.67 13.01 15.34 12.02 15 11 C13.35 11 11.7 11 10 11 C9.67 11.66 9.34 12.32 9 13 C8.51789062 12.43410156 8.03578125 11.86820313 7.5390625 11.28515625 C6.90742187 10.55167969 6.27578125 9.81820312 5.625 9.0625 C4.99851562 8.33160156 4.37203125 7.60070312 3.7265625 6.84765625 C2.12252286 4.91619094 2.12252286 4.91619094 0 4 C0 2.68 0 1.36 0 0 Z " fill="#DFDEDF" transform="translate(38,125)"/>
<path d="M0 0 C0.72058594 -0.00386719 1.44117188 -0.00773438 2.18359375 -0.01171875 C6.72161372 -0.00351257 11.02268939 0.38270903 15.5 1.125 C15.5 1.455 15.5 1.785 15.5 2.125 C14.9016333 2.14481934 14.3032666 2.16463867 13.68676758 2.18505859 C-4.42178448 2.81458859 -21.03223335 3.89111668 -37.5 12.125 C-37.83 10.805 -38.16 9.485 -38.5 8.125 C-31.21428571 3.55357143 -31.21428571 3.55357143 -26.5 4.125 C-26.17 3.465 -25.84 2.805 -25.5 2.125 C-23.4609375 1.74609375 -23.4609375 1.74609375 -20.875 1.5625 C-17.94711183 1.34178228 -15.09853309 1.06188523 -12.1953125 0.60546875 C-8.09260221 0.07202967 -4.12985433 -0.0221638 0 0 Z " fill="#C0C4D0" transform="translate(93.5,15.875)"/>
<path d="M0 0 C0.99 0.495 0.99 0.495 2 1 C1.01 1.495 1.01 1.495 0 2 C0 1.34 0 0.68 0 0 Z M0 2 C-3.39293068 9.04685604 -7.68730004 15.77683248 -13.3125 21.25 C-15.16254045 23.16856047 -15.62758552 24.39309864 -16 27 C-16.66 27 -17.32 27 -18 27 C-17.40511234 18.37412894 -14.26183071 13.9636483 -8 8 C-7.47792969 7.45730469 -6.95585937 6.91460937 -6.41796875 6.35546875 C-2.22570258 2 -2.22570258 2 0 2 Z " fill="#5B5D5E" transform="translate(35,55)"/>
<path d="M0 0 C5.26703714 -0.43959815 8.97626909 1.00034659 13.5625 3.375 C14.25633789 3.72788086 14.95017578 4.08076172 15.66503906 4.44433594 C24.05275002 8.86638932 32.87466227 14.70793127 39 22 C39 23.32 39 24.64 39 26 C38.34 26 37.68 26 37 26 C37 25.01 37 24.02 37 23 C36.39285156 22.73703125 35.78570312 22.4740625 35.16015625 22.203125 C32.85919093 20.9215747 31.95539522 19.86268174 30.4375 17.75 C24.64560817 10.71489907 15.2173117 7.4688464 7 4 C5.64579136 3.41676412 4.29162115 2.83343897 2.9375 2.25 C1.968125 1.8375 0.99875 1.425 0 1 C0 0.67 0 0.34 0 0 Z " fill="#4A5675" transform="translate(113,21)"/>
<path d="M0 0 C0 0.66 0 1.32 0 2 C-0.94875 2.2475 -1.8975 2.495 -2.875 2.75 C-6.47798453 4.19119381 -6.45796897 4.7103338 -8 8 C-9.65816784 8.68753301 -11.32459336 9.35561283 -13 10 C-13.33 10.99 -13.66 11.98 -14 13 C-15.53125 14.4375 -15.53125 14.4375 -17.5 16 C-22.02466433 19.79777782 -25.51523992 24.17739245 -29.1171875 28.83984375 C-30.04917969 29.90912109 -30.04917969 29.90912109 -31 31 C-31.66 31 -32.32 31 -33 31 C-33.99 33.475 -33.99 33.475 -35 36 C-35.66 35.67 -36.32 35.34 -37 35 C-34.19829383 29.91303119 -31.36090691 26.17925053 -26.8203125 22.5625 C-24.82540775 20.85013541 -23.19573151 19.00750278 -21.5 17 C-18.29195324 13.23340939 -14.8185839 10.12736121 -11 7 C-9.1567992 5.4035563 -7.31844798 3.80166746 -5.48046875 2.19921875 C-3.580627 0.6602968 -2.47134437 0 0 0 Z " fill="#A6A9B0" transform="translate(62,25)"/>
<path d="M0 0 C0.99 0.99 1.98 1.98 3 3 C2.67 3.99 2.34 4.98 2 6 C-3.74289139 6.81760982 -9.32627045 7.19227016 -15.125 7.1875 C-15.94524658 7.18814453 -16.76549316 7.18878906 -17.6105957 7.18945312 C-24.87239833 7.12730797 -31.85015934 6.30633304 -39 5 C-39 4.67 -39 4.34 -39 4 C-38.17387207 4.00523682 -37.34774414 4.01047363 -36.49658203 4.01586914 C-33.38411728 4.03307591 -30.27167706 4.04552946 -27.15917969 4.05493164 C-25.16860325 4.06233777 -23.17804883 4.07505474 -21.1875 4.08789062 C-14.05736081 4.10589603 -7.07423314 3.92522041 0 3 C0 2.01 0 1.02 0 0 Z M-6 5 C-2 6 -2 6 -2 6 Z " fill="#B7B1AE" transform="translate(114,166)"/>
<path d="M0 0 C0.66 0.33 1.32 0.66 2 1 C1.57589844 1.4125 1.15179688 1.825 0.71484375 2.25 C-3.06313816 5.96985911 -6.63804601 9.79590036 -10.09765625 13.8125 C-13.03675972 17.19216723 -16.06388438 20.49172866 -19.08203125 23.80078125 C-21.12519492 26.04822519 -21.12519492 26.04822519 -23 29 C-23.66 29 -24.32 29 -25 29 C-23.78122968 24.53117549 -22.47622496 22.05486436 -19 19 C-18.53980469 18.53335938 -18.07960938 18.06671875 -17.60546875 17.5859375 C-15.89252382 15.89383131 -14.09163083 14.36315316 -12.25 12.8125 C-8.08376893 9.20073961 -4.54355267 5.21117853 -1 1 C-0.67 0.67 -0.34 0.34 0 0 Z " fill="#767A83" transform="translate(47,39)"/>
<path d="M0 0 C4.05739058 3.43801016 5.74145587 7.27388941 7.75 12.0625 C8.06582031 12.78244141 8.38164062 13.50238281 8.70703125 14.24414062 C10.01924974 17.30314347 11 19.63803058 11 23 C10.01 22.67 9.02 22.34 8 22 C6.98021135 19.69515975 6.14646506 17.51082713 5.375 15.125 C5.1584375 14.48691406 4.941875 13.84882812 4.71875 13.19140625 C4.13475169 11.46464582 3.56664054 9.73253401 3 8 C2.67 7.01 2.34 6.02 2 5 C1.34 5 0.68 5 0 5 C0 3.35 0 1.7 0 0 Z " fill="#747B8A" transform="translate(158,50)"/>
<path d="M0 0 C1.22589844 0.01353516 1.22589844 0.01353516 2.4765625 0.02734375 C3.41628906 0.04474609 3.41628906 0.04474609 4.375 0.0625 C4.375 0.3925 4.375 0.7225 4.375 1.0625 C1.735 1.0625 -0.905 1.0625 -3.625 1.0625 C-1.645 1.7225 0.335 2.3825 2.375 3.0625 C2.375 4.3825 2.375 5.7025 2.375 7.0625 C-0.625 9.0625 -0.625 9.0625 -2.8125 8.6875 C-3.410625 8.48125 -4.00875 8.275 -4.625 8.0625 C-4.625 7.0725 -4.625 6.0825 -4.625 5.0625 C-5.285 4.7325 -5.945 4.4025 -6.625 4.0625 C-6.625 3.0725 -6.625 2.0825 -6.625 1.0625 C-4.21954362 -0.14022819 -2.67503047 -0.03821472 0 0 Z " fill="#D1D1D3" transform="translate(65.625,138.9375)"/>
<path d="M0 0 C1.29608947 0.93137592 2.58671632 1.8703566 3.875 2.8125 C4.59429687 3.33457031 5.31359375 3.85664063 6.0546875 4.39453125 C8 6 8 6 10 9 C9.67 9.99 9.34 10.98 9 12 C8.01 11.67 7.02 11.34 6 11 C5.67 10.01 5.34 9.02 5 8 C3.7625 7.566875 3.7625 7.566875 2.5 7.125 C1.675 6.75375 0.85 6.3825 0 6 C-0.875 3.4375 -0.875 3.4375 -1 1 C-0.67 0.67 -0.34 0.34 0 0 Z " fill="#B3B4B7" transform="translate(48,128)"/>
<path d="M0 0 C5.77687468 -0.58315454 9.43660379 1.35666315 14.375 4 C15.11105469 4.3815625 15.84710938 4.763125 16.60546875 5.15625 C18.4093234 6.09331735 20.20547259 7.04519207 22 8 C21.67 8.99 21.34 9.98 21 11 C20.360625 10.5875 19.72125 10.175 19.0625 9.75 C15.16349484 7.52199705 11.12272707 5.76989305 7 4 C6.29488281 3.69578125 5.58976562 3.3915625 4.86328125 3.078125 C3.2437782 2.38170584 1.62213366 1.69026964 0 1 C0 0.67 0 0.34 0 0 Z " fill="#404A67" transform="translate(113,21)"/>
<path d="M0 0 C5.23435005 4.27293882 9.67106815 8.81580806 14 14 C13.67 14.66 13.34 15.32 13 16 C8.24590164 13.62295082 8.24590164 13.62295082 7.0625 10.625 C5.93245812 7.83313183 5.18335985 7.16142301 2.875 5.375 C1.92625 4.59125 0.9775 3.8075 0 3 C0 2.01 0 1.02 0 0 Z " fill="#949EB3" transform="translate(144,34)"/>
<path d="M0 0 C3.3 0 6.6 0 10 0 C9.67 1.32 9.34 2.64 9 4 C9.99 4.33 10.98 4.66 12 5 C10.02 5 8.04 5 6 5 C6 4.01 6 3.02 6 2 C4.02 2 2.04 2 0 2 C0 1.34 0 0.68 0 0 Z " fill="#F4F5F6" transform="translate(62,140)"/>
<path d="M0 0 C0 3 0 3 -1.42578125 4.7890625 C-2.04839844 5.39492187 -2.67101562 6.00078125 -3.3125 6.625 C-4.23482422 7.54152344 -4.23482422 7.54152344 -5.17578125 8.4765625 C-7 10 -7 10 -10 11 C-9.64701919 8.0991395 -9.11271704 7.10483324 -6.93359375 5.078125 C-6.10988281 4.47484375 -5.28617188 3.8715625 -4.4375 3.25 C-3.61121094 2.63640625 -2.78492188 2.0228125 -1.93359375 1.390625 C-1.29550781 0.93171875 -0.65742188 0.4728125 0 0 Z " fill="#B7BBBC" transform="translate(140,110)"/>
<path d="M0 0 C4.60853797 0.72008406 8.67237409 2.31295939 13 4 C12.34 4.66 11.68 5.32 11 6 C6.83554533 5.90745656 5.27137545 5.24187812 2.125 2.4375 C1.42375 1.633125 0.7225 0.82875 0 0 Z " fill="#DED6D6" transform="translate(52,144)"/>
<path d="M0 0 C3.33511388 2.9901021 5.21521119 5.89498574 7 10 C7 10.66 7 11.32 7 12 C6.01 11.67 5.02 11.34 4 11 C2.8125 7.9375 2.8125 7.9375 2 5 C1.34 5 0.68 5 0 5 C0 3.35 0 1.7 0 0 Z " fill="#959CAC" transform="translate(158,50)"/>
<path d="M0 0 C0.66 1.32 1.32 2.64 2 4 C-0.31 5.32 -2.62 6.64 -5 8 C-5.33 6.68 -5.66 5.36 -6 4 C-4.02 2.68 -2.04 1.36 0 0 Z " fill="#DFE4E9" transform="translate(54,24)"/>
<path d="M0 0 C0.66 0.33 1.32 0.66 2 1 C-2.75 5 -2.75 5 -5 5 C-5.33 5.99 -5.66 6.98 -6 8 C-8.0625 9.1875 -8.0625 9.1875 -10 10 C-10 9.01 -10 8.02 -10 7 C-7.8125 5.17578125 -7.8125 5.17578125 -5 3.3125 C-3.6078125 2.37857422 -3.6078125 2.37857422 -2.1875 1.42578125 C-1.1046875 0.72001953 -1.1046875 0.72001953 0 0 Z " fill="#BFC1C8" transform="translate(53,29)"/>
<path d="M0 0 C2.31 0.33 4.62 0.66 7 1 C6.01 1.495 6.01 1.495 5 2 C5 2.66 5 3.32 5 4 C4.01 4.33 3.02 4.66 2 5 C1.34 4.67 0.68 4.34 0 4 C0 2.68 0 1.36 0 0 Z " fill="#F2F4F4" transform="translate(38,125)"/>
<path d="M0 0 C-2.0459287 1.09603323 -3.85805649 1.96660153 -6.125 2.5 C-8.22679483 2.89277065 -8.22679483 2.89277065 -10 5 C-9.625 2.5625 -9.625 2.5625 -9 0 C-5.93109813 -1.53445094 -3.29905734 -0.54984289 0 0 Z " fill="#BEBCBD" transform="translate(119,125)"/>
<path d="M0 0 C0.33 0 0.66 0 1 0 C1 7.59 1 15.18 1 23 C0.67 23 0.34 23 0 23 C0 15.41 0 7.82 0 0 Z " fill="#29291E" transform="translate(173,83)"/>
<path d="M0 0 C0.66 0.99 1.32 1.98 2 3 C-2.455 4.485 -2.455 4.485 -7 6 C-6 3 -6 3 -2.9375 1.3125 C-1.968125 0.879375 -0.99875 0.44625 0 0 Z " fill="#B4B8B8" transform="translate(128,119)"/>
<path d="M0 0 C0.33 0 0.66 0 1 0 C1 6.93 1 13.86 1 21 C0.67 21 0.34 21 0 21 C0 14.07 0 7.14 0 0 Z " fill="#252521" transform="translate(14,84)"/>
<path d="M0 0 C0.33 0.99 0.66 1.98 1 3 C-0.8125 5.6875 -0.8125 5.6875 -3 8 C-3.66 8 -4.32 8 -5 8 C-3.375 2.25 -3.375 2.25 0 0 Z " fill="#7E8080" transform="translate(27,60)"/>
<path d="M0 0 C0.99 0.33 1.98 0.66 3 1 C3 1.99 3 2.98 3 4 C1.1875 5.75 1.1875 5.75 -1 7 C-1.99 6.67 -2.98 6.34 -4 6 C-3.525625 5.38125 -3.05125 4.7625 -2.5625 4.125 C-0.97582559 2.09294454 -0.97582559 2.09294454 0 0 Z " fill="#D1D3DC" transform="translate(46,29)"/>
<path d="M0 0 C0.99 0.33 1.98 0.66 3 1 C1.02 2.98 -0.96 4.96 -3 7 C-3.66 6.67 -4.32 6.34 -5 6 C-3.35 4.02 -1.7 2.04 0 0 Z " fill="#C2C3C4" transform="translate(35,45)"/>
<path d="M0 0 C4.875 1.875 4.875 1.875 6 3 C6.04063832 4.66617115 6.042721 6.33388095 6 8 C4.62437146 6.71034824 3.29233607 5.37310707 2 4 C2 3.34 2 2.68 2 2 C1.34 2 0.68 2 0 2 C0 1.34 0 0.68 0 0 Z " fill="#54607D" transform="translate(152,47)"/>
<path d="M0 0 C1.22589844 0.01353516 1.22589844 0.01353516 2.4765625 0.02734375 C3.41628906 0.04474609 3.41628906 0.04474609 4.375 0.0625 C4.375 0.3925 4.375 0.7225 4.375 1.0625 C1.735 1.0625 -0.905 1.0625 -3.625 1.0625 C-3.625 2.0525 -3.625 3.0425 -3.625 4.0625 C-4.615 4.0625 -5.605 4.0625 -6.625 4.0625 C-6.625 3.0725 -6.625 2.0825 -6.625 1.0625 C-4.21954362 -0.14022819 -2.67503047 -0.03821472 0 0 Z " fill="#898C8F" transform="translate(65.625,138.9375)"/>
<path d="M0 0 C1.65 1.32 3.3 2.64 5 4 C3.35 4.66 1.7 5.32 0 6 C-0.38218767 4.34385343 -0.71395102 2.67542976 -1 1 C-0.67 0.67 -0.34 0.34 0 0 Z " fill="#BEC0C1" transform="translate(48,128)"/>
<path d="M0 0 C4.95 0 9.9 0 15 0 C15 0.33 15 0.66 15 1 C10.05 1 5.1 1 0 1 C0 0.67 0 0.34 0 0 Z " fill="#C3C9DA" transform="translate(86,14)"/>
<path d="M0 0 C3.63 0 7.26 0 11 0 C11 0.33 11 0.66 11 1 C7.37 1 3.74 1 0 1 C0 0.67 0 0.34 0 0 Z " fill="#8B7373" transform="translate(89,174)"/>
<path d="M0 0 C2.97 0 5.94 0 9 0 C9 0.33 9 0.66 9 1 C6.03 1 3.06 1 0 1 C0 0.67 0 0.34 0 0 Z " fill="#D9C1C1" transform="translate(80,173)"/>
<path d="M0 0 C2.64 0 5.28 0 8 0 C8 0.33 8 0.66 8 1 C5.36 1 2.72 1 0 1 C0 0.67 0 0.34 0 0 Z " fill="#DFD4D4" transform="translate(100,173)"/>
<path d="M0 0 C2.31 0 4.62 0 7 0 C7 0.33 7 0.66 7 1 C4.69 1 2.38 1 0 1 C0 0.67 0 0.34 0 0 Z " fill="#769AA3" transform="translate(102,15)"/>
<path d="M0 0 C0.33 0 0.66 0 1 0 C1 1.98 1 3.96 1 6 C0.67 6 0.34 6 0 6 C0 4.02 0 2.04 0 0 Z " fill="#1F1F1F" transform="translate(15,106)"/>
<path d="M0 0 C1.98 0 3.96 0 6 0 C6 0.33 6 0.66 6 1 C4.02 1 2.04 1 0 1 C0 0.67 0 0.34 0 0 Z " fill="#ADADE6" transform="translate(79,15)"/>
<path d="M0 0 C1.65 0 3.3 0 5 0 C5 0.33 5 0.66 5 1 C3.35 1 1.7 1 0 1 C0 0.67 0 0.34 0 0 Z " fill="#AEAEAE" transform="translate(75,172)"/>
<path d="M0 0 C0.33 0 0.66 0 1 0 C1 1.65 1 3.3 1 5 C0.67 5 0.34 5 0 5 C0 3.35 0 1.7 0 0 Z " fill="#373737" transform="translate(172,106)"/>
<path d="M0 0 C0.33 0 0.66 0 1 0 C1 1.65 1 3.3 1 5 C0.67 5 0.34 5 0 5 C0 3.35 0 1.7 0 0 Z " fill="#3B3B3B" transform="translate(172,78)"/>
<path d="M0 0 C0.33 0 0.66 0 1 0 C1 1.65 1 3.3 1 5 C0.67 5 0.34 5 0 5 C0 3.35 0 1.7 0 0 Z " fill="#656565" transform="translate(15,78)"/>
<path d="M0 0 C0.33 0 0.66 0 1 0 C1 1.65 1 3.3 1 5 C0.67 5 0.34 5 0 5 C0 3.35 0 1.7 0 0 Z " fill="#545454" transform="translate(16,73)"/>
<path d="M0 0 C0.99 0.495 0.99 0.495 2 1 C1.67 1.66 1.34 2.32 1 3 C0.67 2.01 0.34 1.02 0 0 Z " fill="#000000" transform="translate(32,145)"/>
<path d="M0 0 C1 4 1 4 1 4 Z " fill="#2F2F1F" transform="translate(170,115)"/>
<path d="M0 0 C1 4 1 4 1 4 Z " fill="#441515" transform="translate(16,112)"/>
<path d="M0 0 C1 4 1 4 1 4 Z " fill="#2A2A15" transform="translate(171,111)"/>
<path d="M0 0 C1 4 1 4 1 4 Z " fill="#2A2A4A" transform="translate(171,74)"/>
<path d="M0 0 C1 4 1 4 1 4 Z " fill="#2F2F4F" transform="translate(170,70)"/>
<path d="M0 0 C4 1 4 1 4 1 Z " fill="#BFEFCF" transform="translate(109,16)"/>
<path d="M0 0 C4 1 4 1 4 1 Z " fill="#C9C9E9" transform="translate(74,16)"/>
<path d="M0 0 C3 1 3 1 3 1 Z " fill="#C6C6C6" transform="translate(72,171)"/>
<path d="M0 0 C3 1 3 1 3 1 Z " fill="#153F3F" transform="translate(116,170)"/>
<path d="M0 0 C3 1 3 1 3 1 Z " fill="#1C1C1C" transform="translate(68,170)"/>
<path d="M0 0 C3 1 3 1 3 1 Z " fill="#1C1C1C" transform="translate(119,169)"/>
<path d="" fill="#1C1C1C" transform="translate(0,0)"/>
<path d="" fill="#1C1C1C" transform="translate(0,0)"/>
<path d="" fill="#462A2A" transform="translate(0,0)"/>
<path d="" fill="#1C1C1C" transform="translate(0,0)"/>
<path d="" fill="#381C1C" transform="translate(0,0)"/>
<path d="" fill="#C6C6C6" transform="translate(0,0)"/>
<path d="" fill="#3F3F54" transform="translate(0,0)"/>
<path d="" fill="#B8B8B8" transform="translate(0,0)"/>
<path d="" fill="#C6C6C6" transform="translate(0,0)"/>
<path d="" fill="#464663" transform="translate(0,0)"/>
<path d="M0 0 C3 1 3 1 3 1 Z " fill="#E2E2FF" transform="translate(71,17)"/>
<path d="M0 0 C2 1 2 1 2 1 Z " fill="#550000" transform="translate(122,168)"/>
<path d="M0 0 C2 1 2 1 2 1 Z " fill="#2A2A00" transform="translate(61,167)"/>
<path d="" fill="#000000" transform="translate(0,0)"/>
<path d="" fill="#000000" transform="translate(0,0)"/>
<path d="" fill="#000000" transform="translate(0,0)"/>
<path d="" fill="#000000" transform="translate(0,0)"/>
<path d="" fill="#000000" transform="translate(0,0)"/>
<path d="" fill="#000000" transform="translate(0,0)"/>
<path d="" fill="#2A2A00" transform="translate(0,0)"/>
<path d="" fill="#3F0000" transform="translate(0,0)"/>
<path d="" fill="#2A0000" transform="translate(0,0)"/>
<path d="" fill="#2A0000" transform="translate(0,0)"/>
<path d="" fill="#2A2A2A" transform="translate(0,0)"/>
<path d="" fill="#2A2A00" transform="translate(0,0)"/>
<path d="" fill="#2A2A2A" transform="translate(0,0)"/>
<path d="" fill="#3F0000" transform="translate(0,0)"/>
<path d="" fill="#6A2A00" transform="translate(0,0)"/>
<path d="" fill="#6A9494" transform="translate(0,0)"/>
<path d="" fill="#949494" transform="translate(0,0)"/>
<path d="" fill="#D4D4D4" transform="translate(0,0)"/>
<path d="" fill="#FFFFFF" transform="translate(0,0)"/>
<path d="" fill="#D4D4D4" transform="translate(0,0)"/>
<path d="" fill="#949494" transform="translate(0,0)"/>
<path d="" fill="#D4D4D4" transform="translate(0,0)"/>
<path d="" fill="#7F7F7F" transform="translate(0,0)"/>
<path d="" fill="#7FBFBF" transform="translate(0,0)"/>
<path d="" fill="#D4D4D4" transform="translate(0,0)"/>
<path d="" fill="#AAAAD4" transform="translate(0,0)"/>
<path d="" fill="#BFBFBF" transform="translate(0,0)"/>
<path d="" fill="#AAAAD4" transform="translate(0,0)"/>
<path d="" fill="#FFFFFF" transform="translate(0,0)"/>
<path d="" fill="#AAAAAA" transform="translate(0,0)"/>
<path d="M0 0 C2 1 2 1 2 1 Z " fill="#BFBFBF" transform="translate(131,24)"/>
<path d="M0 0 C2 1 2 1 2 1 Z " fill="#949494" transform="translate(129,23)"/>
<path d="M0 0 C2 1 2 1 2 1 Z " fill="#949494" transform="translate(127,22)"/>
<path d="M0 0 C2 1 2 1 2 1 Z " fill="#D4D4D4" transform="translate(125,21)"/>
<path d="M0 0 C2 1 2 1 2 1 Z " fill="#DFDFDF" transform="translate(65,19)"/>
<path d="" fill="#555555" transform="translate(0,0)"/>
<path d="" fill="#555555" transform="translate(0,0)"/>
<path d="" fill="#555555" transform="translate(0,0)"/>
<path d="" fill="#3F3F3F" transform="translate(0,0)"/>
<path d="" fill="#7F7F7F" transform="translate(0,0)"/>
<path d="" fill="#3F3F3F" transform="translate(0,0)"/>
<path d="" fill="#7F7F7F" transform="translate(0,0)"/>
<path d="" fill="#3F3F3F" transform="translate(0,0)"/>
<path d="" fill="#7F0000" transform="translate(0,0)"/>
<path d="" fill="#3F3F3F" transform="translate(0,0)"/>
<path d="" fill="#000000" transform="translate(0,0)"/>
<path d="" fill="#3F3F3F" transform="translate(0,0)"/>
<path d="" fill="#000000" transform="translate(0,0)"/>
<path d="" fill="#555555" transform="translate(0,0)"/>
<path d="" fill="#555555" transform="translate(0,0)"/>
<path d="" fill="#000000" transform="translate(0,0)"/>
<path d="" fill="#550000" transform="translate(0,0)"/>
<path d="" fill="#550000" transform="translate(0,0)"/>
<path d="" fill="#555500" transform="translate(0,0)"/>
<path d="" fill="#555500" transform="translate(0,0)"/>
<path d="" fill="#555555" transform="translate(0,0)"/>
<path d="" fill="#555500" transform="translate(0,0)"/>
<path d="" fill="#555500" transform="translate(0,0)"/>
<path d="" fill="#555555" transform="translate(0,0)"/>
<path d="" fill="#555555" transform="translate(0,0)"/>
<path d="" fill="#AAAAAA" transform="translate(0,0)"/>
<path d="" fill="#7FFFFF" transform="translate(0,0)"/>
<path d="" fill="#AAAAAA" transform="translate(0,0)"/>
<path d="" fill="#AAAAAA" transform="translate(0,0)"/>
<path d="" fill="#AAFFFF" transform="translate(0,0)"/>
<path d="" fill="#FFFFFF" transform="translate(0,0)"/>
<path d="" fill="#AAAAAA" transform="translate(0,0)"/>
<path d="" fill="#AAAAAA" transform="translate(0,0)"/>
<path d="" fill="#AAFFFF" transform="translate(0,0)"/>
<path d="" fill="#7FFFFF" transform="translate(0,0)"/>
<path d="" fill="#FFFFFF" transform="translate(0,0)"/>
<path d="" fill="#AAAAAA" transform="translate(0,0)"/>
<path d="" fill="#7F7FBF" transform="translate(0,0)"/>
<path d="" fill="#7F7FBF" transform="translate(0,0)"/>
<path d="" fill="#7F7FBF" transform="translate(0,0)"/>
<path d="" fill="#FFFFFF" transform="translate(0,0)"/>
<path d="" fill="#7F7F7F" transform="translate(0,0)"/>
<path d="" fill="#FFFFFF" transform="translate(0,0)"/>
<path d="" fill="#7F7FBF" transform="translate(0,0)"/>
<path d="" fill="#FFFFFF" transform="translate(0,0)"/>
<path d="" fill="#7F7F7F" transform="translate(0,0)"/>
<path d="" fill="#FFFFFF" transform="translate(0,0)"/>
<path d="" fill="#AAAAFF" transform="translate(0,0)"/>
<path d="" fill="#AAAAAA" transform="translate(0,0)"/>
<path d="" fill="#7F7F7F" transform="translate(0,0)"/>
<path d="" fill="#FFFFFF" transform="translate(0,0)"/>
<path d="" fill="#FFFFFF" transform="translate(0,0)"/>
<path d="" fill="#AAAAAA" transform="translate(0,0)"/>
</svg>
