<?xml version="1.0" encoding="UTF-8"?>
<svg version="1.1" xmlns="http://www.w3.org/2000/svg" width="500" height="500">
<path d="M0 0 C4.20486794 3.61782469 8.34160197 7.29550355 12.40625 11.0703125 C13.01082031 11.62074219 13.61539062 12.17117187 14.23828125 12.73828125 C40.7822701 37.91466411 56.30412268 77.15056606 57.609375 113.3671875 C58.03920915 137.8348804 53.11194651 161.07841654 42.40625 183.0703125 C41.66375 184.59978516 41.66375 184.59978516 40.90625 186.16015625 C37.47799342 192.80240338 33.17863528 198.34717859 28.40625 204.0703125 C27.25487933 205.56606636 26.10888067 207.06597342 24.96875 208.5703125 C-1.04524053 241.9666517 -37.51238768 261.11765445 -79.16796875 266.53515625 C-81.98154071 266.80364089 -84.76943249 266.97478411 -87.59375 267.0703125 C-88.4909375 267.11027344 -89.388125 267.15023438 -90.3125 267.19140625 C-112.14768615 267.70129384 -134.83138124 263.42315701 -154.59375 254.0703125 C-155.32803223 253.72371582 -156.06231445 253.37711914 -156.81884766 253.02001953 C-194.8513624 234.73258081 -222.35323141 203.17803142 -236.46875 163.5078125 C-240.40138022 150.81741003 -243.1714211 137.36449174 -243.59375 124.0703125 C-243.63371094 123.01328125 -243.67367187 121.95625 -243.71484375 120.8671875 C-244.18164905 96.81298522 -238.94665585 73.73409622 -228.59375 52.0703125 C-228.27003418 51.39242676 -227.94631836 50.71454102 -227.61279297 50.01611328 C-215.70673782 25.55634264 -196.62371974 4.52515663 -173.59375 -9.9296875 C-173.00142578 -10.30335449 -172.40910156 -10.67702148 -171.79882812 -11.06201172 C-155.71794928 -21.03811248 -138.11775858 -27.3198807 -119.59375 -30.9296875 C-118.59472656 -31.15398437 -117.59570312 -31.37828125 -116.56640625 -31.609375 C-76.40869925 -39.47920751 -31.21895733 -25.84686402 0 0 Z " fill="#BB6982" transform="translate(342.59375,132.9296875)"/>
<path d="M0 0 C0.91096436 -0.0065712 1.82192871 -0.0131424 2.76049805 -0.01991272 C5.78035566 -0.03964817 8.80016344 -0.05131131 11.82006836 -0.0612793 C12.85292906 -0.06535482 13.88578976 -0.06943035 14.94994926 -0.07362938 C20.42089513 -0.09449506 25.89181591 -0.10879244 31.36279297 -0.11816406 C36.99942409 -0.12920595 42.63565799 -0.16357897 48.27214909 -0.20333576 C52.61749476 -0.22955565 56.96274678 -0.23786087 61.3081646 -0.24144554 C63.38486845 -0.24630066 65.46156842 -0.25788379 67.53819466 -0.27648354 C70.45546457 -0.30098029 73.37172001 -0.29989025 76.2890625 -0.29296875 C77.13671677 -0.30577881 77.98437103 -0.31858887 78.85771179 -0.33178711 C87.3401439 -0.25895863 95.22197085 2.50538354 101.49584961 8.33325195 C108.25434247 16.11376081 110.24212582 22.92851625 110.27441406 33.00952148 C110.28098526 33.90112473 110.28755646 34.79272797 110.29432678 35.71134949 C110.314029 38.66083872 110.32571705 41.61027704 110.33569336 44.55981445 C110.33976889 45.56969296 110.34384441 46.57957146 110.34804344 47.62005234 C110.36889348 52.96780949 110.38319847 58.31554109 110.39257812 63.66333008 C110.40362574 69.17102104 110.43800989 74.67830614 110.47774982 80.18585396 C110.50397143 84.43426229 110.51227501 88.68257485 110.5158596 92.93105698 C110.5207131 94.96031299 110.53229156 96.98956509 110.5508976 99.01874161 C110.72555915 119.33396536 110.72555915 119.33396536 106.09741211 127.17700195 C105.72928909 127.84232941 105.36116608 128.50765686 104.98188782 129.19314575 C101.80979572 134.64147058 96.59355921 137.40316521 91.09741211 140.17700195 C90.4075824 140.52703278 89.71775269 140.8770636 89.00701904 141.23770142 C84.98547313 142.53596621 81.24495335 142.47202582 77.04370117 142.4675293 C76.14059204 142.47424652 75.23748291 142.48096375 74.30700684 142.48788452 C71.32562737 142.50685929 68.34447318 142.51078873 65.36303711 142.51293945 C63.28423979 142.51936867 61.20544338 142.52609713 59.12664795 142.53311157 C54.76889957 142.54508371 50.41123046 142.54879255 46.0534668 142.54760742 C40.48402299 142.54740445 34.91509071 142.57468427 29.34576797 142.60915184 C25.05106294 142.63145072 20.75648032 142.63544401 16.46172333 142.63438797 C14.40932201 142.63674028 12.35691712 142.64554285 10.30457306 142.6610527 C7.42559102 142.68076914 4.5477029 142.67485197 1.66870117 142.6628418 C0.82994446 142.67408081 -0.00881226 142.68531982 -0.87298584 142.69689941 C-9.10608353 142.61013985 -16.54689209 139.40279627 -22.90258789 134.17700195 C-31.13972399 123.49045368 -31.13972399 123.49045368 -31.17001343 116.95343018 C-31.1785434 116.11807739 -31.18707336 115.28272461 -31.19586182 114.42205811 C-31.19495544 113.51393372 -31.19404907 112.60580933 -31.19311523 111.67016602 C-31.19983246 110.7070752 -31.20654968 109.74398437 -31.21347046 108.75170898 C-31.23247982 105.56529591 -31.23637644 102.37909322 -31.23852539 99.19262695 C-31.24495227 96.97548333 -31.25168055 94.75834056 -31.25869751 92.54119873 C-31.27067834 87.89080846 -31.2743776 83.24049251 -31.27319336 78.59008789 C-31.27299036 72.64051032 -31.3002699 66.69141142 -31.33473778 60.74194717 C-31.35701408 56.16076483 -31.36103063 51.57969744 -31.35997391 46.99846649 C-31.36232963 44.80568546 -31.37115146 42.61290125 -31.38663864 40.42017365 C-31.40630873 37.34691743 -31.40045564 34.27469 -31.38842773 31.20141602 C-31.39966675 30.30138855 -31.41090576 29.40136108 -31.42248535 28.47406006 C-31.34507323 20.66147637 -28.71206139 14.53976078 -23.52758789 8.6262207 C-16.36337578 2.23698346 -9.39729918 0.02931972 0 0 Z " fill="#BE3A72" transform="translate(209.902587890625,178.822998046875)"/>
<path d="M0 0 C0.91096436 -0.0065712 1.82192871 -0.0131424 2.76049805 -0.01991272 C5.78035566 -0.03964817 8.80016344 -0.05131131 11.82006836 -0.0612793 C12.85292906 -0.06535482 13.88578976 -0.06943035 14.94994926 -0.07362938 C20.42089513 -0.09449506 25.89181591 -0.10879244 31.36279297 -0.11816406 C36.99942409 -0.12920595 42.63565799 -0.16357897 48.27214909 -0.20333576 C52.61749476 -0.22955565 56.96274678 -0.23786087 61.3081646 -0.24144554 C63.38486845 -0.24630066 65.46156842 -0.25788379 67.53819466 -0.27648354 C70.45546457 -0.30098029 73.37172001 -0.29989025 76.2890625 -0.29296875 C77.13671677 -0.30577881 77.98437103 -0.31858887 78.85771179 -0.33178711 C87.3401439 -0.25895863 95.22197085 2.50538354 101.49584961 8.33325195 C108.25434247 16.11376081 110.24212582 22.92851625 110.27441406 33.00952148 C110.28098526 33.90112473 110.28755646 34.79272797 110.29432678 35.71134949 C110.314029 38.66083872 110.32571705 41.61027704 110.33569336 44.55981445 C110.33976889 45.56969296 110.34384441 46.57957146 110.34804344 47.62005234 C110.36889348 52.96780949 110.38319847 58.31554109 110.39257812 63.66333008 C110.40362574 69.17102104 110.43800989 74.67830614 110.47774982 80.18585396 C110.50397143 84.43426229 110.51227501 88.68257485 110.5158596 92.93105698 C110.5207131 94.96031299 110.53229156 96.98956509 110.5508976 99.01874161 C110.72555915 119.33396536 110.72555915 119.33396536 106.09741211 127.17700195 C105.72928909 127.84232941 105.36116608 128.50765686 104.98188782 129.19314575 C101.80979572 134.64147058 96.59355921 137.40316521 91.09741211 140.17700195 C90.4075824 140.52703278 89.71775269 140.8770636 89.00701904 141.23770142 C84.98547313 142.53596621 81.24495335 142.47202582 77.04370117 142.4675293 C76.14059204 142.47424652 75.23748291 142.48096375 74.30700684 142.48788452 C71.32562737 142.50685929 68.34447318 142.51078873 65.36303711 142.51293945 C63.28423979 142.51936867 61.20544338 142.52609713 59.12664795 142.53311157 C54.76889957 142.54508371 50.41123046 142.54879255 46.0534668 142.54760742 C40.48402299 142.54740445 34.91509071 142.57468427 29.34576797 142.60915184 C25.05106294 142.63145072 20.75648032 142.63544401 16.46172333 142.63438797 C14.40932201 142.63674028 12.35691712 142.64554285 10.30457306 142.6610527 C7.42559102 142.68076914 4.5477029 142.67485197 1.66870117 142.6628418 C0.82994446 142.67408081 -0.00881226 142.68531982 -0.87298584 142.69689941 C-9.10608353 142.61013985 -16.54689209 139.40279627 -22.90258789 134.17700195 C-31.13972399 123.49045368 -31.13972399 123.49045368 -31.17001343 116.95343018 C-31.1785434 116.11807739 -31.18707336 115.28272461 -31.19586182 114.42205811 C-31.19495544 113.51393372 -31.19404907 112.60580933 -31.19311523 111.67016602 C-31.19983246 110.7070752 -31.20654968 109.74398437 -31.21347046 108.75170898 C-31.23247982 105.56529591 -31.23637644 102.37909322 -31.23852539 99.19262695 C-31.24495227 96.97548333 -31.25168055 94.75834056 -31.25869751 92.54119873 C-31.27067834 87.89080846 -31.2743776 83.24049251 -31.27319336 78.59008789 C-31.27299036 72.64051032 -31.3002699 66.69141142 -31.33473778 60.74194717 C-31.35701408 56.16076483 -31.36103063 51.57969744 -31.35997391 46.99846649 C-31.36232963 44.80568546 -31.37115146 42.61290125 -31.38663864 40.42017365 C-31.40630873 37.34691743 -31.40045564 34.27469 -31.38842773 31.20141602 C-31.39966675 30.30138855 -31.41090576 29.40136108 -31.42248535 28.47406006 C-31.34507323 20.66147637 -28.71206139 14.53976078 -23.52758789 8.6262207 C-16.36337578 2.23698346 -9.39729918 0.02931972 0 0 Z M-17.90258789 22.17700195 C-19.55839419 25.48861456 -19.06808915 29.18842732 -19.07958984 32.83007812 C-19.08616104 33.72620819 -19.09273224 34.62233826 -19.09950256 35.54562378 C-19.11926192 38.52040689 -19.13090527 41.49513941 -19.14086914 44.4699707 C-19.14494467 45.4854278 -19.1490202 46.5008849 -19.15321922 47.54711342 C-19.17409322 52.92382225 -19.18838804 58.30050548 -19.19775391 63.67724609 C-19.20880894 69.22788661 -19.24319476 74.77812519 -19.28292561 80.32862377 C-19.30909164 84.59836057 -19.31744585 88.86800173 -19.32103539 93.13781166 C-19.32590295 95.18350241 -19.33752173 97.22918884 -19.35607338 99.27480125 C-19.38045964 102.1425071 -19.3795004 105.009175 -19.37255859 107.87695312 C-19.38536865 108.71826279 -19.39817871 109.55957245 -19.41137695 110.42637634 C-19.36096945 116.15579767 -18.18194118 119.45384578 -14.90258789 124.17700195 C-9.24231005 129.41275895 -5.01884831 130.47609853 2.59448242 130.4675293 C3.87818474 130.47760513 3.87818474 130.47760513 5.18782043 130.48788452 C8.01711842 130.5068817 10.8461793 130.51078992 13.67553711 130.51293945 C15.64605812 130.51936738 17.61657817 130.52609573 19.58709717 130.53311157 C23.71962699 130.54508949 27.85207319 130.54879198 31.98461914 130.54760742 C37.26834596 130.54740448 42.55153343 130.57467895 47.8351326 130.60915184 C51.90676309 130.63144296 55.97826439 130.63544424 60.04994965 130.63438797 C61.99711715 130.63674166 63.94428834 130.64555204 65.89139557 130.6610527 C68.62222974 130.68075257 71.35190902 130.67485858 74.08276367 130.6628418 C74.87993301 130.67408081 75.67710236 130.68531982 76.49842834 130.69689941 C82.69434918 130.6279708 88.11939103 129.06378081 92.663517 124.65888023 C97.05833505 119.50942505 97.25397258 115.97200422 97.27441406 109.41625977 C97.28098526 108.50876984 97.28755646 107.60127991 97.29432678 106.66629028 C97.31408463 103.65423505 97.32572838 100.64222976 97.33569336 97.63012695 C97.33976889 96.60238914 97.34384441 95.57465134 97.34804344 94.51576996 C97.36891554 89.07537536 97.3832119 83.63500607 97.39257812 78.19458008 C97.40364039 72.57434138 97.43803512 66.95449885 97.47774982 61.33440018 C97.50389465 57.01409163 97.51226812 52.69387772 97.5158596 48.37349701 C97.52073166 46.30186032 97.5323632 44.23022803 97.5508976 42.15866852 C97.57524161 39.257234 97.57433247 36.35682762 97.56738281 33.45532227 C97.58019287 32.60106659 97.59300293 31.74681091 97.60620117 30.8666687 C97.55926164 25.48383771 96.65364613 22.45865801 93.09741211 18.17700195 C87.30797225 12.96650608 83.21555719 11.87789839 75.49267578 11.88647461 C74.62551437 11.87975739 73.75835297 11.87304016 72.86491394 11.86611938 C69.9983446 11.8471229 67.13200923 11.84321419 64.26538086 11.84106445 C62.27004398 11.8346371 60.27470806 11.82790879 58.27937317 11.82089233 C54.09556901 11.80891503 49.91184744 11.80521192 45.72802734 11.80639648 C40.37470298 11.80659957 35.02191014 11.77931047 29.66871166 11.74485207 C25.54650963 11.72258012 21.42443537 11.71855906 17.30217934 11.71961594 C15.32906578 11.71725993 13.35594871 11.7084364 11.38289452 11.6929512 C8.61833214 11.67328774 5.85491404 11.67913088 3.09033203 11.69116211 C2.28021667 11.6799231 1.47010132 11.66868408 0.63543701 11.65710449 C-7.87473999 11.75090319 -12.92974588 15.44903923 -17.90258789 22.17700195 Z " fill="#FDFAFB" transform="translate(209.902587890625,178.822998046875)"/>
<path d="M0 0 C7.58818106 6.53001269 12.00891741 13.92214045 14.0625 23.75 C14.8340963 35.30600046 12.62391505 45.13822359 5.4375 54.375 C-1.43808844 61.94160235 -11.05857627 65.97805095 -21.0703125 67.1015625 C-31.64845745 67.57670376 -39.99503109 64.00287359 -48.16015625 57.390625 C-55.67644145 50.45251558 -59.0832211 41.94897949 -60.28515625 31.8203125 C-60.64332261 20.82616236 -57.11772972 12.02740215 -49.9375 3.75 C-36.2406726 -9.33206854 -15.60698851 -11.48190906 0 0 Z " fill="#FDFAFB" transform="translate(271.9375,220.25)"/>
<path d="M0 0 C7.31005468 4.02450911 12.45019152 10.01239559 14.875 18 C15.55572862 25.03419573 14.40905318 31.30041332 10.36328125 37.20703125 C5.66845615 42.89357222 1.62564344 46.54658181 -5.80859375 47.4453125 C-13.11493808 47.88838348 -19.39054118 47.6362715 -25.29296875 42.83984375 C-31.36212373 36.74480752 -34.51486837 31.3894961 -35.5 22.6875 C-34.70797368 14.89924118 -31.78625217 8.69442402 -25.99609375 3.40234375 C-18.27148462 -2.38708147 -8.80880909 -4.00767192 0 0 Z " fill="#C03976" transform="translate(259.125,227)"/>
<path d="M0 0 C0.66 0.99 1.32 1.98 2 3 C2.66 3 3.32 3 4 3 C4.36590746 4.72672034 4.71722195 6.45653655 5.0625 8.1875 C5.35833984 9.63189453 5.35833984 9.63189453 5.66015625 11.10546875 C6.00961394 14.08188424 5.71039707 16.11167507 5 19 C4.4291429 23.05238062 3.98059154 27.02957684 4.0625 31.125 C4 34 4 34 2.9921875 37.1171875 C1.49548648 42.15460647 1.9350127 47.1327384 2.16601562 52.328125 C2.26406078 56.30402502 2.1199085 59.19731931 0.37109375 62.8125 C-0.08136719 63.864375 -0.53382813 64.91625 -1 66 C-0.14426185 68.08127347 -0.14426185 68.08127347 1 70 C0.57421875 72.83984375 0.57421875 72.83984375 -0.3125 75.9375 C-1.53795852 80.28174411 -1.53795852 80.28174411 -2.48046875 84.69140625 C-3 87 -3 87 -5 90 C-5.28875 89.071875 -5.5775 88.14375 -5.875 87.1875 C-6.8875 83.90208333 -6.8875 83.90208333 -9 81 C-9 78.97646824 -8.99697682 76.95245607 -8.94140625 74.9296875 C-9.01444208 72.52437401 -9.72730513 71.02133891 -11 69 C-15.15282888 56.54151335 -12.72921976 42.51058402 -10 30 C-9.83371094 29.19046875 -9.66742188 28.3809375 -9.49609375 27.546875 C-8.64311007 23.49016522 -7.57603133 19.84157637 -6 16 C-5.52159217 14.02258096 -5.04339806 12.04510536 -4.5703125 10.06640625 C-2.47519582 2.47519582 -2.47519582 2.47519582 0 0 Z " fill="#F2947A" transform="translate(139,199)"/>
<path d="M0 0 C16.67699307 19.42196398 20.67880604 56.50403009 19 81 C17.29283764 100.42126638 12.52812084 118.48133167 4 136 C3.2575 137.52947266 3.2575 137.52947266 2.5 139.08984375 C-1.31175582 146.47512064 -6.11488894 153.11488894 -12 159 C-11.47378003 153.90658779 -8.95443453 150.30595487 -6.3125 146.0625 C1.99104229 132.29901343 11.34161238 114.77355416 9.98046875 98.234375 C10.00305767 95.65020231 10.69323106 94.19981181 12 92 C11.01 92.495 11.01 92.495 10 93 C10 89.66666667 10 86.33333333 10 83 C10.99 82.505 10.99 82.505 12 82 C11.67 81.01 11.34 80.02 11 79 C11 77.33333333 11 75.66666667 11 74 C10.67 73.01 10.34 72.02 10 71 C10.21366202 69.17105307 10.43504822 67.34270806 10.69335938 65.51953125 C11.34051534 60.20213508 11.51139249 54.84830011 11.75 49.5 C11.81832031 48.31535156 11.88664062 47.13070312 11.95703125 45.91015625 C12.25371142 39.08651245 11.89309214 34.15373633 9 28 C8.41342746 26.44126875 7.84117917 24.87709296 7.28125 23.30859375 C6.98863281 22.50873047 6.69601562 21.70886719 6.39453125 20.88476562 C5.79691737 19.24980886 5.20056815 17.6143893 4.60546875 15.97851562 C3.24729361 12.27195397 1.85507356 8.62855998 0.21875 5.03515625 C-0.1834375 4.03355469 -0.585625 3.03195313 -1 2 C-0.67 1.34 -0.34 0.68 0 0 Z " fill="#BDB7DB" transform="translate(381,180)"/>
<path d="M0 0 C0.66 0 1.32 0 2 0 C2 1.65 2 3.3 2 5 C2.66 5 3.32 5 4 5 C4 5.66 4 6.32 4 7 C4.66 7.33 5.32 7.66 6 8 C7.26229508 12.47540984 7.26229508 12.47540984 6 15 C6.66 15.33 7.32 15.66 8 16 C7.67 17.98 7.34 19.96 7 22 C7.66 22.33 8.32 22.66 9 23 C9.29236847 32.16087888 8.48069862 40.73692073 6.37109375 49.66015625 C5.79258161 52.14595455 5.79258161 52.14595455 7 55 C6.54451823 57.73812607 5.74685247 60.3201176 5 63 C4.34 63 3.68 63 3 63 C2.5875 64.134375 2.175 65.26875 1.75 66.4375 C0.02652502 71.0471771 -1.95871274 75.52367464 -4 80 C-4.94238698 77.17283905 -5.13465647 75.36823877 -5.125 72.4375 C-5.12757813 71.65246094 -5.13015625 70.86742187 -5.1328125 70.05859375 C-5 68 -5 68 -4 66 C-3.92805131 63.11629667 -3.90708292 60.25760336 -3.9375 57.375 C-3.94201172 56.57320313 -3.94652344 55.77140625 -3.95117188 54.9453125 C-3.96296832 52.96350994 -3.98090395 50.98174567 -4 49 C-4.33 49 -4.66 49 -5 49 C-4.85980308 46.18711295 -4.71312045 43.37483115 -4.5625 40.5625 C-4.50352539 39.35883789 -4.50352539 39.35883789 -4.44335938 38.13085938 C-4.11328125 32.11328125 -4.11328125 32.11328125 -3 31 C-2.80850919 27.36805359 -2.80850919 27.36805359 -4 24 C-3.34 24 -2.68 24 -2 24 C-2 22.02 -2 20.04 -2 18 C-2.33 18 -2.66 18 -3 18 C-3.02708567 16.39592672 -3.04643483 14.7917215 -3.0625 13.1875 C-3.07410156 12.29417969 -3.08570313 11.40085938 -3.09765625 10.48046875 C-3 8 -3 8 -2 5 C-1.34 5 -0.68 5 0 5 C0 3.35 0 1.7 0 0 Z " fill="#9972B0" transform="translate(364,216)"/>
<path d="M0 0 C0.33 0 0.66 0 1 0 C1.03536362 0.68602798 1.07072723 1.37205597 1.10716248 2.07887268 C1.47657936 9.2332031 1.85042075 16.38729267 2.22680664 23.54125977 C2.36696224 26.2094822 2.50529137 28.87778151 2.64282227 31.54614258 C2.84095023 35.38639186 3.04313364 39.22640969 3.24609375 43.06640625 C3.3065538 44.25520889 3.36701385 45.44401154 3.42930603 46.6688385 C3.7742352 53.39465531 3.7742352 53.39465531 4.56274414 60.07788086 C5.24990431 64.67007519 4.96793264 68.49002508 2.4375 72.4375 C1.7259375 73.2109375 1.7259375 73.2109375 1 74 C0.71125 73.071875 0.4225 72.14375 0.125 71.1875 C-0.8875 67.90208333 -0.8875 67.90208333 -3 65 C-3 62.97646824 -2.99697682 60.95245607 -2.94140625 58.9296875 C-3.01444208 56.52437401 -3.72730513 55.02133891 -5 53 C-9.15282888 40.54151335 -6.72921976 26.51058402 -4 14 C-3.83371094 13.19046875 -3.66742188 12.3809375 -3.49609375 11.546875 C-2.6486448 7.51648786 -1.70440749 3.77404515 0 0 Z " fill="#F5AC8F" transform="translate(133,215)"/>
<path d="M0 0 C0.99 0 1.98 0 3 0 C2.649375 0.66 2.29875 1.32 1.9375 2 C0.4175041 6.86398687 1.39350418 11.18051255 3 16 C2.67 16.66 2.34 17.32 2 18 C1.72830546 20.23393291 1.55522167 22.46760508 1.37890625 24.7109375 C1 27 1 27 -0.09765625 29.1015625 C-1.33703635 31.14366103 -1.33703635 31.14366103 0 34 C0.72415087 37.94259919 0.99596498 41.57868907 0.8125 45.5625 C0.76080919 52.41670132 2.85429015 58.54945976 5 65 C5.20367187 65.62680664 5.40734375 66.25361328 5.6171875 66.89941406 C12.35387894 87.34859933 23.63987432 104.48955573 38.3828125 120.07421875 C40 122 40 122 40 124 C23.22258902 116.868662 10.57565005 88.24558196 4.00292969 72.63134766 C-1.84625546 57.6536933 -5.47439956 41.07461347 -6 25 C-6.0515625 23.82695312 -6.103125 22.65390625 -6.15625 21.4453125 C-6.33175092 14.52765122 -6.00744283 9.26550589 -3 3 C-2.34 3 -1.68 3 -1 3 C-0.67 2.01 -0.34 1.02 0 0 Z " fill="#FCD4A9" transform="translate(105,232)"/>
<path d="M0 0 C0.33 0 0.66 0 1 0 C1.66417086 14.5375463 2.09061272 29.02517261 1.95703125 43.578125 C1.94678925 44.86682495 1.93654724 46.1555249 1.92599487 47.48327637 C1.880994 52.75565229 1.83224089 58.02782196 1.75317383 63.29980469 C1.69522363 67.22581711 1.6696776 71.15176244 1.64453125 75.078125 C1.62074905 76.26142395 1.59696686 77.4447229 1.57246399 78.66387939 C1.55254048 84.93060488 1.54902544 91.14528591 6 96 C11.4518025 99.85439692 15.47379013 100.58645813 22.05639648 100.54589844 C23.37466179 100.56140495 23.37466179 100.56140495 24.71955872 100.57722473 C27.60359297 100.60655277 30.48692237 100.60814979 33.37109375 100.609375 C35.37892487 100.62436339 37.38674369 100.64109192 39.39454651 100.65948486 C44.66344787 100.70309643 49.93218293 100.72314382 55.20123291 100.73822021 C60.58412484 100.75781356 65.96683776 100.79978112 71.34960938 100.83984375 C81.89968428 100.91507884 92.44971899 100.96541095 103 101 C102.67 101.66 102.34 102.32 102 103 C90.53411602 103.11602483 79.06837249 103.20478204 67.60202026 103.25906086 C62.27727471 103.2851166 56.95293181 103.32044145 51.62841797 103.37719727 C46.48664409 103.43166008 41.34525669 103.46145079 36.20321655 103.47438622 C34.24484171 103.48360047 32.2864872 103.50159397 30.32827759 103.52865028 C27.57776755 103.56513054 24.82883936 103.56993747 22.078125 103.56762695 C21.27467148 103.58560333 20.47121796 103.60357971 19.64341736 103.62210083 C13.6372966 103.56777219 9.68394857 101.73322279 5 98 C0.06382154 92.6841155 -0.14381357 88.3965663 -0.11352539 81.39770508 C-0.11367142 80.51944565 -0.11381744 79.64118622 -0.1139679 78.73631287 C-0.11327072 75.83069395 -0.10548739 72.92513898 -0.09765625 70.01953125 C-0.09579138 68.00599706 -0.0943678 65.99246242 -0.09336853 63.97892761 C-0.08954879 58.67708078 -0.07972312 53.37526131 -0.06866455 48.07342529 C-0.05843877 42.66418833 -0.0538684 37.25494696 -0.04882812 31.84570312 C-0.03810039 21.23045673 -0.02103046 10.61523064 0 0 Z " fill="#DF435C" transform="translate(191,206)"/>
<path d="M0 0 C0.66 0.33 1.32 0.66 2 1 C3.26229508 5.47540984 3.26229508 5.47540984 2 8 C2.66 8.33 3.32 8.66 4 9 C3.67 10.98 3.34 12.96 3 15 C3.66 15.33 4.32 15.66 5 16 C5.29236847 25.16087888 4.48069862 33.73692073 2.37109375 42.66015625 C1.79258161 45.14595455 1.79258161 45.14595455 3 48 C2.54451823 50.73812607 1.74685247 53.3201176 1 56 C-0.32 56 -1.64 56 -3 56 C-2.88182463 49.45284193 -2.75700915 42.905834 -2.62768555 36.35888672 C-2.58450704 34.13398065 -2.54282072 31.90904508 -2.50268555 29.68408203 C-2.44456697 26.47679779 -2.38099454 23.2696597 -2.31640625 20.0625 C-2.29969376 19.07572266 -2.28298126 18.08894531 -2.26576233 17.07226562 C-1.94491196 1.94491196 -1.94491196 1.94491196 0 0 Z " fill="#B09BCA" transform="translate(368,223)"/>
<path d="M0 0 C2.12890625 0.41015625 2.12890625 0.41015625 4.69140625 1.91015625 C6.72741172 5.45103532 6.92324483 8.42208525 6.12890625 12.41015625 C3.99288691 15.74234643 2.49618735 16.30331084 -1.30859375 17.41015625 C-4.87109375 17.41015625 -4.87109375 17.41015625 -7.74609375 15.59765625 C-10.22865964 13.04207372 -10.79174668 12.12427991 -11.18359375 8.59765625 C-10.47821028 1.40274481 -6.65732196 -0.42773568 0 0 Z " fill="#FBF9FC" transform="translate(290.87109375,202.58984375)"/>
<path d="M0 0 C0.33 0 0.66 0 1 0 C2.11787136 6.51935062 2.33637294 13.02181129 2.5625 19.625 C2.6049585 20.80747314 2.64741699 21.98994629 2.69116211 23.20825195 C3.04532557 33.80821466 3.10229337 44.39558711 3 55 C2.01 55.495 2.01 55.495 1 56 C0.855625 54.96875 0.71125 53.9375 0.5625 52.875 C0.376875 51.59625 0.19125 50.3175 0 49 C-0.144375 47.9275 -0.28875 46.855 -0.4375 45.75 C-0.86092155 42.80051699 -0.86092155 42.80051699 -3 40 C-5.00551072 28.118295 -5.55125975 11.1025195 0 0 Z " fill="#F8C2A5" transform="translate(130,227)"/>
<path d="M0 0 C0.33 0 0.66 0 1 0 C6.88933243 35.17824461 -0.22429863 69.26691925 -18 100 C-18.66 100 -19.32 100 -20 100 C-18.83705648 96.89052534 -17.49092276 93.92107187 -16.01171875 90.953125 C-10.82176935 80.49838191 -6.88185953 70.30038253 -4 59 C-3.69320313 57.86304688 -3.38640625 56.72609375 -3.0703125 55.5546875 C-0.78509749 46.87087044 0.15457133 38.63932528 0.09765625 29.6875 C0.09553383 28.40601074 0.09553383 28.40601074 0.09336853 27.09863281 C0.08781962 24.39905127 0.07527697 21.69955601 0.0625 19 C0.05747839 17.15755329 0.05291664 15.31510527 0.04882812 13.47265625 C0.03786699 8.98173814 0.02063825 4.49088364 0 0 Z " fill="#F8F5FA" transform="translate(397,227)"/>
<path d="M0 0 C0.66 0 1.32 0 2 0 C2.36590746 1.72672034 2.71722195 3.45653655 3.0625 5.1875 C3.25972656 6.15042969 3.45695313 7.11335937 3.66015625 8.10546875 C4.00961394 11.08188424 3.71039707 13.11167507 3 16 C2.4291429 20.05238062 1.98059154 24.02957684 2.0625 28.125 C2 31 2 31 1 34.3125 C-0.17977997 38.66293865 -0.18248859 42.52902962 0 47 C-0.66 46.67 -1.32 46.34 -2 46 C-2.21744827 40.25304405 -2.41422814 34.50588744 -2.59204102 28.75756836 C-2.65539639 26.80294979 -2.72435652 24.8485044 -2.79907227 22.89428711 C-2.9056093 20.08213831 -2.99184901 17.26997899 -3.07421875 14.45703125 C-3.11157639 13.58601273 -3.14893402 12.7149942 -3.18742371 11.81758118 C-3.3046361 7.06784119 -3.22863917 3.80363563 0 0 Z " fill="#EC6C63" transform="translate(141,202)"/>
<path d="M0 0 C0.66 0 1.32 0 2 0 C2 1.65 2 3.3 2 5 C2.66 5 3.32 5 4 5 C3.9302597 5.65380142 3.86051941 6.30760284 3.78866577 6.98121643 C3.08576822 14.03148833 2.83848525 21.00783696 2.7890625 28.08984375 C2.76103534 30.36003376 2.73237128 32.63021599 2.703125 34.90039062 C2.66166104 38.43790809 2.62472144 41.97527301 2.59863281 45.51293945 C2.57112051 48.95553464 2.52530615 52.39749263 2.4765625 55.83984375 C2.47330963 56.90025375 2.47005676 57.96066376 2.46670532 59.0532074 C2.45013885 60.03845901 2.43357239 61.02371063 2.41650391 62.03881836 C2.40437363 63.33474159 2.40437363 63.33474159 2.39199829 64.65684509 C2 67 2 67 -1 71 C-0.67 47.57 -0.34 24.14 0 0 Z " fill="#9D8DC2" transform="translate(364,216)"/>
<path d="M0 0 C0.33 0 0.66 0 1 0 C2.52450714 18.59898712 -6.52026178 39.14466516 -15.93359375 54.80078125 C-17.29087515 57.19250792 -17.29087515 57.19250792 -17 61 C-18.28659163 62.37849103 -19.62913085 63.70529025 -21 65 C-22.36821051 66.97630407 -23.70951192 68.97209016 -25 71 C-25.68359375 69.296875 -25.68359375 69.296875 -26 67 C-24.84765625 64.765625 -24.84765625 64.765625 -23.0625 62.25 C-12.2473229 46.00569017 -3.93103706 27.72339949 -4 8 C-2.68 7.34 -1.36 6.68 0 6 C0 4.02 0 2.04 0 0 Z " fill="#AD7CB6" transform="translate(395,268)"/>
<path d="M0 0 C0.33 0 0.66 0 1 0 C1.66417086 14.5375463 2.09061272 29.02517261 1.95703125 43.578125 C1.94678925 44.86682495 1.93654724 46.1555249 1.92599487 47.48327637 C1.880994 52.75565229 1.83224089 58.02782196 1.75317383 63.29980469 C1.69522363 67.22581711 1.6696776 71.15176244 1.64453125 75.078125 C1.62074905 76.26142395 1.59696686 77.4447229 1.57246399 78.66387939 C1.55039513 85.60540253 2.24729156 90.10432166 6 96 C7.7921499 97.69812138 7.7921499 97.69812138 9.75 98.5 C10.8225 98.995 11.895 99.49 13 100 C13 100.66 13 101.32 13 102 C7.15662862 100.74784899 4.26897494 97.78100896 1 93 C-0.29458572 89.11624284 -0.13103781 85.44439883 -0.11352539 81.39770508 C-0.11367142 80.51944565 -0.11381744 79.64118622 -0.1139679 78.73631287 C-0.11327072 75.83069395 -0.10548739 72.92513898 -0.09765625 70.01953125 C-0.09579138 68.00599706 -0.0943678 65.99246242 -0.09336853 63.97892761 C-0.08954879 58.67708078 -0.07972312 53.37526131 -0.06866455 48.07342529 C-0.05843877 42.66418833 -0.0538684 37.25494696 -0.04882812 31.84570312 C-0.03810039 21.23045673 -0.02103046 10.61523064 0 0 Z " fill="#D91E3D" transform="translate(191,206)"/>
<path d="M0 0 C0.66 0.33 1.32 0.66 2 1 C1.67 2.98 1.34 4.96 1 7 C1.66 7.33 2.32 7.66 3 8 C3.29236847 17.16087888 2.48069862 25.73692073 0.37109375 34.66015625 C-0.20741839 37.14595455 -0.20741839 37.14595455 1 40 C0.34 40.66 -0.32 41.32 -1 42 C-1.94985342 38.79294773 -2.1288486 35.90123824 -2.1328125 32.5625 C-2.13410156 31.50160156 -2.13539063 30.44070313 -2.13671875 29.34765625 C-2.13285156 28.24292969 -2.12898438 27.13820313 -2.125 26 C-2.12886719 24.92621094 -2.13273437 23.85242188 -2.13671875 22.74609375 C-2.11188818 2.11188818 -2.11188818 2.11188818 0 0 Z " fill="#C1B2D7" transform="translate(370,231)"/>
<path d="M0 0 C0.76131228 2.28393684 1.06688271 3.70893384 0.52197266 6.08032227 C-0.19547015 10.09337115 -0.03104135 13.96298205 0.0859375 18.02734375 C0.10717682 18.89388077 0.12841614 19.76041779 0.15029907 20.6532135 C0.19644125 22.48136331 0.24535919 24.3094449 0.296875 26.13745117 C0.37462832 28.92417889 0.44188223 31.71101711 0.5078125 34.49804688 C0.55406017 36.27866224 0.60091508 38.05926195 0.6484375 39.83984375 C0.66828705 40.66814194 0.6881366 41.49644012 0.70858765 42.34983826 C0.83614315 46.66668576 1.27160679 50.73578255 2 55 C1.5625 58.375 1.5625 58.375 1 61 C0.67 61 0.34 61 0 61 C-1.86371087 50.3843737 -2.44911939 39.93861633 -2.68798828 29.18359375 C-2.75055478 26.47599173 -2.83361874 23.76950151 -2.91796875 21.0625 C-2.96216348 19.32294738 -3.00517561 17.58336422 -3.046875 15.84375 C-3.07279724 15.0436853 -3.09871948 14.24362061 -3.12542725 13.41931152 C-3.20814277 8.86522097 -2.80391934 5.27287806 -1 1 C-0.67 0.67 -0.34 0.34 0 0 Z " fill="#EE7970" transform="translate(139,199)"/>
<path d="M0 0 C5.49314197 6.28278113 7.94664565 15.35212305 11 23 C11.38027344 23.92554688 11.76054687 24.85109375 12.15234375 25.8046875 C15.11254772 34.08147672 14.74116976 43.30687388 15 52 C13 51 13 51 12.3671875 49.265625 C11.81237469 45.8423119 12.08815479 42.49990843 12.2578125 39.046875 C11.91953397 35.04903784 10.49059413 31.67822867 9 28 C8.4210606 26.43841759 7.84831932 24.87452569 7.28125 23.30859375 C6.98863281 22.50873047 6.69601562 21.70886719 6.39453125 20.88476562 C5.79691737 19.24980886 5.20056815 17.6143893 4.60546875 15.97851562 C3.24729361 12.27195397 1.85507356 8.62855998 0.21875 5.03515625 C-0.1834375 4.03355469 -0.585625 3.03195313 -1 2 C-0.67 1.34 -0.34 0.68 0 0 Z " fill="#A09DCB" transform="translate(381,180)"/>
<path d="M0 0 C2.58621023 3.13505228 4.4114209 6.52297419 6.31079102 10.09179688 C12.91755357 22.47287249 20.71456591 32.85397884 30.3828125 43.07421875 C32 45 32 45 32 47 C19.20565596 41.56168821 9.65844656 22.44948126 3.3125 10.75 C2.973396 10.13036377 2.63429199 9.51072754 2.28491211 8.87231445 C0.55407161 5.56148021 0 3.83679061 0 0 Z " fill="#FDD593" transform="translate(113,309)"/>
<path d="M0 0 C1.17348407 3.41666471 0.82186728 5.36125948 -0.36328125 8.73828125 C-0.67330078 9.64126953 -0.98332031 10.54425781 -1.30273438 11.47460938 C-1.63595703 12.41111328 -1.96917969 13.34761719 -2.3125 14.3125 C-2.95574186 16.16230375 -3.59769611 18.01255581 -4.23828125 19.86328125 C-4.54531982 20.74975342 -4.8523584 21.63622559 -5.16870117 22.54956055 C-7.12656328 28.32079755 -8.48658904 34.07952424 -9.5625 40.0625 C-9.68818359 40.74376953 -9.81386719 41.42503906 -9.94335938 42.12695312 C-10.66834531 46.07831627 -11.35059943 50.03556414 -12 54 C-12.33 54 -12.66 54 -13 54 C-13.23886828 46.81155779 -12.40631916 40.23222362 -11 33.1875 C-10.78577393 32.1054126 -10.57154785 31.0233252 -10.35083008 29.90844727 C-8.1227151 19.40249618 -4.39789396 9.76703497 0 0 Z " fill="#F3986F" transform="translate(113,187)"/>
<path d="M0 0 C2.42869909 3.64304864 2.25675675 6.30722339 2.1953125 10.51171875 C2.1924826 11.23994339 2.18965271 11.96816803 2.18673706 12.71846008 C2.17555257 15.04164137 2.15045166 17.36443547 2.125 19.6875 C2.11496794 21.2636663 2.10584248 22.83983865 2.09765625 24.41601562 C2.07561896 28.27749267 2.04110141 32.13868071 2 36 C1.01 36.495 1.01 36.495 0 37 C-2.73313564 24.16402369 -1.78688476 12.85918853 0 0 Z " fill="#FBD5BF" transform="translate(128,233)"/>
<path d="M0 0 C0.33 0 0.66 0 1 0 C1.68985312 26.91488474 1.68985312 26.91488474 -2 39 C-2.99 39.495 -2.99 39.495 -4 40 C-4.20586737 33.34362183 -4.00842244 27.27761535 -2.5078125 20.7890625 C-1.63149043 15.97603204 -1.48926522 11.10097375 -1.24609375 6.22265625 C-1 3 -1 3 0 0 Z " fill="#AD79B3" transform="translate(363,256)"/>
<path d="M0 0 C0.99 0 1.98 0 3 0 C1 4 1 4 0 5.625 C-1.44448796 9.0556589 -1.72969957 12.58213046 -2.125 16.25 C-2.25455078 17.36761719 -2.25455078 17.36761719 -2.38671875 18.5078125 C-2.59786867 20.33777846 -2.79984545 22.16879879 -3 24 C-3.99 24 -4.98 24 -6 24 C-6.31806054 16.2723068 -6.32270836 10.06075526 -3 3 C-2.34 3 -1.68 3 -1 3 C-0.67 2.01 -0.34 1.02 0 0 Z " fill="#F9C19A" transform="translate(105,232)"/>
<path d="M0 0 C2.24734928 3.59264833 2.23200508 6.55142073 2.1953125 10.734375 C2.18886719 12.02988281 2.18242187 13.32539063 2.17578125 14.66015625 C2.15907193 16.02344019 2.14214206 17.38672144 2.125 18.75 C2.1149634 20.12889985 2.10583873 21.50780665 2.09765625 22.88671875 C2.07408093 26.25798882 2.0411727 29.62890636 2 33 C1.01 33.495 1.01 33.495 0 34 C-1.77654854 29.4838581 -2.15597658 26.11127196 -1.7578125 21.2890625 C-1.66113281 20.04511719 -1.56445312 18.80117187 -1.46484375 17.51953125 C-1.35269531 16.23433594 -1.24054688 14.94914063 -1.125 13.625 C-0.96837891 11.66240234 -0.96837891 11.66240234 -0.80859375 9.66015625 C-0.54996482 6.43905048 -0.28007719 3.21929991 0 0 Z " fill="#AAA1CF" transform="translate(396,233)"/>
<path d="M0 0 C0.99 0.33 1.98 0.66 3 1 C2.67 1.99 2.34 2.98 2 4 C0.69064246 14.38838371 0.8806553 24.86487331 0.9375 35.3125 C0.94252997 36.93945173 0.9470902 38.56640499 0.95117188 40.19335938 C0.96204755 44.12894475 0.97922774 48.06445493 1 52 C0.34 51.67 -0.32 51.34 -1 51 C-2.24343101 46.87047989 -2.06383452 42.75935772 -1.9140625 38.49609375 C-1.89282318 37.77696304 -1.87158386 37.05783234 -1.84970093 36.31690979 C-1.80357325 34.79639297 -1.7546566 33.27595851 -1.703125 31.75561523 C-1.62607484 29.46939263 -1.55837155 27.18304449 -1.4921875 24.89648438 C-1.23745565 16.57082843 -0.81116181 8.29377726 0 0 Z " fill="#B9A6D0" transform="translate(368,227)"/>
<path d="M0 0 C0.33 0 0.66 0 1 0 C1.07420027 5.48092694 1.1286258 10.96156099 1.16479492 16.44287109 C1.17987414 18.30718072 1.20034061 20.17145492 1.22631836 22.03564453 C1.26273996 24.71656033 1.2797349 27.3970068 1.29296875 30.078125 C1.30845261 30.91055725 1.32393646 31.7429895 1.33988953 32.60064697 C1.34158031 38.42460278 1.34158031 38.42460278 -0.51831055 41.55761719 C-1.00726807 42.03360352 -1.49622559 42.50958984 -2 43 C-1.88095895 38.16180415 -1.75666534 33.32378096 -1.62768555 28.48583984 C-1.58460506 26.84297266 -1.54291343 25.20006841 -1.50268555 23.55712891 C-1.44432515 21.18380603 -1.38082725 18.81066521 -1.31640625 16.4375 C-1.29969376 15.71320801 -1.28298126 14.98891602 -1.26576233 14.24267578 C-1.12887092 9.43747986 -0.65859582 4.76251497 0 0 Z " fill="#AF8FC2" transform="translate(365,244)"/>
<path d="M0 0 C0.33 0 0.66 0 1 0 C1.36590746 1.72672034 1.71722195 3.45653655 2.0625 5.1875 C2.25972656 6.15042969 2.45695313 7.11335937 2.66015625 8.10546875 C3.00961394 11.08188424 2.71039707 13.11167507 2 16 C1.41332041 20.16470081 0.98596618 24.22814013 1.0625 28.4375 C1 31 1 31 -1 33 C-1.02469081 28.6217488 -1.04285557 24.24353433 -1.05493164 19.86523438 C-1.05996514 18.37531834 -1.06679242 16.88540726 -1.07543945 15.39550781 C-1.08754805 13.25584696 -1.09323807 11.11625132 -1.09765625 8.9765625 C-1.10289307 7.68830566 -1.10812988 6.40004883 -1.11352539 5.07275391 C-1 2 -1 2 0 0 Z " fill="#EA5959" transform="translate(142,202)"/>
<path d="M0 0 C0.66 0 1.32 0 2 0 C2.04942899 4.92959122 2.08573318 9.85903825 2.10986328 14.78881836 C2.11992237 16.46592725 2.13357122 18.14301861 2.15087891 19.82006836 C2.17513152 22.23035002 2.1864839 24.64039986 2.1953125 27.05078125 C2.20563507 27.80087967 2.21595764 28.55097809 2.22659302 29.32380676 C2.227408 33.10300779 2.15057067 34.77414399 0 38 C0 29.75 0 21.5 0 13 C-0.33 13 -0.66 13 -1 13 C-1.02708567 11.39592672 -1.04643483 9.7917215 -1.0625 8.1875 C-1.07410156 7.29417969 -1.08570313 6.40085938 -1.09765625 5.48046875 C-1 3 -1 3 0 0 Z " fill="#9A7FB9" transform="translate(362,221)"/>
<path d="M0 0 C0 3.99401744 -1.38932443 4.90271059 -4 7.875 C-9.5124126 14.41662888 -15.27350909 21.82052726 -18 30 C-18.66 30 -19.32 30 -20 30 C-18.53123433 24.81896944 -16.21792919 20.64118386 -13.375 16.125 C-12.71491943 15.06925781 -12.71491943 15.06925781 -12.04150391 13.9921875 C-8.62162996 8.66443581 -4.84449896 4.11376448 0 0 Z " fill="#D6315A" transform="translate(136,153)"/>
<path d="M0 0 C0.33 0 0.66 0 1 0 C1.49155247 8.06510168 0.04937325 15.21726112 -2 23 C-4.02558881 19.65060119 -4.21738987 17.13037449 -4.125 13.25 C-4.09792969 11.77273438 -4.09792969 11.77273438 -4.0703125 10.265625 C-4.04710937 9.51796875 -4.02390625 8.7703125 -4 8 C-2.68 7.34 -1.36 6.68 0 6 C0 4.02 0 2.04 0 0 Z " fill="#B099C9" transform="translate(395,268)"/>
<path d="M0 0 C3.44791253 3.35061694 6.5606202 6.80884509 9.5625 10.5625 C11.71579541 13.25318629 13.8061326 15.81145314 16.27734375 18.21484375 C18 20 18 20 18 22 C10.28407124 18.83314489 4.3564841 9.88605552 0 3 C0 2.01 0 1.02 0 0 Z " fill="#FBC76B" transform="translate(127,334)"/>
<path d="M0 0 C0.66 0.33 1.32 0.66 2 1 C2.26305952 9.2425317 1.60614551 16.91191011 0 25 C-0.33 25 -0.66 25 -1 25 C-1.0289337 21.20834926 -1.04677601 17.41672673 -1.0625 13.625 C-1.07087891 12.54476562 -1.07925781 11.46453125 -1.08789062 10.3515625 C-1.09111328 9.3203125 -1.09433594 8.2890625 -1.09765625 7.2265625 C-1.10289307 6.27346191 -1.10812988 5.32036133 -1.11352539 4.33837891 C-1 2 -1 2 0 0 Z " fill="#CCC0DF" transform="translate(371,238)"/>
<path d="M0 0 C1.39398427 4.3895675 0.07794717 7.56372558 -1.4375 11.75 C-1.68048828 12.44738281 -1.92347656 13.14476562 -2.17382812 13.86328125 C-2.77310248 15.57885098 -3.38529885 17.28989715 -4 19 C-4.66 19 -5.32 19 -6 19 C-6.33 20.65 -6.66 22.3 -7 24 C-8.24540698 20.48604716 -7.76387905 18.63330973 -6.34765625 15.234375 C-5.98349609 14.34492188 -5.61933594 13.45546875 -5.24414062 12.5390625 C-4.85419922 11.61867187 -4.46425781 10.69828125 -4.0625 9.75 C-3.67642578 8.81414062 -3.29035156 7.87828125 -2.89257812 6.9140625 C-1.93833169 4.60502173 -0.97388338 2.30081138 0 0 Z " fill="#EC615A" transform="translate(113,187)"/>
<path d="M0 0 C0.33 0 0.66 0 1 0 C1 7.59 1 15.18 1 23 C0.34 23 -0.32 23 -1 23 C-2.11933825 18.67300588 -1.94910394 14.81609998 -1.625 10.375 C-1.53476562 9.06273437 -1.44453125 7.75046875 -1.3515625 6.3984375 C-1 3 -1 3 0 0 Z " fill="#A780B9" transform="translate(363,256)"/>
<path d="M0 0 C2.23413013 3.35119519 2.23847762 4.4177755 2.1953125 8.32421875 C2.18886719 9.35224609 2.18242187 10.38027344 2.17578125 11.43945312 C2.15902344 12.51130859 2.14226562 13.58316406 2.125 14.6875 C2.11597656 15.77095703 2.10695312 16.85441406 2.09765625 17.97070312 C2.0740734 20.6473571 2.04116126 23.32356797 2 26 C1.67 26 1.34 26 1 26 C0.6325272 22.79304641 0.28343058 19.58434303 -0.0625 16.375 C-0.16626953 15.47136719 -0.27003906 14.56773437 -0.37695312 13.63671875 C-0.88172318 8.86751203 -1.12276473 4.72660395 0 0 Z " fill="#F9CCB8" transform="translate(128,233)"/>
<path d="M0 0 C2.62129895 2.62129895 2.47771304 4.22359022 2.8125 7.875 C2.92207031 8.92429687 3.03164062 9.97359375 3.14453125 11.0546875 C2.98049065 14.39756886 2.24942633 15.59363695 0 18 C-2.58476417 12.83047166 -0.93847483 5.51353963 0 0 Z " fill="#F8B98B" transform="translate(134,271)"/>
<path d="M0 0 C0.33 0 0.66 0 1 0 C1.50688605 2.54046458 2.00566874 5.08208876 2.5 7.625 C2.64308594 8.33785156 2.78617188 9.05070313 2.93359375 9.78515625 C3.72573321 13.89673727 4.35368906 17.79362649 4 22 C3.34 22.66 2.68 23.32 2 24 C0.70098079 15.95072024 -0.33853295 8.16240568 0 0 Z " fill="#F08568" transform="translate(137,236)"/>
<path d="M0 0 C0.33 0.99 0.66 1.98 1 3 C-2.3 6.3 -5.6 9.6 -9 13 C-9.33 12.01 -9.66 11.02 -10 10 C-6.7 6.7 -3.4 3.4 0 0 Z " fill="#CB5D8F" transform="translate(359,348)"/>
<path d="M0 0 C0.99 0.33 1.98 0.66 3 1 C3.433125 2.3921875 3.433125 2.3921875 3.875 3.8125 C5.21630739 7.61287094 6.67727294 8.81186267 10 11 C10.99 11.33 11.98 11.66 13 12 C13 12.66 13 13.32 13 14 C7.16238618 12.74908275 4.18026784 9.85903217 1 5 C0.125 2.0625 0.125 2.0625 0 0 Z " fill="#EA5941" transform="translate(191,294)"/>
<path d="M0 0 C0.99 0.495 0.99 0.495 2 1 C2.31241371 3.54941373 2.51303421 6.00361513 2.625 8.5625 C2.66367187 9.27341797 2.70234375 9.98433594 2.7421875 10.71679688 C2.83671783 12.47742425 2.91945817 14.23867728 3 16 C1 15 1 15 0.37890625 13.296875 C-0.06955765 10.57835155 -0.09529082 8.00442923 -0.0625 5.25 C-0.05347656 4.26515625 -0.04445313 3.2803125 -0.03515625 2.265625 C-0.02355469 1.51796875 -0.01195312 0.7703125 0 0 Z " fill="#9B97CA" transform="translate(393,216)"/>
<path d="M0 0 C2.4294516 3.6441774 2.16179575 5.71241272 2 10 C1.01 10 0.02 10 -1 10 C-1.33 9.34 -1.66 8.68 -2 8 C-2.99 8.495 -2.99 8.495 -4 9 C-3.46930939 5.17902761 -2.50298434 2.93828597 0 0 Z " fill="#BBADD4" transform="translate(395,264)"/>
<path d="M0 0 C0.99 0.99 1.98 1.98 3 3 C2.13375 3.804375 2.13375 3.804375 1.25 4.625 C-1.2147481 7.22667855 -3.0791012 9.98144474 -5 13 C-5.68359375 11.296875 -5.68359375 11.296875 -6 9 C-4.78515625 6.640625 -4.78515625 6.640625 -3.0625 4.25 C-2.49660156 3.45078125 -1.93070312 2.6515625 -1.34765625 1.828125 C-0.90292969 1.22484375 -0.45820313 0.6215625 0 0 Z " fill="#CA91BE" transform="translate(375,326)"/>
<path d="M0 0 C0.66 0 1.32 0 2 0 C3.125 5.75 3.125 5.75 2 8 C1.77532169 9.53668865 1.59203195 11.07968054 1.4375 12.625 C1.35371094 13.44226563 1.26992187 14.25953125 1.18359375 15.1015625 C1.12300781 15.72804688 1.06242187 16.35453125 1 17 C0.67 17 0.34 17 0 17 C-0.19644384 15.10507254 -0.38177288 13.20899097 -0.5625 11.3125 C-0.66691406 10.25675781 -0.77132812 9.20101562 -0.87890625 8.11328125 C-0.99277552 5.18573914 -0.70848415 2.82868856 0 0 Z " fill="#FBD7BD" transform="translate(105,242)"/>
<path d="M0 0 C0.66 0 1.32 0 2 0 C1.88652381 1.97986082 1.7589065 3.95891598 1.625 5.9375 C1.52058594 7.59072266 1.52058594 7.59072266 1.4140625 9.27734375 C1.27742188 10.17582031 1.14078125 11.07429687 1 12 C0.01 12.495 0.01 12.495 -1 13 C-1.02708567 11.39592672 -1.04643483 9.7917215 -1.0625 8.1875 C-1.07410156 7.29417969 -1.08570313 6.40085938 -1.09765625 5.48046875 C-1 3 -1 3 0 0 Z " fill="#8C7AB7" transform="translate(362,221)"/>
<path d="M0 0 C3.63559661 3.43361902 6.36113346 6.7973607 9 11 C8.01 11 7.02 11 6 11 C4.39453125 9.35546875 4.39453125 9.35546875 2.8125 7.1875 C2.28269531 6.47980469 1.75289062 5.77210938 1.20703125 5.04296875 C0 3 0 3 0 0 Z " fill="#FCCC79" transform="translate(127,334)"/>
<path d="M0 0 C1.84187025 2.76280538 2.72248277 4.80707826 3.6875 7.9375 C3.95949219 8.79214844 4.23148437 9.64679688 4.51171875 10.52734375 C5.02075548 13.10510574 4.84888744 14.54449337 4 17 C4 16.34 4 15.68 4 15 C3.34 15 2.68 15 2 15 C1.66223316 13.2508503 1.32996329 11.50063855 1 9.75 C0.814375 8.77546875 0.62875 7.8009375 0.4375 6.796875 C0 4 0 4 0 0 Z " fill="#D0CEE6" transform="translate(390,200)"/>
<path d="M0 0 C0.33 0 0.66 0 1 0 C1.33 1.65 1.66 3.3 2 5 C2.33 5 2.66 5 3 5 C3 6.65 3 8.3 3 10 C1.68 10.33 0.36 10.66 -1 11 C-0.67 7.37 -0.34 3.74 0 0 Z " fill="#C5BEDF" transform="translate(392,243)"/>
<path d="M0 0 C2.37339853 1.85744232 2.9940468 2.97847688 3.8125 5.9375 C4.00613718 9.10024068 3.70401547 10.39385869 2 13 C-0.28571429 4.57142857 -0.28571429 4.57142857 0 0 Z " fill="#FDE3BB" transform="translate(103,280)"/>
<path d="M0 0 C0.33 0 0.66 0 1 0 C2.42705634 5.30723432 3.4002792 9.53891111 2 15 C1.67 15 1.34 15 1 15 C-0.03590199 9.94997778 -0.10251672 5.12583611 0 0 Z " fill="#FDE0C0" transform="translate(100,260)"/>
<path d="M0 0 C1.11841676 3.35525029 0.91538821 3.97089854 -0.3125 7.125 C-0.57675781 7.82882813 -0.84101562 8.53265625 -1.11328125 9.2578125 C-2 11 -2 11 -4 12 C-3.67 9.69 -3.34 7.38 -3 5 C-2.34 5 -1.68 5 -1 5 C-0.67 3.35 -0.34 1.7 0 0 Z " fill="#F0886E" transform="translate(107,206)"/>
<path d="M0 0 C0 3.61029169 -0.96092582 6.55806676 -2 10 C-2.33 10 -2.66 10 -3 10 C-3.36923077 4.58461538 -3.36923077 4.58461538 -1.5 1.625 C-1.005 1.08875 -0.51 0.5525 0 0 Z " fill="#F7BA9F" transform="translate(108,219)"/>
<path d="M0 0 C2.46278801 2.46278801 2.99771255 4.70676982 4 8 C3.01 8.495 3.01 8.495 2 9 C2 8.34 2 7.68 2 7 C1.34 7 0.68 7 0 7 C0 4.69 0 2.38 0 0 Z " fill="#FEDAA0" transform="translate(106,289)"/>
<path d="" fill="#FFFFFF" transform="translate(0,0)"/>
</svg>
