<?xml version="1.0" encoding="UTF-8"?>
<svg version="1.1" xmlns="http://www.w3.org/2000/svg" width="500" height="500">
<path d="M0 0 C1.03688965 0.24943359 1.03688965 0.24943359 2.09472656 0.50390625 C40.75848429 10.06800573 74.14718624 35.22263022 95 69 C115.95605884 104.06870224 122.81629844 145.59827583 112.8125 185.375 C108.26361555 202.39773834 101.09877438 218.2122114 90 232 C89.34386719 232.82886719 88.68773437 233.65773438 88.01171875 234.51171875 C74.65846951 251.13805573 60.41535096 265.14360958 42 276 C40.33130859 277.01513672 40.33130859 277.01513672 38.62890625 278.05078125 C6.40422057 296.92823353 -35.13406036 301.33291129 -71 292 C-111.02853569 280.82206831 -143.73471682 255.41909653 -164.671875 219.48828125 C-182.51047429 187.71985916 -188.5096773 148.59298816 -180 113 C-179.81195801 112.21044922 -179.62391602 111.42089844 -179.43017578 110.60742188 C-174.92371744 92.49554633 -167.22518581 74.96691442 -156 60 C-155.60232422 59.45859375 -155.20464844 58.9171875 -154.79492188 58.359375 C-133.06715666 28.90249635 -102.57537098 8.69783519 -67 0 C-66.0090332 -0.2477417 -66.0090332 -0.2477417 -64.99804688 -0.50048828 C-44.62433847 -5.35304395 -20.29356095 -5.0510186 0 0 Z " fill="#2780BB" transform="translate(283,103)"/>
<path d="M0 0 C8.58 0 17.16 0 26 0 C26.33 3.3 26.66 6.6 27 10 C27.56847656 9.51789063 28.13695312 9.03578125 28.72265625 8.5390625 C29.49480469 7.90742188 30.26695312 7.27578125 31.0625 6.625 C31.81660156 5.99851563 32.57070313 5.37203125 33.34765625 4.7265625 C42.5323136 -1.25225716 56.25600251 -0.06333929 66.69140625 1.58203125 C74.0160382 3.6306831 79.10923781 7.42991748 83 14 C87.23914318 22.8013573 87.53369053 31.16487514 87.390625 40.73046875 C87.38314634 42.21689587 87.37746111 43.70333298 87.37347412 45.18977356 C87.35834521 49.06479057 87.31917742 52.93918895 87.2746582 56.81396484 C87.23342681 60.78279252 87.21540419 64.7517221 87.1953125 68.72070312 C87.1526672 76.4807808 87.08242602 84.24022422 87 92 C78.09 92 69.18 92 60 92 C59.96261719 88.27847656 59.92523438 84.55695313 59.88671875 80.72265625 C59.84044193 77.09849334 59.78923051 73.47443119 59.73754883 69.8503418 C59.70439668 67.34129006 59.67633486 64.83216548 59.65356445 62.32299805 C59.6198403 58.70590319 59.56751373 55.08946998 59.51171875 51.47265625 C59.50532883 50.35979752 59.4989389 49.24693878 59.49235535 48.10035706 C59.34474812 40.19268778 58.69145984 33.22975181 53.5 27 C49.58260426 23.86608341 46.18665703 23.65575203 41.3515625 23.71875 C37.38984788 24.19257633 35.21305196 25.62234155 32 28 C28.32772836 32.77395313 27.89103891 37.64662678 27.79467773 43.5246582 C27.77473251 44.60540115 27.75478729 45.6861441 27.73423767 46.79963684 C27.71752518 47.9550145 27.70081268 49.11039215 27.68359375 50.30078125 C27.66281265 51.49229294 27.64203156 52.68380463 27.62062073 53.91142273 C27.55531821 57.71172403 27.49632982 61.51209352 27.4375 65.3125 C27.39429644 67.89128305 27.35068156 70.47005924 27.30664062 73.04882812 C27.19888382 79.36581659 27.09966622 85.68285797 27 92 C18.09 92 9.18 92 0 92 C0 61.64 0 31.28 0 0 Z " fill="#FCFDFE" transform="translate(231,226)"/>
<path d="M0 0 C10.56 0 21.12 0 32 0 C32 30.03 32 60.06 32 91 C21.44 91 10.88 91 0 91 C0 60.97 0 30.94 0 0 Z " fill="#FDFDFE" transform="translate(181,227)"/>
<path d="M0 0 C0.33 0 0.66 0 1 0 C1.33 3.63 1.66 7.26 2 11 C2.66 9.68 3.32 8.36 4 7 C5.69433918 10.0469629 6.49467112 12.82821466 7.125 16.25 C7.29257812 17.14203125 7.46015625 18.0340625 7.6328125 18.953125 C7.75398438 19.62859375 7.87515625 20.3040625 8 21 C8.66 21 9.32 21 10 21 C9.97679687 21.56847656 9.95359375 22.13695312 9.9296875 22.72265625 C9.8082353 27.91907542 10.47977017 31.99218409 12 37 C13.76719106 47.77986547 14.49230168 60.44774859 11.50390625 71.04296875 C10.74012243 74.00929195 10.56228496 77.00612481 10.34375 80.0546875 C10 82 10 82 8 85 C7.505 84.505 7.505 84.505 7 84 C5.65627619 86.68744762 5.55466182 89.205597 5.1875 92.1875 C4.3632907 97.80823558 3.12227196 101.31659206 0 106 C-0.350625 106.9075 -0.70125 107.815 -1.0625 108.75 C-2 111 -2 111 -3.4375 112.375 C-5.84009644 114.87370029 -6.72831951 117.79052066 -8 121 C-8.99 121 -9.98 121 -11 121 C-8.28620153 105.66030225 -8.28620153 105.66030225 -6.3125 99.0625 C-5.14633303 95.02299379 -4.84369273 91.62649804 -5.03369141 87.44604492 C-4.99832283 84.87823505 -4.56051141 82.6836376 -4.015625 80.17578125 C-2.44558829 71.10990714 -2.73926436 61.95355291 -2.79418945 52.78320312 C-2.81241744 49.63923977 -2.81469867 46.49557322 -2.81445312 43.3515625 C-2.83290522 33.72893504 -2.93495214 24.20841593 -3.92211914 14.62866211 C-4.03880572 10.69021585 -2.88952004 8.41567083 -1 5 C-0.30859478 2.22111387 -0.30859478 2.22111387 0 0 Z " fill="#4688C0" transform="translate(361,196)"/>
<path d="M0 0 C2.60317726 3.90476588 1.93414982 5.41434718 1.25 10 C1.04664196 11.45942233 0.84488244 12.91906809 0.64453125 14.37890625 C0.48331787 15.52190186 0.48331787 15.52190186 0.31884766 16.68798828 C-2.57967586 37.70561288 -3.07813544 58.81143744 -3.125 80 C-3.12767883 80.68436127 -3.13035767 81.36872253 -3.13311768 82.07382202 C-3.17288711 91.14899612 -3.17288711 91.14899612 -2.43359375 100.18359375 C-1.93735133 104.55142116 -2.52748252 106.92892225 -4 111 C-4.33 111 -4.66 111 -5 111 C-5.33 107.37 -5.66 103.74 -6 100 C-6.66 101.32 -7.32 102.64 -8 104 C-8.66 103.67 -9.32 103.34 -10 103 C-10.37890625 100.85546875 -10.37890625 100.85546875 -10.5625 98.1875 C-10.94216544 92.94191834 -12.0140394 88.95613646 -14.0625 84.125 C-16.25419677 78.28310321 -16.29358251 73.05515761 -16.04296875 66.87109375 C-15.78040047 64.05540905 -15.78040047 64.05540905 -17 62 C-17.11823272 59.28064744 -17.21196067 56.80510868 -16.515625 54.16015625 C-15.88847359 51.53277191 -15.77304117 49.00896408 -15.625 46.3125 C-15.26115859 41.62235687 -14.46973875 37.63591843 -12.828125 33.2421875 C-11.58353299 29.87239592 -10.63911014 26.42012566 -9.6484375 22.96875 C-9 21 -9 21 -8 20 C-7.76924918 18.65252916 -7.58846937 17.29622435 -7.4375 15.9375 C-7.293125 14.638125 -7.14875 13.33875 -7 12 C-6.34 12 -5.68 12 -5 12 C-5 10.35 -5 8.7 -5 7 C-3.68 7 -2.36 7 -1 7 C-1.020625 6.030625 -1.04125 5.06125 -1.0625 4.0625 C-1 1 -1 1 0 0 Z " fill="#5A90C5" transform="translate(143,193)"/>
<path d="M0 0 C5.00230198 2.45567552 8.49851535 5.9970307 11 11 C11.85822667 16.90950364 11.09299695 21.38113172 7.60546875 26.265625 C4.15027264 29.99824562 0.57671923 31.76979154 -4.4921875 32.22265625 C-10.10464009 32.00941717 -13.67889687 30.56564171 -17.66015625 26.59375 C-21.27852993 22.28967869 -21.44219639 17.88894801 -21.3125 12.43359375 C-20.67686301 7.48357071 -17.96210726 4.89170917 -14.4375 1.625 C-9.57038192 -0.67581945 -5.29437994 -0.78113802 0 0 Z " fill="#FAFCFD" transform="translate(202,181)"/>
<path d="M0 0 C1 3 1 3 -0.3984375 5.9609375 C-1.05070312 7.08757812 -1.70296875 8.21421875 -2.375 9.375 C-4.66266443 13.3396774 -6.22982867 16.5048654 -7 21 C-8.00844802 23.31786697 -9.12286892 25.55825988 -10.2578125 27.81640625 C-11.12489401 30.36745131 -10.79743567 31.48094826 -10 34 C-10.4375 36.25 -10.4375 36.25 -11 38 C-10.34 38 -9.68 38 -9 38 C-9.37125 39.03125 -9.7425 40.0625 -10.125 41.125 C-11.0926523 45.41031733 -10.45709268 46.99299514 -9 51 C-9.66 51.99 -10.32 52.98 -11 54 C-11.04080783 55.99958364 -11.04254356 58.00045254 -11 60 C-11.33 60.66 -11.66 61.32 -12 62 C-11.505 63.5778125 -11.505 63.5778125 -11 65.1875 C-9.87821621 69.46430071 -10.2428469 71.66357768 -11 76 C-11.4910434 80.65845119 -11.77739301 85.3221178 -12 90 C-12.0407666 90.80373047 -12.0815332 91.60746094 -12.12353516 92.43554688 C-12.67955661 104.93774841 -11.79210516 115.4039023 -7 127 C-6.54270508 128.10674072 -6.54270508 128.10674072 -6.07617188 129.23583984 C-4.13648969 133.86462687 -2.10269521 138.44315044 0 143 C-0.99 143.99 -0.99 143.99 -2 145 C-8.45279006 132.32385242 -13.59202365 119.82786404 -17 106 C-17.17789063 105.29149902 -17.35578125 104.58299805 -17.5390625 103.85302734 C-24.07246876 76.50735173 -22.28640052 40.39597508 -9 15 C-8.34 15 -7.68 15 -7 15 C-6.773125 14.195625 -6.54625 13.39125 -6.3125 12.5625 C-4.66368412 8.08714261 -2.39455588 4.11278682 0 0 Z " fill="#B5C7E4" transform="translate(120,177)"/>
<path d="M0 0 C3.41637214 3.81096832 4.79228402 8.30884898 6.4375 13.0625 C6.74316895 13.94067383 7.04883789 14.81884766 7.36376953 15.72363281 C19.75542687 52.48489289 17.81720379 92.9581825 1 128 C-2.27586834 134.36274427 -5.49491827 140.32902156 -11 145 C-11.33 144.01 -11.66 143.02 -12 142 C-10.515 141.01 -10.515 141.01 -9 140 C-8.63837971 138.67405895 -8.30271961 137.34061543 -8 136 C-7.34 135.67 -6.68 135.34 -6 135 C-5.79503906 133.96939453 -5.79503906 133.96939453 -5.5859375 132.91796875 C-4.82358112 129.12143398 -3.23195588 125.80855851 -1.625 122.3125 C2.07866104 114.04462691 5.0157285 106.05529777 6 97 C5.34 96.67 4.68 96.34 4 96 C4.350625 95.13375 4.70125 94.2675 5.0625 93.375 C6.07885033 89.71613882 5.65258828 87.67080905 5 84 C5.66 83.01 6.32 82.02 7 81 C6.67 80.01 6.34 79.02 6 78 C6.33 77.67 6.66 77.34 7 77 C6.34 76.34 5.68 75.68 5 75 C5.3125 71.8125 5.3125 71.8125 6 68 C7.25546577 60.14393472 7.41709193 52.31176166 7.5 44.375 C7.5084494 43.59664795 7.5168988 42.8182959 7.52560425 42.01635742 C7.59631818 29.3342298 6.00795832 18.40653098 0.75610352 6.71289062 C0 5 0 5 -1 2 C-0.67 1.34 -0.34 0.68 0 0 Z " fill="#9FB8DC" transform="translate(385,187)"/>
<path d="M0 0 C1.88391785 3.26545761 2.49287967 6.28111761 3 10 C3.66 10 4.32 10 5 10 C4.96519531 10.85271484 4.96519531 10.85271484 4.9296875 11.72265625 C4.8082353 16.91907542 5.47977017 20.99218409 7 26 C8.76719106 36.77986547 9.49230168 49.44774859 6.50390625 60.04296875 C5.74012243 63.00929195 5.56228496 66.00612481 5.34375 69.0546875 C5 71 5 71 3 74 C2.67 73.67 2.34 73.34 2 73 C0.78306124 75.43387753 0.68040104 77.41838846 0.4375 80.125 C0.35371094 81.03507812 0.26992188 81.94515625 0.18359375 82.8828125 C0.12300781 83.58148438 0.06242187 84.28015625 0 85 C-0.33 85 -0.66 85 -1 85 C-1.02312297 74.06503529 -1.04091485 63.13007634 -1.05181217 52.1950922 C-1.0570411 47.11808982 -1.06413892 42.04110411 -1.07543945 36.96411133 C-1.08626799 32.06879448 -1.09227676 27.17349371 -1.09487724 22.27816582 C-1.09673155 20.40617049 -1.10035228 18.53417609 -1.10573006 16.66218758 C-1.11294004 14.04959301 -1.11399096 11.43706573 -1.11352539 8.82446289 C-1.11712067 8.04259613 -1.12071594 7.26072937 -1.12442017 6.45516968 C-1.11405216 1.11405216 -1.11405216 1.11405216 0 0 Z " fill="#86A7D3" transform="translate(366,207)"/>
<path d="M0 0 C0.33 0 0.66 0 1 0 C1 27.06 1 54.12 1 82 C0.34 82 -0.32 82 -1 82 C-1.06058594 81.32453125 -1.12117187 80.6490625 -1.18359375 79.953125 C-1.26738281 79.06109375 -1.35117188 78.1690625 -1.4375 77.25 C-1.51871094 76.36828125 -1.59992188 75.4865625 -1.68359375 74.578125 C-2.19812469 70.38565066 -3.41817864 67.00300522 -5.0625 63.125 C-7.25419677 57.28310321 -7.29358251 52.05515761 -7.04296875 45.87109375 C-6.78040047 43.05540905 -6.78040047 43.05540905 -8 41 C-8.11823272 38.28064744 -8.21196067 35.80510868 -7.515625 33.16015625 C-6.88847359 30.53277191 -6.77304117 28.00896408 -6.625 25.3125 C-6.26130992 20.62430752 -5.46841145 16.63933122 -3.83203125 12.24609375 C-2.87838523 9.67169721 -2.09146514 7.06973766 -1.3125 4.4375 C-1.06113281 3.59058594 -0.80976563 2.74367187 -0.55078125 1.87109375 C-0.36902344 1.25363281 -0.18726563 0.63617188 0 0 Z " fill="#8DABD5" transform="translate(134,214)"/>
<path d="M0 0 C2.24410331 4.48820662 0.92484546 9.71488487 0 14.4375 C-0.76123654 18.33355092 -1.06308735 21.85870817 -0.93847656 25.84130859 C-1.01267854 28.44485571 -1.49786426 30.85453721 -1.984375 33.4140625 C-3.36253356 42.13225458 -3.29973522 50.81655119 -3.26074219 59.62597656 C-3.25012327 62.46701933 -3.26063567 65.30741516 -3.2734375 68.1484375 C-3.28169371 80.86960111 -2.42481893 93.36162886 -1 106 C-2.33333333 106 -3.66666667 106 -5 106 C-5 104.35 -5 102.7 -5 101 C-5.66 101 -6.32 101 -7 101 C-7.7429246 96.3543235 -8.128179 91.89831954 -8.1328125 87.1953125 C-8.13498779 85.90294678 -8.13716309 84.61058105 -8.1394043 83.27905273 C-8.13534557 81.89436611 -8.13052579 80.50968154 -8.125 79.125 C-8.12311676 78.4148172 -8.12123352 77.7046344 -8.11929321 76.97293091 C-8.06285037 58.73116611 -7.45162568 40.58025903 -5.86758423 22.40139771 C-5.74886419 21.02429757 -5.63527856 19.64674377 -5.52719116 18.26876831 C-4.46288873 4.95978768 -4.46288873 4.95978768 0 0 Z " fill="#3682BD" transform="translate(147,194)"/>
<path d="M0 0 C1 3 1 3 -0.3984375 5.9609375 C-1.05070312 7.08757812 -1.70296875 8.21421875 -2.375 9.375 C-4.66266443 13.3396774 -6.22982867 16.5048654 -7 21 C-8.00844802 23.31786697 -9.12286892 25.55825988 -10.2578125 27.81640625 C-11.12489401 30.36745131 -10.79743567 31.48094826 -10 34 C-10.4375 36.25 -10.4375 36.25 -11 38 C-10.34 38 -9.68 38 -9 38 C-9.18175781 38.58265625 -9.36351563 39.1653125 -9.55078125 39.765625 C-11.35350373 45.6452737 -12.91812421 51.55088378 -14.3515625 57.53125 C-15 60 -15 60 -16 62 C-16.09499746 63.33068147 -16.13072802 64.66593353 -16.1328125 66 C-16.13450439 66.80042725 -16.13619629 67.60085449 -16.13793945 68.42553711 C-16.13366943 69.27510986 -16.12939941 70.12468262 -16.125 71 C-16.1252417 71.86052979 -16.1254834 72.72105957 -16.12573242 73.60766602 C-16.10049734 78.84419204 -15.85405791 83.92337468 -14.92578125 89.08984375 C-15.02991918 91.77002534 -16.2791384 93.0225575 -18 95 C-18.06058594 94.08476562 -18.12117188 93.16953125 -18.18359375 92.2265625 C-18.26738281 91.03804688 -18.35117188 89.84953125 -18.4375 88.625 C-18.51871094 87.44164062 -18.59992188 86.25828125 -18.68359375 85.0390625 C-18.81084936 82.08481099 -18.81084936 82.08481099 -20 80 C-21.75241371 58.84624234 -18.96259365 34.0427633 -9 15 C-8.34 15 -7.68 15 -7 15 C-6.773125 14.195625 -6.54625 13.39125 -6.3125 12.5625 C-4.66368412 8.08714261 -2.39455588 4.11278682 0 0 Z " fill="#92AED6" transform="translate(120,177)"/>
<path d="M0 0 C1.15957907 4.14779955 1.12093584 8.14382191 1.08520508 12.42114258 C1.08202271 13.26879684 1.07884033 14.11645111 1.07556152 14.98979187 C1.06297797 17.79144402 1.04209655 20.59294259 1.01953125 23.39453125 C1.0090957 24.83222146 1.0090957 24.83222146 0.99844933 26.29895592 C0.96106982 31.37100352 0.91706879 36.44294596 0.86791992 41.51489258 C0.81857554 46.74692033 0.79238166 51.97879574 0.77148914 57.2110033 C0.7510919 61.24069341 0.71320498 65.27008563 0.6706295 69.29959679 C0.65331954 71.22798605 0.64260138 73.15644647 0.63868141 75.08490944 C0.63157828 77.78737193 0.59960833 80.48849034 0.56176758 83.19067383 C0.5652269 83.98208771 0.56868622 84.77350159 0.57225037 85.58889771 C0.45705095 91.17176343 -0.95214462 94.32604203 -4 99 C-4.70286303 100.65172812 -5.38655243 102.31301918 -6 104 C-6.66 104 -7.32 104 -8 104 C-7.87882812 103.04222656 -7.75765625 102.08445312 -7.6328125 101.09765625 C-7.27511647 98.2649054 -6.92356114 95.4314485 -6.57421875 92.59765625 C-6.219621 89.72776237 -5.84802412 86.8612382 -5.45703125 83.99609375 C-3.33913155 68.06263829 -2.93634755 52.09481427 -3.046875 36.0390625 C-3.05498703 34.59069504 -3.05498703 34.59069504 -3.06326294 33.11306763 C-3.09200951 28.21626425 -3.13813238 23.32064399 -3.21240234 18.42431641 C-3.22807376 16.60059045 -3.24323276 14.77686001 -3.2578125 12.953125 C-3.27648376 12.10932281 -3.29515503 11.26552063 -3.31439209 10.39614868 C-3.33967401 4.57345287 -3.33967401 4.57345287 -1.48388672 1.44042969 C-0.74936279 0.72741699 -0.74936279 0.72741699 0 0 Z " fill="#6596C9" transform="translate(365,203)"/>
<path d="M0 0 C0.99 0 1.98 0 3 0 C2.6925646 3.41714219 2.37816912 6.83360937 2.0625 10.25 C1.97548828 11.21808594 1.88847656 12.18617188 1.79882812 13.18359375 C1.71181641 14.11816406 1.62480469 15.05273438 1.53515625 16.015625 C1.456604 16.87446289 1.37805176 17.73330078 1.29711914 18.61816406 C1 21 1 21 0.49227905 22.73332214 C-0.15928603 25.73342573 -0.1490434 28.57827593 -0.17358398 31.64868164 C-0.180271 32.30768967 -0.18695801 32.96669769 -0.19384766 33.64567566 C-0.20786041 35.07194767 -0.21976636 36.49824161 -0.22979546 37.9245472 C-0.24624939 40.18150497 -0.26948632 42.43829918 -0.29469299 44.69517517 C-0.36536584 51.11025821 -0.4256864 57.52540558 -0.47680664 63.94067383 C-0.50857714 67.86814755 -0.54983949 71.7954283 -0.59700203 75.7227459 C-0.61302419 77.21904476 -0.62534479 78.71538798 -0.63390923 80.21174812 C-0.64604847 82.30160297 -0.67018907 84.39100248 -0.69702148 86.48071289 C-0.71248268 88.26464195 -0.71248268 88.26464195 -0.72825623 90.08460999 C-1 93 -1 93 -3 96 C-3.02322649 85.46396891 -3.04096749 74.92794397 -3.05181217 64.39189243 C-3.0570185 59.49896397 -3.0640751 54.6060531 -3.07543945 49.71313477 C-3.08634853 44.98636135 -3.09229377 40.25960479 -3.09487724 35.53281975 C-3.09671708 33.73442253 -3.10030971 31.93602618 -3.10573006 30.13763618 C-3.11304708 27.60809499 -3.11398648 25.07862243 -3.11352539 22.54907227 C-3.11712067 21.81466919 -3.12071594 21.08026611 -3.12442017 20.3236084 C-3.11429573 15.1509141 -2.63810151 10.13386971 -2 5 C-1.34 5 -0.68 5 0 5 C0 3.35 0 1.7 0 0 Z " fill="#759ECD" transform="translate(138,200)"/>
<path d="M0 0 C0.33 0 0.66 0 1 0 C1.02501545 5.5826791 1.04300682 11.16532443 1.05493164 16.74804688 C1.05991129 18.64095631 1.06669743 20.53386201 1.07543945 22.42675781 C1.12450957 33.33764346 1.01884711 44.12693713 0 55 C-4.20569402 48.69145898 -4.18597141 42.96605286 -3.97265625 35.57421875 C-3.81207666 33.01110655 -3.81207666 33.01110655 -5 31 C-5.11823272 28.28064744 -5.21196067 25.80510868 -4.515625 23.16015625 C-3.88847359 20.53277191 -3.77304117 18.00896408 -3.625 15.3125 C-3.21404486 9.82186985 -2.04608803 5.09591737 0 0 Z " fill="#A8BDDF" transform="translate(131,224)"/>
<path d="M0 0 C0.33 0 0.66 0 1 0 C1.87288005 29.28176846 -2.11823824 54.78395155 -16 81 C-16.66 80.34 -17.32 79.68 -18 79 C-17.54109375 78.06800781 -17.0821875 77.13601563 -16.609375 76.17578125 C-11.63601612 65.90925076 -7.06855922 55.48701166 -6 44 C-6.66 43.67 -7.32 43.34 -8 43 C-7.690625 42.0925 -7.38125 41.185 -7.0625 40.25 C-6.4889264 38.49553958 -5.93487949 36.73137789 -5.5 34.9375 C-5 33 -5 33 -4 30.6875 C-1.40973908 23.72617377 -1.69258648 15.93440004 -1.39453125 8.58789062 C-1.35714844 7.76869141 -1.31976563 6.94949219 -1.28125 6.10546875 C-1.25095703 5.36449951 -1.22066406 4.62353027 -1.18945312 3.86010742 C-1 2 -1 2 0 0 Z " fill="#8CABD5" transform="translate(397,240)"/>
<path d="M0 0 C0.33 0 0.66 0 1 0 C5.93960376 32.52235118 -0.220613 69.52232212 -19 97 C-20.58514857 98.88460989 -22.11874 100.40377939 -24 102 C-24.33 101.01 -24.66 100.02 -25 99 C-23.515 98.01 -23.515 98.01 -22 97 C-21.7525 96.01 -21.7525 96.01 -21.5 95 C-21 93 -21 93 -18 91 C-16.61086937 88.34613851 -15.37030744 85.74413616 -14.1875 83 C-13.66410034 81.79537109 -13.66410034 81.79537109 -13.13012695 80.56640625 C-10.80264792 75.10776803 -8.63455467 69.60570915 -6.6875 64 C-6.45764404 63.36320312 -6.22778809 62.72640625 -5.9909668 62.0703125 C-1.19449301 47.62644564 -0.5205544 32.45071162 -0.3125 17.375 C-0.27919739 15.67445519 -0.24469675 13.97393341 -0.20898438 12.2734375 C-0.12559867 8.18242335 -0.05811898 4.09144784 0 0 Z " fill="#EFF3F9" transform="translate(398,230)"/>
<path d="M0 0 C0.33 0 0.66 0 1 0 C2.95259575 30.64877968 2.93815701 61.77594915 -0.4375 92.3125 C-0.62082886 93.99653931 -0.62082886 93.99653931 -0.80786133 95.71459961 C-0.93185303 96.75366455 -1.05584473 97.79272949 -1.18359375 98.86328125 C-1.29243896 99.78407471 -1.40128418 100.70486816 -1.51342773 101.65356445 C-2 104 -2 104 -4 107 C-5.13685995 103.58141409 -4.83261378 101.1916422 -4.125 97.6875 C-2.98184401 91.46535563 -2.56202478 85.36041296 -2.24609375 79.0546875 C-2 76 -2 76 -1 74 C-0.91327783 71.8409326 -0.89296294 69.67909854 -0.90234375 67.51831055 C-0.90380402 66.85305359 -0.90526428 66.18779663 -0.9067688 65.50238037 C-0.91057781 64.0558619 -0.91669754 62.60934812 -0.92483521 61.16284752 C-0.93758208 58.87196802 -0.94411061 56.58114634 -0.94897461 54.29023743 C-0.96235893 48.59763621 -0.98651072 42.9050896 -1.01037598 37.21252441 C-1.03012479 32.40737529 -1.0457615 27.60224686 -1.05593872 22.79706764 C-1.06240986 20.54311549 -1.07492083 18.28924834 -1.08764648 16.0353241 C-1.09128087 14.64684116 -1.09463237 13.25835745 -1.09765625 11.86987305 C-1.10289307 10.66123093 -1.10812988 9.45258881 -1.11352539 8.20732117 C-1.01201339 5.33940256 -0.66417726 2.78452542 0 0 Z M-5 107 C-4.34 108.32 -3.68 109.64 -3 111 C-3.99 111.99 -4.98 112.98 -6 114 C-7 111 -7 111 -6.0625 108.8125 C-5.5365625 107.9153125 -5.5365625 107.9153125 -5 107 Z " fill="#588FC5" transform="translate(361,196)"/>
<path d="M0 0 C0.33 0 0.66 0 1 0 C1.33 26.07 1.66 52.14 2 79 C1.67 79 1.34 79 1 79 C1 77.35 1 75.7 1 74 C0.34 74 -0.32 74 -1 74 C-1.7429246 69.3543235 -2.128179 64.89831954 -2.1328125 60.1953125 C-2.13482666 58.90125488 -2.13684082 57.60719727 -2.13891602 56.27392578 C-2.13482242 54.8909488 -2.13017191 53.50797337 -2.125 52.125 C-2.12378143 51.42179626 -2.12256287 50.71859253 -2.12130737 49.99407959 C-2.08751425 33.30878623 -1.83828159 16.59641224 0 0 Z " fill="#4587C0" transform="translate(141,221)"/>
<path d="M0 0 C0.66 0 1.32 0 2 0 C3.63549609 6.92850535 4.31269426 13.45192614 4.25 20.5625 C4.25773437 21.44357422 4.26546875 22.32464844 4.2734375 23.23242188 C4.25821014 28.39069013 3.70973788 33.05048034 2.46777344 38.05541992 C1.75132905 41.03374954 1.56210253 44.00866965 1.34375 47.0546875 C1 49 1 49 -1 52 C-2.22508663 47.3020591 -2.0529652 42.81567223 -1.9140625 38.0078125 C-1.89282318 37.14364716 -1.87158386 36.27948181 -1.84970093 35.38912964 C-1.80355431 33.56517595 -1.75463596 31.74129054 -1.703125 29.91748047 C-1.62546828 27.14173816 -1.5581548 24.36588578 -1.4921875 21.58984375 C-1.44593099 19.8124838 -1.39907554 18.03513931 -1.3515625 16.2578125 C-1.33171295 15.4346756 -1.3118634 14.6115387 -1.29141235 13.76345825 C-1.15355738 9.09849615 -0.75379637 4.60670446 0 0 Z " fill="#ADC1E1" transform="translate(370,229)"/>
<path d="M0 0 C7.6154003 11.42310046 5.44543778 31.80259463 5.33618164 45.00561523 C5.31227228 48.09189455 5.31569426 51.17732124 5.32226562 54.26367188 C5.29494497 72.01489168 5.29494497 72.01489168 3.42041016 80.73583984 C2.9847542 83.08210776 2.95382237 85.18369792 3.0625 87.5625 C3.23145747 92.96913903 1.60622977 97.88492305 0 103 C-0.33 103 -0.66 103 -1 103 C-1.20656054 95.78185683 -0.98029129 89.06922099 0.421875 81.98828125 C5.19194318 57.3321856 4.31490944 30.80535039 0.27539062 6.11767578 C0 4 0 4 0 0 Z " fill="#3883BD" transform="translate(354,198)"/>
<path d="M0 0 C0.99 0 1.98 0 3 0 C3.02740022 1.85408125 3.04657422 3.70828469 3.0625 5.5625 C3.07410156 6.59503906 3.08570313 7.62757813 3.09765625 8.69140625 C3 12 3 12 2.50927734 15.12597656 C1.92905101 19.53970212 1.8100662 23.84750077 1.75390625 28.29296875 C1.72099963 30.07487529 1.6877875 31.85677621 1.65429688 33.63867188 C1.60674757 36.42338609 1.56221176 39.20807251 1.52319336 41.99291992 C1.48351009 44.69732287 1.43199887 47.40130047 1.37890625 50.10546875 C1.3704921 50.9378154 1.36207794 51.77016205 1.35340881 52.62773132 C1.33676682 53.40566544 1.32012482 54.18359955 1.30297852 54.98510742 C1.28751732 56.00600716 1.28751732 56.00600716 1.27174377 57.04753113 C0.95225975 59.34301189 0.12751013 60.98984208 -1 63 C-1.02312737 54.93347826 -1.04091709 46.86697028 -1.05181217 38.80042362 C-1.05704014 35.05516963 -1.06413622 31.30993824 -1.07543945 27.56469727 C-1.08627141 23.95318313 -1.09227749 20.34169079 -1.09487724 16.73016167 C-1.09673094 15.34939671 -1.10035049 13.968633 -1.10573006 12.58787727 C-1.11294447 10.66024048 -1.11340809 8.73258193 -1.11352539 6.80493164 C-1.115746 5.70572891 -1.11796661 4.60652618 -1.12025452 3.47401428 C-1 1 -1 1 0 0 Z " fill="#99B4DA" transform="translate(368,217)"/>
<path d="M0 0 C2.82463904 2.82463904 3.40290875 6.15701909 4 10 C3.97550781 11.09054687 3.95101562 12.18109375 3.92578125 13.3046875 C4.00608287 17.30286303 4.82538423 20.67749943 6.0625 24.4375 C6.2793042 25.11619141 6.4961084 25.79488281 6.71948242 26.49414062 C9.27217733 34.22409475 12.59269706 41.61587374 16 49 C15.34 49.66 14.68 50.32 14 51 C9.09919415 41.37263917 4.60386269 31.78686988 1.4375 21.4375 C1.18661621 20.6424707 0.93573242 19.84744141 0.67724609 19.02832031 C-1.00160598 13.24921805 -2.81403804 5.62807608 0 0 Z " fill="#98B3D9" transform="translate(104,271)"/>
<path d="M0 0 C1 3 1 3 -0.3984375 5.9609375 C-1.05070312 7.08757812 -1.70296875 8.21421875 -2.375 9.375 C-4.66266443 13.3396774 -6.22982867 16.5048654 -7 21 C-8.00844802 23.31786697 -9.12286892 25.55825988 -10.2578125 27.81640625 C-11.20271051 29.94544103 -11.20271051 29.94544103 -10.50390625 31.953125 C-9.79268651 34.84211062 -10.6791594 36.47629299 -11.8125 39.1875 C-12.16957031 40.06792969 -12.52664062 40.94835937 -12.89453125 41.85546875 C-14 44 -14 44 -16 45 C-17.13350534 47.01669827 -17.13350534 47.01669827 -18 49 C-17.54806295 41.86646501 -16.20947118 35.43146498 -14.0625 28.625 C-13.79759766 27.74972656 -13.53269531 26.87445313 -13.25976562 25.97265625 C-12.07919188 22.13505921 -10.87542581 18.56124149 -9 15 C-8.34 15 -7.68 15 -7 15 C-6.773125 14.195625 -6.54625 13.39125 -6.3125 12.5625 C-4.66368412 8.08714261 -2.39455588 4.11278682 0 0 Z " fill="#5992C6" transform="translate(120,177)"/>
<path d="M0 0 C1.17670137 4.1877366 1.09086063 8.21489781 1.02172852 12.53222656 C1.01212097 13.39112488 1.00251343 14.25002319 0.99261475 15.13494873 C0.95966773 17.97025867 0.91931898 20.80541246 0.87890625 23.640625 C0.85460094 25.60788423 0.83075758 27.57514922 0.80735779 29.54241943 C0.7445578 34.71771813 0.67547952 39.89291477 0.60510254 45.06811523 C0.53438224 50.35005042 0.46958738 55.6320579 0.40429688 60.9140625 C0.27533718 71.27612113 0.1397461 81.63808162 0 92 C-0.99 92 -1.98 92 -3 92 C-2.89661316 91.02114082 -2.89661316 91.02114082 -2.7911377 90.02250671 C-1.96833244 81.38603471 -1.81012105 72.79853228 -1.73963928 64.13132668 C-1.71832241 61.5298491 -1.69133879 58.92848176 -1.66296387 56.32707214 C-1.59373056 49.88163911 -1.53346649 43.43612955 -1.47393799 36.99060059 C-1.42308731 31.51034407 -1.36836967 26.03015506 -1.30812073 20.54999352 C-1.28152375 17.98344782 -1.26074228 15.41689561 -1.2401123 12.85029602 C-1.22352399 11.29187709 -1.20665348 9.73346113 -1.18945312 8.17504883 C-1.18526871 7.4587883 -1.18108429 6.74252777 -1.17677307 6.00456238 C-1.11387337 1.11387337 -1.11387337 1.11387337 0 0 Z " fill="#779FCE" transform="translate(365,203)"/>
<path d="M0 0 C1.32 0 2.64 0 4 0 C3.52140759 1.60433809 3.04210442 3.20846416 2.5625 4.8125 C2.29566406 5.70582031 2.02882813 6.59914062 1.75390625 7.51953125 C1.19612127 9.35473055 0.60655425 11.18033726 0 13 C-0.66 13 -1.32 13 -2 13 C-2 13.66 -2 14.32 -2 15 C-2.99 15.495 -2.99 15.495 -4 16 C-4.46853709 18.03179594 -4.46853709 18.03179594 -4.6328125 20.47265625 C-4.71660156 21.37177734 -4.80039063 22.27089844 -4.88671875 23.19726562 C-4.96535156 24.14279297 -5.04398437 25.08832031 -5.125 26.0625 C-5.21136719 27.01189453 -5.29773438 27.96128906 -5.38671875 28.93945312 C-5.59954368 31.29235092 -5.80357031 33.64568595 -6 36 C-6.33 36 -6.66 36 -7 36 C-7.24190054 13.85266199 -7.24190054 13.85266199 -3 5 C-2.34 5 -1.68 5 -1 5 C-0.67 3.35 -0.34 1.7 0 0 Z " fill="#6F9DCD" transform="translate(107,215)"/>
<path d="M0 0 C2.03586605 3.37676789 2.25710957 5.98980553 2.265625 9.90234375 C2.26820313 11.03994141 2.27078125 12.17753906 2.2734375 13.34960938 C2.26570312 14.53361328 2.25796875 15.71761719 2.25 16.9375 C2.25773438 18.11763672 2.26546875 19.29777344 2.2734375 20.51367188 C2.27085937 21.65255859 2.26828125 22.79144531 2.265625 23.96484375 C2.26336914 25.0024585 2.26111328 26.04007324 2.25878906 27.10913086 C1.9914249 30.09579029 1.25446391 32.29206462 0 35 C-0.33 35 -0.66 35 -1 35 C-0.98259766 33.84371094 -0.98259766 33.84371094 -0.96484375 32.6640625 C-0.95582031 31.66117187 -0.94679688 30.65828125 -0.9375 29.625 C-0.92589844 28.62726563 -0.91429688 27.62953125 -0.90234375 26.6015625 C-0.81993398 24.01567547 -0.81993398 24.01567547 -2 22 C-2.11751151 19.29723532 -2.21619404 16.82546814 -1.52734375 14.1953125 C-0.85254297 11.38614186 -0.65658413 8.62939146 -0.4375 5.75 C-0.35371094 4.67234375 -0.26992187 3.5946875 -0.18359375 2.484375 C-0.12300781 1.66453125 -0.06242187 0.8446875 0 0 Z " fill="#B9C9E5" transform="translate(128,233)"/>
<path d="M0 0 C2 2 2 2 2.24291992 3.82836914 C2.23881104 4.55660889 2.23470215 5.28484863 2.23046875 6.03515625 C2.22853516 6.84533203 2.22660156 7.65550781 2.22460938 8.49023438 C2.21236328 9.33908203 2.20011719 10.18792969 2.1875 11.0625 C2.18685547 11.88427734 2.18621094 12.70605469 2.18554688 13.55273438 C2.14626083 19.10079731 1.69287123 24.49583093 1 30 C0.01 30 -0.98 30 -2 30 C-2 28 -2 28 -1 27 C-1.66 26.34 -2.32 25.68 -3 25 C-2.83276471 23.35516682 -2.64651048 21.70981728 -2.35986328 20.08154297 C-1.97433084 17.85152289 -1.70974822 15.62858848 -1.46484375 13.37890625 C-1.37783203 12.58935547 -1.29082031 11.79980469 -1.20117188 10.98632812 C-1.11416016 10.18646484 -1.02714844 9.38660156 -0.9375 8.5625 C-0.84662109 7.73556641 -0.75574219 6.90863281 -0.66210938 6.05664062 C-0.44039482 4.03787124 -0.22005497 2.01895096 0 0 Z " fill="#B5C6E4" transform="translate(393,237)"/>
<path d="M0 0 C0.99 0.99 1.98 1.98 3 3 C2.70262939 3.57886963 2.40525879 4.15773926 2.09887695 4.75415039 C-1.81576678 12.75477418 -2.50894095 20.221276 -2.6875 29.0625 C-2.72166016 30.21427734 -2.75582031 31.36605469 -2.79101562 32.55273438 C-2.87279821 35.3683921 -2.94217375 38.18376571 -3 41 C-3.33 41 -3.66 41 -4 41 C-5.06082386 35.78074659 -5.18340015 30.73860997 -5.1875 25.4375 C-5.19974609 24.60025391 -5.21199219 23.76300781 -5.22460938 22.90039062 C-5.23525057 18.4204464 -4.9652794 15.1052503 -3 11 C-2.61082644 9.44584936 -2.25478056 7.88290546 -1.9375 6.3125 C-1.46243977 3.97646 -1.06776078 2.13552156 0 0 Z " fill="#A5BBDE" transform="translate(108,223)"/>
<path d="M0 0 C0.66 0 1.32 0 2 0 C2.88312313 5.32699872 3.19205511 10.47833098 3.1875 15.875 C3.18814453 16.66567871 3.18878906 17.45635742 3.18945312 18.27099609 C3.13957646 23.77216532 2.56998411 28.70130362 1 34 C0.67 34 0.34 34 0 34 C0 22.78 0 11.56 0 0 Z " fill="#C0CEE8" transform="translate(371,235)"/>
<path d="M0 0 C2.13999677 4.27999354 1.09321611 9.49048355 0 14 C-0.66 14 -1.32 14 -2 14 C-2.04898438 14.60328125 -2.09796875 15.2065625 -2.1484375 15.828125 C-2.22320312 16.62734375 -2.29796875 17.4265625 -2.375 18.25 C-2.44460937 19.03890625 -2.51421875 19.8278125 -2.5859375 20.640625 C-3.01678121 23.09562126 -3.84775285 24.80870893 -5 27 C-4.94782273 23.62377072 -4.85267982 20.25004113 -4.75 16.875 C-4.73582031 15.92367187 -4.72164062 14.97234375 -4.70703125 13.9921875 C-4.50098567 8.05807483 -3.85617691 4.58113817 0 0 Z " fill="#4386BF" transform="translate(147,194)"/>
<path d="M0 0 C0.99 0 1.98 0 3 0 C2.72159206 3.41788271 2.42496793 6.83394735 2.125 10.25 C2.04636719 11.21808594 1.96773437 12.18617188 1.88671875 13.18359375 C1.80292969 14.11816406 1.71914062 15.05273438 1.6328125 16.015625 C1.55949707 16.87446289 1.48618164 17.73330078 1.41064453 18.61816406 C0.9867081 21.07709617 0.22775866 22.84159153 -1 25 C-1.02917228 21.77085248 -1.04685663 18.54173917 -1.0625 15.3125 C-1.07087891 14.40048828 -1.07925781 13.48847656 -1.08789062 12.54882812 C-1.09111328 11.66259766 -1.09433594 10.77636719 -1.09765625 9.86328125 C-1.10289307 9.05157471 -1.10812988 8.23986816 -1.11352539 7.40356445 C-0.9929791 4.85135327 -0.559949 2.48973863 0 0 Z " fill="#6D9ACB" transform="translate(138,200)"/>
<path d="M0 0 C2.92904721 5.66550157 3.18177737 10.86399483 3.1875 17.1875 C3.19974609 17.91130859 3.21199219 18.63511719 3.22460938 19.38085938 C3.22984064 21.25539471 3.12248796 23.1294635 3 25 C2.34 25.66 1.68 26.32 1 27 C-0.20484722 21.36473035 -0.1129643 15.85463885 -0.0625 10.125 C-0.05798828 9.15046875 -0.05347656 8.1759375 -0.04882812 7.171875 C-0.03710906 4.78118566 -0.02070219 2.3906256 0 0 Z " fill="#B4C7E3" transform="translate(395,215)"/>
<path d="M0 0 C0.33 0 0.66 0 1 0 C1 8.91 1 17.82 1 27 C0.67 27 0.34 27 0 27 C0 18.09 0 9.18 0 0 Z M-1 27 C-0.67 27 -0.34 27 0 27 C0 31.95 0 36.9 0 42 C-0.99 42.495 -0.99 42.495 -2 43 C-3.26823485 39.34606463 -2.75715321 36.50929974 -2.0625 32.75 C-1.86785156 31.67234375 -1.67320312 30.5946875 -1.47265625 29.484375 C-1.31667969 28.66453125 -1.16070312 27.8446875 -1 27 Z " fill="#709BCC" transform="translate(363,256)"/>
<path d="M0 0 C0.33 0.66 0.66 1.32 1 2 C-0.14453125 4.4609375 -0.14453125 4.4609375 -1.8125 7.375 C-4.0272756 11.23931242 -4.0272756 11.23931242 -6.03515625 15.2109375 C-7.45534797 17.84432944 -9.62288276 19.24843993 -12 21 C-12.33 20.01 -12.66 19.02 -13 18 C-12.01 17.34 -11.02 16.68 -10 16 C-9.835 15.34 -9.67 14.68 -9.5 14 C-9 12 -9 12 -6 10 C-4.59794139 7.85700756 -4.59794139 7.85700756 -3.375 5.4375 C-1.06779661 1.06779661 -1.06779661 1.06779661 0 0 Z " fill="#F6F8FB" transform="translate(386,311)"/>
<path d="M0 0 C4.86087226 5.55528258 6.45118734 11.78100258 6 19 C3.85411834 15.78117751 2.60197657 12.54876914 1.3125 8.9375 C1.07466797 8.30005859 0.83683594 7.66261719 0.59179688 7.00585938 C-0.00030023 5.35805833 -0.50661705 3.68000016 -1 2 C-0.67 1.34 -0.34 0.68 0 0 Z " fill="#95B4D9" transform="translate(385,187)"/>
<path d="M0 0 C2.48627517 3.0622744 4.09989404 6.1457054 5.6875 9.75 C6.12449219 10.73484375 6.56148438 11.7196875 7.01171875 12.734375 C7.33785156 13.48203125 7.66398437 14.2296875 8 15 C7.34 15.66 6.68 16.32 6 17 C4.98758753 15.11076602 3.99052575 13.21330056 3 11.3125 C2.443125 10.25675781 1.88625 9.20101563 1.3125 8.11328125 C0.0327726 5.07773738 -0.28851043 3.23973174 0 0 Z " fill="#88ACD5" transform="translate(112,305)"/>
<path d="M0 0 C0.33 0.99 0.66 1.98 1 3 C-2.3 6.3 -5.6 9.6 -9 13 C-9.66 12.34 -10.32 11.68 -11 11 C-7.37 7.37 -3.74 3.74 0 0 Z " fill="#3E8CC1" transform="translate(359,348)"/>
<path d="M0 0 C0 3.41761705 -0.75938546 5.82954062 -2 9 C-2.99 9.495 -2.99 9.495 -4 10 C-5.13350534 12.01669827 -5.13350534 12.01669827 -6 14 C-5.80743982 4.82713348 -5.80743982 4.82713348 -2.4375 1.375 C-1.633125 0.92125 -0.82875 0.4675 0 0 Z " fill="#6298C9" transform="translate(108,212)"/>
<path d="M0 0 C0.66 0.33 1.32 0.66 2 1 C1.57202798 6.70629354 -0.84345952 10.41078616 -4 15 C-5 13 -5 13 -4.00390625 9.9609375 C-3.52824219 8.77757812 -3.05257813 7.59421875 -2.5625 6.375 C-2.08941406 5.18648438 -1.61632812 3.99796875 -1.12890625 2.7734375 C-0.75636719 1.85820312 -0.38382812 0.94296875 0 0 Z " fill="#ECF2F8" transform="translate(390,297)"/>
<path d="M0 0 C0.33 0 0.66 0 1 0 C1 4.95 1 9.9 1 15 C0.01 15.495 0.01 15.495 -1 16 C-3.09090909 5.02272727 -3.09090909 5.02272727 0 0 Z " fill="#C3D0E9" transform="translate(128,245)"/>
<path d="M0 0 C0.33 0 0.66 0 1 0 C1.19294408 4.82360189 0.75747614 8.49646738 -1 13 C-1.66 12.67 -2.32 12.34 -3 12 C-2.88541307 10.56163249 -2.75790884 9.12429034 -2.625 7.6875 C-2.55539062 6.88699219 -2.48578125 6.08648437 -2.4140625 5.26171875 C-2 3 -2 3 0 0 Z " fill="#8AAAD4" transform="translate(393,282)"/>
<path d="M0 0 C1.32 0 2.64 0 4 0 C3.54803755 1.60597325 3.08817673 3.20972508 2.625 4.8125 C2.36976562 5.70582031 2.11453125 6.59914062 1.8515625 7.51953125 C1 10 1 10 -1 13 C-1.07654536 8.48382401 -1.10228696 4.40914783 0 0 Z " fill="#98B2D9" transform="translate(107,215)"/>
<path d="M0 0 C2.73704754 2.73704754 3.16182449 5.26044774 4 9 C3.625 11.4375 3.625 11.4375 3 13 C-0.36055646 8.51925805 -0.27429625 5.39449293 0 0 Z " fill="#B5CAE4" transform="translate(391,202)"/>
<path d="M0 0 C0.33 0 0.66 0 1 0 C1 4.95 1 9.9 1 15 C0.01 15 -0.98 15 -2 15 C-1.34 10.05 -0.68 5.1 0 0 Z " fill="#C1CFE8" transform="translate(392,248)"/>
<path d="M0 0 C0.99 0.33 1.98 0.66 3 1 C2.071875 1.7425 1.14375 2.485 0.1875 3.25 C-2.27126958 5.29025561 -4.21647549 7.32471323 -6 10 C-5.58578031 5.16743695 -3.53586014 3.17320782 0 0 Z " fill="#106EB1" transform="translate(266,251)"/>
<path d="M0 0 C0.99 0 1.98 0 3 0 C4.125 3.3125 4.125 3.3125 5 7 C4.01 8.485 4.01 8.485 3 10 C2.01 6.7 1.02 3.4 0 0 Z " fill="#A4BEDE" transform="translate(108,298)"/>
<path d="M0 0 C1.32342458 3.97027374 0.36639254 6.11656858 -1 10 C-1.99 10.495 -1.99 10.495 -3 11 C-2.88590407 9.54077307 -2.75834456 8.08259402 -2.625 6.625 C-2.55539062 5.81289063 -2.48578125 5.00078125 -2.4140625 4.1640625 C-2 2 -2 2 0 0 Z " fill="#F2F5FA" transform="translate(398,271)"/>
<path d="M0 0 C0.66 0 1.32 0 2 0 C2.33 0.99 2.66 1.98 3 3 C1.59554165 5.2636564 -0.1967913 7.0208685 -2 9 C-2.66 8.01 -3.32 7.02 -4 6 C-3.01 5.34 -2.02 4.68 -1 4 C-0.27617533 1.94074861 -0.27617533 1.94074861 0 0 Z " fill="#A8C5E1" transform="translate(377,323)"/>
<path d="" fill="#FFFFFF" transform="translate(0,0)"/>
<path d="" fill="#FFFFFF" transform="translate(0,0)"/>
<path d="" fill="#FFFFFF" transform="translate(0,0)"/>
<path d="" fill="#FFFFFF" transform="translate(0,0)"/>
</svg>
