<?xml version="1.0" encoding="UTF-8"?>
<svg version="1.1" xmlns="http://www.w3.org/2000/svg" width="188" height="188">
<path d="M0 0 C0.74362793 0.00265869 1.48725586 0.00531738 2.25341797 0.00805664 C8.12631632 0.05830128 13.91818712 0.41090046 19.75 1.125 C21.02875 1.269375 22.3075 1.41375 23.625 1.5625 C26.57384274 2.09329169 29.02968086 2.8884913 31.75 4.125 C31.75 4.785 31.75 5.445 31.75 6.125 C34.85776788 7.82687288 37.34429943 9.06820192 40.875 9.5625 C44.38893837 10.25000968 45.38451104 11.52296215 47.75 14.125 C48.45125 14.455 49.1525 14.785 49.875 15.125 C51.75 16.125 51.75 16.125 52.6328125 17.95703125 C53.92524752 20.46507824 55.43254314 21.90130441 57.5 23.8125 C61.17960998 27.36499618 63.88270806 31.07070719 66.5234375 35.4375 C66.92820313 35.994375 67.33296875 36.55125 67.75 37.125 C68.41 37.125 69.07 37.125 69.75 37.125 C69.86601562 37.83785156 69.98203125 38.55070312 70.1015625 39.28515625 C70.78654166 42.28503487 71.84558167 44.76716481 73.125 47.5625 C81.08392908 66.57165235 81.57180288 89.00747384 73.90429688 108.24707031 C70.05520473 117.18333838 65.23749881 124.84173731 58.75 132.125 C57.68708982 133.39549028 56.62455439 134.66629424 55.5625 135.9375 C51.22734322 141.03229151 46.76955802 145.06060637 40.9375 148.375 C40.35935547 148.725625 39.78121094 149.07625 39.18554688 149.4375 C34.65562103 152.04033032 30.94204544 152.64923488 25.75 153.125 C23.76173669 153.58750373 21.7811061 154.08491602 19.8125 154.625 C6.11695288 158.15211955 -7.28528252 157.02284636 -21.25 156.125 C-21.58 155.465 -21.91 154.805 -22.25 154.125 C-24.42310535 153.2460206 -24.42310535 153.2460206 -27 152.5625 C-27.86109375 152.31371094 -28.7221875 152.06492188 -29.609375 151.80859375 C-32.20424796 151.08937425 -32.20424796 151.08937425 -34.72265625 150.74609375 C-37.91599606 149.96133173 -40.1810418 148.53248457 -42.9375 146.75 C-43.89011719 146.14414063 -44.84273437 145.53828125 -45.82421875 144.9140625 C-48.25 143.125 -48.25 143.125 -50.25 140.125 C-50.91 139.815625 -51.57 139.50625 -52.25 139.1875 C-54.78125828 137.84276904 -54.98194574 136.66110853 -56.25 134.125 C-57.43324305 132.66677794 -58.64483179 131.23135935 -59.875 129.8125 C-74.38529193 111.84612036 -78.68344751 90.83015135 -77.25 68.125 C-75.53452438 52.90132562 -68.45715715 39.80878832 -60.25 27.125 C-59.92 26.135 -59.59 25.145 -59.25 24.125 C-58.63125 23.83625 -58.0125 23.5475 -57.375 23.25 C-55.01508051 22.23929655 -55.01508051 22.23929655 -53.75 19.5625 C-52.25 17.125 -52.25 17.125 -50.125 16.5 C-49.50625 16.37625 -48.8875 16.2525 -48.25 16.125 C-47.92 15.135 -47.59 14.145 -47.25 13.125 C-44.85605353 11.26654156 -42.15027063 9.90028142 -39.5 8.4375 C-38.78328125 8.02177734 -38.0665625 7.60605469 -37.328125 7.17773438 C-33.53344457 5.0536899 -30.73367877 3.51599639 -26.25 4.125 C-25.92 3.465 -25.59 2.805 -25.25 2.125 C-23.2109375 1.74609375 -23.2109375 1.74609375 -20.625 1.5625 C-17.69222626 1.34141398 -14.83808076 1.06054675 -11.9296875 0.60546875 C-7.91345691 0.08105648 -4.04287462 -0.02619275 0 0 Z " fill="#EE443B" transform="translate(93.25,15.875)"/>
<path d="M0 0 C10.1067707 6.94278166 17.09837339 15.5757571 20 27.625 C20.45305212 31.55075893 20.52438453 35.42564324 20.5 39.375 C20.49500488 40.43468994 20.49000977 41.49437988 20.48486328 42.58618164 C20.30010642 50.8932323 19.13165026 57.30170456 15 64.625 C14.55398437 65.44742188 14.10796875 66.26984375 13.6484375 67.1171875 C7.74363836 76.91453579 -0.61685348 83.0455703 -11.4375 86.375 C-19.26959173 87.13910651 -25.30928747 87.2093771 -32 82.625 C-33.36886951 81.32817626 -34.7169291 80.00676866 -36 78.625 C-36.66 78.625 -37.32 78.625 -38 78.625 C-38.11480713 79.19307373 -38.22961426 79.76114746 -38.34790039 80.34643555 C-40.56260867 91.04995729 -42.74876507 100.65343742 -48.546875 110.03125 C-50.00038689 112.62569058 -50.5969284 114.69742731 -51 117.625 C-53.31 116.965 -55.62 116.305 -58 115.625 C-58.55318115 100.04373089 -56.89450828 86.71970976 -52.62109375 71.78515625 C-52.39317139 70.98424561 -52.16524902 70.18333496 -51.93041992 69.3581543 C-51.49202697 67.83880104 -51.04128164 66.32293063 -50.57543945 64.81176758 C-48.53956079 57.93897985 -48.23471033 52.36539357 -51 45.625 C-51.67337851 38.62186347 -49.90552612 32.51402347 -46.0625 26.6875 C-42.86427677 23.48927677 -41.10200294 22.72518209 -36.5625 22.3125 C-32.51544716 22.66750464 -29.89086804 23.73413196 -27 26.625 C-26.14119998 36.36745269 -27.64758076 44.51018947 -31 53.625 C-32.77739569 58.95718706 -32.67853641 63.8978164 -30.625 69.125 C-29.24138268 71.71522556 -29.24138268 71.71522556 -27 72.625 C-19.84402818 73.35987253 -13.88902781 72.97382054 -8 68.625 C-0.52709352 62.24442091 2.46558391 52.23073332 3.23828125 42.6796875 C3.47207571 32.66344072 1.86359935 23.6251483 -5.2265625 16.12109375 C-8.49303643 13.36545605 -12.13753211 11.41852857 -16 9.625 C-16.73992187 9.26019531 -17.47984375 8.89539063 -18.2421875 8.51953125 C-26.90716819 5.70893553 -37.7166856 6.38750933 -45.8125 10.375 C-51.51572539 13.63398594 -55.95223256 16.93376364 -59.25 22.6875 C-59.75015625 23.54472656 -60.2503125 24.40195313 -60.765625 25.28515625 C-64.41963379 32.2115843 -64.39439799 42.97911942 -62.140625 50.48828125 C-61.00362884 52.74167581 -59.80017428 54.82482572 -58 56.625 C-58.05078125 58.76953125 -58.05078125 58.76953125 -58.3125 61.4375 C-58.43044922 62.74654297 -58.43044922 62.74654297 -58.55078125 64.08203125 C-58.99755024 66.61113225 -59.73338739 68.40713548 -61 70.625 C-65.97549666 70.05090423 -69.37848046 66.6336801 -72.390625 62.90234375 C-79.20743928 52.90298063 -80.05486774 41.37077447 -79 29.625 C-77.32259108 21.97715257 -73.59394277 15.86453421 -69 9.625 C-68.50242187 8.90054688 -68.00484375 8.17609375 -67.4921875 7.4296875 C-52.50358211 -13.83686778 -20.09280652 -12.11035821 0 0 Z " fill="#F2EFF1" transform="translate(123,52.375)"/>
<path d="M0 0 C0.74362793 0.00265869 1.48725586 0.00531738 2.25341797 0.00805664 C8.12631632 0.05830128 13.91818712 0.41090046 19.75 1.125 C21.02875 1.269375 22.3075 1.41375 23.625 1.5625 C26.57384274 2.09329169 29.02968086 2.8884913 31.75 4.125 C31.75 4.785 31.75 5.445 31.75 6.125 C34.85776788 7.82687288 37.34429943 9.06820192 40.875 9.5625 C44.38893837 10.25000968 45.38451104 11.52296215 47.75 14.125 C48.45125 14.455 49.1525 14.785 49.875 15.125 C51.75 16.125 51.75 16.125 52.6328125 17.95703125 C53.92524752 20.46507824 55.43254314 21.90130441 57.5 23.8125 C61.17960998 27.36499618 63.88270806 31.07070719 66.5234375 35.4375 C66.92820313 35.994375 67.33296875 36.55125 67.75 37.125 C68.41 37.125 69.07 37.125 69.75 37.125 C69.853125 37.764375 69.95625 38.40375 70.0625 39.0625 C70.98903073 43.18977326 72.36660629 47.13142949 73.75 51.125 C73.09 51.125 72.43 51.125 71.75 51.125 C71.42 49.475 71.09 47.825 70.75 46.125 C70.09 46.125 69.43 46.125 68.75 46.125 C68.523125 45.403125 68.29625 44.68125 68.0625 43.9375 C66.50528356 40.60060763 64.36945291 38.67551994 61.75 36.125 C61.75 35.465 61.75 34.805 61.75 34.125 C61.09 34.125 60.43 34.125 59.75 34.125 C59.42 33.135 59.09 32.145 58.75 31.125 C58.1725 30.83625 57.595 30.5475 57 30.25 C53.99427618 28.74713809 52.08142896 26.51778235 49.75 24.125 C49.09 23.795 48.43 23.465 47.75 23.125 C47.75 22.465 47.75 21.805 47.75 21.125 C46.265 20.63 46.265 20.63 44.75 20.125 C46.07 19.795 47.39 19.465 48.75 19.125 C30.75685029 7.04835987 11.48520002 0.23947521 -10.30859375 4.27734375 C-14.1982746 5.39827435 -17.23306825 7.1100792 -20.58203125 9.35546875 C-23.16158803 11.06636073 -25.81027463 12.56580546 -28.52636719 14.04760742 C-34.75697035 17.46818552 -40.1820474 21.11667037 -45.25 26.125 C-46.57644531 27.37796875 -46.57644531 27.37796875 -47.9296875 28.65625 C-54.33988393 34.79125571 -60.3303563 41.24261823 -64.30859375 49.2578125 C-65.25 51.125 -65.25 51.125 -67.25 53.5625 C-69.1930606 56.0520464 -70.11740998 58.21262566 -71.25 61.125 C-72.24 61.62 -72.24 61.62 -73.25 62.125 C-73.90213292 64.14963255 -73.90213292 64.14963255 -74.25 66.125 C-74.91 66.125 -75.57 66.125 -76.25 66.125 C-75.22491731 52.79892504 -69.50114996 40.90659541 -62.09375 29.9296875 C-60.1373843 27.21529248 -60.1373843 27.21529248 -59.25 24.125 C-58.63125 23.83625 -58.0125 23.5475 -57.375 23.25 C-55.01508051 22.23929655 -55.01508051 22.23929655 -53.75 19.5625 C-52.25 17.125 -52.25 17.125 -50.125 16.5 C-49.50625 16.37625 -48.8875 16.2525 -48.25 16.125 C-47.92 15.135 -47.59 14.145 -47.25 13.125 C-44.85605353 11.26654156 -42.15027063 9.90028142 -39.5 8.4375 C-38.78328125 8.02177734 -38.0665625 7.60605469 -37.328125 7.17773438 C-33.53344457 5.0536899 -30.73367877 3.51599639 -26.25 4.125 C-25.92 3.465 -25.59 2.805 -25.25 2.125 C-23.2109375 1.74609375 -23.2109375 1.74609375 -20.625 1.5625 C-17.69222626 1.34141398 -14.83808076 1.06054675 -11.9296875 0.60546875 C-7.91345691 0.08105648 -4.04287462 -0.02619275 0 0 Z " fill="#FDE9E8" transform="translate(93.25,15.875)"/>
<path d="M0 0 C-2.41130214 1.60753476 -4.83072192 3.1317621 -7.3125 4.625 C-8.19292969 5.15480469 -9.07335937 5.68460938 -9.98046875 6.23046875 C-12.72914106 7.84126895 -15.50785877 9.38584802 -18.29833984 10.92260742 C-24.50687326 14.37206925 -29.93350703 17.99311283 -35 23 C-36.32644531 24.25296875 -36.32644531 24.25296875 -37.6796875 25.53125 C-44.08988393 31.66625571 -50.0803563 38.11761823 -54.05859375 46.1328125 C-55 48 -55 48 -57 50.4375 C-58.9430606 52.9270464 -59.86740998 55.08762566 -61 58 C-61.99 58.495 -61.99 58.495 -63 59 C-63.65213292 61.02463255 -63.65213292 61.02463255 -64 63 C-64.66 63 -65.32 63 -66 63 C-65.4140625 56.84765625 -65.4140625 56.84765625 -65 55 C-64.01 54.505 -64.01 54.505 -63 54 C-61.89488659 51.29314326 -61.01316649 48.53790162 -60.09765625 45.76171875 C-58.67088335 42.17193782 -57.1124308 39.77533056 -53.9375 37.5625 C-51.82287593 36.13915695 -51.82287593 36.13915695 -51.20703125 33.71875 C-49.66099793 30.23642251 -47.59662544 28.45357467 -44.75 25.9375 C-43.81671875 25.10089844 -42.8834375 24.26429687 -41.921875 23.40234375 C-39.05872755 21.04828535 -36.08988673 19.04122405 -33 17 C-32.175 16.175 -31.35 15.35 -30.5 14.5 C-27.8664586 11.8664586 -25.10135703 10.04557591 -22 8 C-21.4121875 7.34644531 -20.824375 6.69289063 -20.21875 6.01953125 C-17.47259314 3.51994833 -15.11443574 2.78478359 -11.5625 1.75 C-10.45003906 1.41484375 -9.33757812 1.0796875 -8.19140625 0.734375 C-5.31442614 0.07235265 -2.93297197 -0.15350134 0 0 Z " fill="#FFB39A" transform="translate(83,19)"/>
<path d="M0 0 C2.13130922 0.00313747 4.26119865 -0.02022191 6.39233398 -0.0456543 C13.51525265 -0.07734797 19.50062738 0.13626274 25.96850586 3.31567383 C25.96850586 3.97567383 25.96850586 4.63567383 25.96850586 5.31567383 C29.07627373 7.01754671 31.56280529 8.25887575 35.09350586 8.75317383 C38.60744423 9.44068351 39.6030169 10.71363598 41.96850586 13.31567383 C42.66975586 13.64567383 43.37100586 13.97567383 44.09350586 14.31567383 C45.96850586 15.31567383 45.96850586 15.31567383 46.85131836 17.14770508 C48.14375338 19.65575207 49.651049 21.09197824 51.71850586 23.00317383 C55.39811583 26.55567 58.10121392 30.26138101 60.74194336 34.62817383 C61.14670898 35.18504883 61.55147461 35.74192383 61.96850586 36.31567383 C62.62850586 36.31567383 63.28850586 36.31567383 63.96850586 36.31567383 C64.07163086 36.95504883 64.17475586 37.59442383 64.28100586 38.25317383 C65.20753659 42.38044708 66.58511215 46.32210332 67.96850586 50.31567383 C67.30850586 50.31567383 66.64850586 50.31567383 65.96850586 50.31567383 C65.63850586 48.66567383 65.30850586 47.01567383 64.96850586 45.31567383 C64.30850586 45.31567383 63.64850586 45.31567383 62.96850586 45.31567383 C62.74163086 44.59379883 62.51475586 43.87192383 62.28100586 43.12817383 C60.72378942 39.79128146 58.58795877 37.86619376 55.96850586 35.31567383 C55.96850586 34.65567383 55.96850586 33.99567383 55.96850586 33.31567383 C55.30850586 33.31567383 54.64850586 33.31567383 53.96850586 33.31567383 C53.63850586 32.32567383 53.30850586 31.33567383 52.96850586 30.31567383 C52.39100586 30.02692383 51.81350586 29.73817383 51.21850586 29.44067383 C48.21278203 27.93781192 46.29993482 25.70845618 43.96850586 23.31567383 C43.30850586 22.98567383 42.64850586 22.65567383 41.96850586 22.31567383 C41.96850586 21.65567383 41.96850586 20.99567383 41.96850586 20.31567383 C40.97850586 19.98567383 39.98850586 19.65567383 38.96850586 19.31567383 C40.28850586 18.98567383 41.60850586 18.65567383 42.96850586 18.31567383 C23.96757666 5.56263237 6.58611365 1.82635058 -16.03149414 2.31567383 C-11.21261911 -0.89690953 -5.63649072 -0.01737076 0 0 Z " fill="#FEB3C2" transform="translate(99.031494140625,16.684326171875)"/>
<path d="M0 0 C0.79647949 0.00757324 1.59295898 0.01514648 2.41357422 0.02294922 C8.39759983 0.19090896 13.08313742 1.04494236 18.125 4.4375 C19.19814453 5.14326172 19.19814453 5.14326172 20.29296875 5.86328125 C25.51099944 9.54156518 29.59521775 12.74444022 30.875 19.25 C30.9575 20.301875 31.04 21.35375 31.125 22.4375 C30.63 21.4475 30.63 21.4475 30.125 20.4375 C29.465 20.4375 28.805 20.4375 28.125 20.4375 C27.63 18.9525 27.63 18.9525 27.125 17.4375 C26.609375 16.921875 26.09375 16.40625 25.5625 15.875 C25.088125 15.400625 24.61375 14.92625 24.125 14.4375 C24.125 13.7775 24.125 13.1175 24.125 12.4375 C23.465 12.4375 22.805 12.4375 22.125 12.4375 C22.125 11.7775 22.125 11.1175 22.125 10.4375 C20.4619416 9.76188252 18.79405395 9.09816719 17.125 8.4375 C16.49722656 8.18484375 15.86945313 7.9321875 15.22265625 7.671875 C14.55105469 7.40890625 13.87945312 7.1459375 13.1875 6.875 C12.55972656 6.62621094 11.93195313 6.37742187 11.28515625 6.12109375 C5.98914196 4.44513986 0.75957758 4.30559641 -4.75 4.375 C-5.43835938 4.37951172 -6.12671875 4.38402344 -6.8359375 4.38867188 C-8.51566335 4.40033664 -10.19534375 4.41826729 -11.875 4.4375 C-11.875 5.0975 -11.875 5.7575 -11.875 6.4375 C-12.89722656 6.95828125 -13.91945313 7.4790625 -14.97265625 8.015625 C-19.19326582 10.42740189 -22.13356328 13.55784828 -25.3125 17.1875 C-25.85326172 17.78949219 -26.39402344 18.39148438 -26.95117188 19.01171875 C-28.26750952 20.47949347 -29.57247444 21.95745453 -30.875 23.4375 C-31.98291016 19.70166016 -31.98291016 19.70166016 -31.01171875 17.32421875 C-23.84282574 6.44527868 -13.13145489 -0.1744216 0 0 Z " fill="#D02521" transform="translate(92.875,58.5625)"/>
<path d="M0 0 C-2.2654248 8.28219819 -7.97153572 14.43416278 -15.15234375 19.0078125 C-22.99355545 23.02049685 -30.16468142 24.98170206 -39 24 C-44.02672054 22.34161186 -47.34806106 19.78719593 -51 16 C-51.99 16 -52.98 16 -54 16 C-54.33 15.01 -54.66 14.02 -55 13 C-53.3125 12.25 -53.3125 12.25 -51 12 C-48.4375 13.8125 -48.4375 13.8125 -46 16 C-42.58248293 18.27834471 -40.73509565 18.43254152 -36.6875 18.75 C-35.57761719 18.84796875 -34.46773437 18.9459375 -33.32421875 19.046875 C-29.78078006 18.99690877 -27.28460343 18.28168442 -24 17 C-22.88625 16.608125 -21.7725 16.21625 -20.625 15.8125 C-13.82599941 12.82574257 -8.76511047 7.07485749 -4.32421875 1.28515625 C-3 0 -3 0 0 0 Z " fill="#E0D5DA" transform="translate(138,115)"/>
<path d="M0 0 C0.68191406 -0.01611328 1.36382812 -0.03222656 2.06640625 -0.04882812 C8.77034003 -0.05521282 13.97533425 2.37324328 19.5625 6 C20.58150391 6.65548828 20.58150391 6.65548828 21.62109375 7.32421875 C22.11738281 7.65035156 22.61367187 7.97648437 23.125 8.3125 C22.795 9.6325 22.465 10.9525 22.125 12.3125 C21.53332031 11.97476563 20.94164062 11.63703125 20.33203125 11.2890625 C19.54183594 10.84304687 18.75164062 10.39703125 17.9375 9.9375 C17.16019531 9.49664062 16.38289063 9.05578125 15.58203125 8.6015625 C7.50662191 4.36486125 -0.89253797 4.11012319 -9.875 5.3125 C-17.24283098 7.72664036 -23.40277122 11.84027122 -28.875 17.3125 C-28.875 14.3125 -28.875 14.3125 -26.75 11.875 C-22.44317074 8.03630435 -18.72671212 5.00093672 -12.875 4.3125 C-12.875 3.6525 -12.875 2.9925 -12.875 2.3125 C-8.60108367 0.22543191 -4.6726435 -0.02183478 0 0 Z " fill="#EDDADE" transform="translate(93.875,54.6875)"/>
<path d="M0 0 C-1.20581717 3.61745151 -2.13553592 3.95114287 -5.3125 5.875 C-9.00943816 8.23077763 -11.33145448 10.50328518 -14 14 C-15.99284138 15.3440093 -17.99419671 16.67541292 -20 18 C-21.60646271 19.28408655 -23.1885134 20.59908291 -24.75 21.9375 C-25.88695312 22.91009766 -25.88695312 22.91009766 -27.046875 23.90234375 C-29.15365857 26.16502931 -30.04601401 28.0822237 -31 31 C-31.66 31 -32.32 31 -33 31 C-33.495 32.485 -33.495 32.485 -34 34 C-34.46019531 34.42925781 -34.92039062 34.85851563 -35.39453125 35.30078125 C-37.61881701 37.65495231 -38.49501061 40.19016181 -39.6875 43.1875 C-40.12449219 44.27417969 -40.56148437 45.36085937 -41.01171875 46.48046875 C-41.33785156 47.31191406 -41.66398437 48.14335938 -42 49 C-43.10719511 46.20852626 -43.01233302 45.03830002 -42.07421875 42.125 C-41.61660156 41.09375 -41.15898438 40.0625 -40.6875 39 C-40.23761719 37.96875 -39.78773437 36.9375 -39.32421875 35.875 C-38.25726063 33.55853636 -37.16215788 31.26975435 -36 29 C-35.01 29 -34.02 29 -33 29 C-32.77183594 28.29488281 -32.54367188 27.58976562 -32.30859375 26.86328125 C-30.74256524 23.43671737 -28.60334628 20.91323115 -26.0625 18.1875 C-25.57813477 17.66414063 -25.09376953 17.14078125 -24.59472656 16.6015625 C-19.11849228 10.84603674 -8.45504467 0 0 0 Z " fill="#FED6CB" transform="translate(62,25)"/>
<path d="M0 0 C-2.61759824 1.74506549 -5.25462849 3.42050195 -7.9375 5.0625 C-8.79214844 5.58972656 -9.64679688 6.11695313 -10.52734375 6.66015625 C-12.76977709 7.87525046 -14.53151202 8.48085408 -17 9 C-23.90015103 11.68339207 -28.88155527 14.49565821 -33.45703125 20.359375 C-36.10938805 23.17960248 -39.35154571 25.16836034 -42.55078125 27.3203125 C-45.5456846 29.37423346 -48.26019402 31.62069481 -51 34 C-48.33196134 27.47812772 -41.5159858 22.46318678 -35.6875 18.75 C-32.88415911 17.05641322 -32.88415911 17.05641322 -30.5 14.5 C-27.8664586 11.8664586 -25.10135703 10.04557591 -22 8 C-21.4121875 7.34644531 -20.824375 6.69289063 -20.21875 6.01953125 C-17.47259314 3.51994833 -15.11443574 2.78478359 -11.5625 1.75 C-10.45003906 1.41484375 -9.33757812 1.0796875 -8.19140625 0.734375 C-5.31442614 0.07235265 -2.93297197 -0.15350134 0 0 Z " fill="#FEB8A9" transform="translate(83,19)"/>
<path d="M0 0 C12.59017747 -0.70053538 20.48824708 1.73639566 30 10 C33.80520584 13.80520584 34.581243 16.6608483 35 22 C34.505 21.01 34.505 21.01 34 20 C33.34 20 32.68 20 32 20 C31.67 19.01 31.34 18.02 31 17 C30.484375 16.484375 29.96875 15.96875 29.4375 15.4375 C28.963125 14.963125 28.48875 14.48875 28 14 C28 13.34 28 12.68 28 12 C27.34 12 26.68 12 26 12 C26 11.34 26 10.68 26 10 C17.21243498 6.29829547 17.21243498 6.29829547 8 4 C8 3.01 8 2.02 8 1 C5.36 1 2.72 1 0 1 C0 0.67 0 0.34 0 0 Z " fill="#BF2422" transform="translate(89,59)"/>
<path d="M0 0 C0.33 0 0.66 0 1 0 C0.67 8.58 0.34 17.16 0 26 C-6.94900418 26 -8.35367244 25.71444912 -13.8125 22.1875 C-14.38419922 21.83107422 -14.95589844 21.47464844 -15.54492188 21.10742188 C-18.42410779 19.2635249 -20.07685505 17.88471742 -22 15 C-24.05003955 13.80767387 -24.05003955 13.80767387 -26 13 C-26 12.01 -26 11.02 -26 10 C-22.79411711 10.59758782 -20.98825679 11.60849597 -18.5 13.6875 C-13.4390357 17.64617094 -7.79224644 20.27764417 -2 23 C-2.02320312 22.34515625 -2.04640625 21.6903125 -2.0703125 21.015625 C-2.21292763 13.80337411 -1.38227343 7.07180962 0 0 Z " fill="#C3362F" transform="translate(65,141)"/>
<path d="M0 0 C5.06109299 0.44201686 7.41542737 1.75898277 11.0625 5.25 C11.92101562 6.06210937 12.77953125 6.87421875 13.6640625 7.7109375 C14.43492187 8.46632813 15.20578125 9.22171875 16 10 C16.81597656 10.79277344 16.81597656 10.79277344 17.6484375 11.6015625 C18.78030351 12.71970892 19.89188774 13.85830858 21 15 C21.86625 15.804375 21.86625 15.804375 22.75 16.625 C24 18 24 18 25 21 C26.03160159 23.32421081 27.09479665 25.63249523 28.16015625 27.94140625 C29 30 29 30 29 32 C28.34 32 27.68 32 27 32 C26.505 29.525 26.505 29.525 26 27 C25.34 27 24.68 27 24 27 C23.6596875 25.9171875 23.6596875 25.9171875 23.3125 24.8125 C21.75528356 21.47560763 19.61945291 19.55051994 17 17 C17 16.34 17 15.68 17 15 C16.34 15 15.68 15 15 15 C14.67 14.01 14.34 13.02 14 12 C13.4225 11.71125 12.845 11.4225 12.25 11.125 C9.24427618 9.62213809 7.33142896 7.39278235 5 5 C4.34 4.67 3.68 4.34 3 4 C3 3.34 3 2.68 3 2 C2.01 1.67 1.02 1.34 0 1 C0 0.67 0 0.34 0 0 Z " fill="#F84665" transform="translate(138,35)"/>
<path d="M0 0 C-0.66 0 -1.32 0 -2 0 C-2 0.66 -2 1.32 -2 2 C-2.99580078 2.45439453 -2.99580078 2.45439453 -4.01171875 2.91796875 C-12.27289751 6.83750612 -16.67657137 10.2382336 -20 19 C-20.53625 20.051875 -21.0725 21.10375 -21.625 22.1875 C-23.80250437 27.15813824 -23.74533252 32.65198294 -24 38 C-24.33 38 -24.66 38 -25 38 C-26.57838646 28.32380477 -26.06973529 19.88812765 -20.34765625 11.609375 C-15.81442222 6.25281838 -7.69235549 -3.25445809 0 0 Z " fill="#FAE5EA" transform="translate(83,57)"/>
<path d="M0 0 C4.72144063 4.72144063 3.28997833 14.25814248 3.33007812 20.58666992 C3.23805629 29.4430044 1.48447407 37.53726019 -1 46 C-1.33 46 -1.66 46 -2 46 C-1.85711146 44.29141784 -1.71053911 42.5831436 -1.5625 40.875 C-1.48128906 39.92367187 -1.40007812 38.97234375 -1.31640625 37.9921875 C-1.11205703 36.05969984 -0.84644279 34.1322799 -0.5078125 32.21875 C0.15338786 28.02775692 0.43791921 23.85789021 0.6875 19.625 C0.74744141 18.81289062 0.80738281 18.00078125 0.86914062 17.1640625 C1.19177749 11.64829793 0.44471597 7.31891348 -1 2 C-0.67 1.34 -0.34 0.68 0 0 Z " fill="#D55046" transform="translate(169,76)"/>
<path d="M0 0 C12.28828147 0.85732196 25.53821053 7.07770498 34 16 C31.36 15.34 28.72 14.68 26 14 C26 13.34 26 12.68 26 12 C25.01 12 24.02 12 23 12 C22.67 11.34 22.34 10.68 22 10 C19.78808449 8.87332344 19.78808449 8.87332344 17.08984375 7.8359375 C16.10048828 7.43632812 15.11113281 7.03671875 14.09179688 6.625 C13.05087891 6.2125 12.00996094 5.8 10.9375 5.375 C9.89271484 4.95476563 8.84792969 4.53453125 7.77148438 4.1015625 C5.18336981 3.06158952 2.59286911 2.02804875 0 1 C0 0.67 0 0.34 0 0 Z " fill="#FE4E67" transform="translate(109,20)"/>
<path d="M0 0 C2.85475306 -0.08156437 5.70713565 -0.14076372 8.5625 -0.1875 C9.36236328 -0.21263672 10.16222656 -0.23777344 10.98632812 -0.26367188 C16.49004609 -0.33106434 20.08559768 0.51847011 25 3 C25.73089844 3.31324219 26.46179688 3.62648437 27.21484375 3.94921875 C29.60742188 4.97460938 29.60742188 4.97460938 32 6 C31.67 7.32 31.34 8.64 31 10 C30.40832031 9.66226563 29.81664063 9.32453125 29.20703125 8.9765625 C28.41683594 8.53054687 27.62664062 8.08453125 26.8125 7.625 C26.03519531 7.18414062 25.25789063 6.74328125 24.45703125 6.2890625 C18.8913174 3.36905365 14.39690427 2.62483353 8.1875 2.375 C7.00510742 2.31699219 7.00510742 2.31699219 5.79882812 2.2578125 C3.8662462 2.16411156 1.93315624 2.08099221 0 2 C0 1.34 0 0.68 0 0 Z " fill="#E4A9AC" transform="translate(85,57)"/>
<path d="M0 0 C0.99 0.33 1.98 0.66 3 1 C1.46334217 3.6891512 -0.08780123 6.10642574 -2.0625 8.5 C-3.96666961 10.95699305 -4.88398078 13.13023628 -6 16 C-6.66 16.33 -7.32 16.66 -8 17 C-8.65213292 19.02463255 -8.65213292 19.02463255 -9 21 C-9.66 21 -10.32 21 -11 21 C-10.4140625 14.84765625 -10.4140625 14.84765625 -10 13 C-9.34 12.67 -8.68 12.34 -8 12 C-6.95191959 10.02477154 -5.9479589 8.02518491 -5 6 C-4.34 6 -3.68 6 -3 6 C-2.690625 5.38125 -2.38125 4.7625 -2.0625 4.125 C-1.375 2.75 -0.6875 1.375 0 0 Z " fill="#FE846E" transform="translate(28,61)"/>
<path d="M0 0 C3.10548805 0.48440305 5.21880116 1.61482049 7.75 3.4375 C8.36359375 3.86933594 8.9771875 4.30117187 9.609375 4.74609375 C10.29773438 5.36677734 10.29773438 5.36677734 11 6 C11 6.66 11 7.32 11 8 C13.97 8.495 13.97 8.495 17 9 C17 9.33 17 9.66 17 10 C19.64 10.33 22.28 10.66 25 11 C25 11.33 25 11.66 25 12 C18.01822208 12.51504919 12.8590848 12.02387262 7 8 C5.64852862 6.68505488 4.30887458 5.35735142 3 4 C2.01 4 1.02 4 0 4 C-0.33 3.01 -0.66 2.02 -1 1 C-0.67 0.67 -0.34 0.34 0 0 Z " fill="#E6D3D7" transform="translate(84,127)"/>
<path d="M0 0 C0.66 0.33 1.32 0.66 2 1 C-3.89598198 8.53375475 -9.83119351 13.84982347 -19 17 C-21.859375 17.1484375 -21.859375 17.1484375 -24 17 C-21.07584681 14.61432724 -18.3173916 13.24054218 -14.8125 11.875 C-8.56243074 9.14479502 -4.4662833 5.06178774 0 0 Z " fill="#D8BEC0" transform="translate(133,121)"/>
<path d="M0 0 C-1.36970255 2.95012857 -2.82609125 5.5652222 -5 8 C-5.99 8 -6.98 8 -8 8 C-8.268125 8.598125 -8.53625 9.19625 -8.8125 9.8125 C-9.98493467 11.97224808 -11.19369282 13.35790256 -13 15 C-13.33 14.34 -13.66 13.68 -14 13 C-13.22265625 11.0546875 -13.22265625 11.0546875 -12.0625 8.875 C-11.49208984 7.78832031 -11.49208984 7.78832031 -10.91015625 6.6796875 C-10.60980469 6.12539063 -10.30945313 5.57109375 -10 5 C-9.34 5 -8.68 5 -8 5 C-6.97803008 4.02246356 -5.98020375 3.0194119 -5 2 C-2 0 -2 0 0 0 Z " fill="#FEAA93" transform="translate(36,53)"/>
<path d="M0 0 C0.33 0 0.66 0 1 0 C1.08809201 3.81235104 1.1407549 7.62443553 1.1875 11.4375 C1.21263672 12.50677734 1.23777344 13.57605469 1.26367188 14.67773438 C1.32502682 21.36542326 0.6266193 26.82581597 -2 33 C-2.66 32.34 -3.32 31.68 -4 31 C-3.828125 29.1015625 -3.828125 29.1015625 -3.25 26.625 C-2.065074 20.87733949 -1.43342066 15.14706858 -0.875 9.3125 C-0.78766602 8.40258301 -0.70033203 7.49266602 -0.61035156 6.55517578 C-0.40338797 4.37042159 -0.19975508 2.18542335 0 0 Z " fill="#D8D0D7" transform="translate(142,80)"/>
<path d="M0 0 C0.66 0.33 1.32 0.66 2 1 C0.9171875 1.8353125 0.9171875 1.8353125 -0.1875 2.6875 C-2.99217579 4.90657707 -2.99217579 4.90657707 -5.25 7.3125 C-8.21359206 10.20873769 -11.3579207 12.64709338 -14.6484375 15.15625 C-17.66753096 17.52337976 -20.52177849 20.04992567 -23.37109375 22.6171875 C-25 24 -25 24 -27 25 C-24.33196134 18.47812772 -17.5159858 13.46318678 -11.6875 9.75 C-8.70555694 7.80826963 -6.47770669 5.5429095 -4 3 C-2.68824014 1.97186389 -1.3630107 0.95915568 0 0 Z " fill="#FFC2AC" transform="translate(59,28)"/>
<path d="M0 0 C2.75504918 0.08103086 4.51587351 0.59115634 6.6328125 2.37890625 C10.43166366 6.48056439 11.77249278 9.426073 12 15 C11.67 14.34 11.34 13.68 11 13 C10.34 13 9.68 13 9 13 C8.67 12.01 8.34 11.02 8 10 C7.484375 9.484375 6.96875 8.96875 6.4375 8.4375 C5.963125 7.963125 5.48875 7.48875 5 7 C5 6.34 5 5.68 5 5 C4.34 5 3.68 5 3 5 C3 4.34 3 3.68 3 3 C2.01 2.67 1.02 2.34 0 2 C0 1.34 0 0.68 0 0 Z " fill="#C72321" transform="translate(112,66)"/>
<path d="M0 0 C7 7 7 7 8 10 C9.03160159 12.32421081 10.09479665 14.63249523 11.16015625 16.94140625 C12 19 12 19 12 21 C11.34 21 10.68 21 10 21 C9.67 19.35 9.34 17.7 9 16 C8.34 16 7.68 16 7 16 C6.731875 15.21625 6.46375 14.4325 6.1875 13.625 C5.15185568 10.71885077 5.15185568 10.71885077 2 9 C1.26953125 6.8359375 1.26953125 6.8359375 0.8125 4.375 C0.65394531 3.55773438 0.49539062 2.74046875 0.33203125 1.8984375 C0.22246094 1.27195313 0.11289063 0.64546875 0 0 Z " fill="#F29DAF" transform="translate(155,46)"/>
<path d="M0 0 C0.66 0.33 1.32 0.66 2 1 C0.9275 1.721875 -0.145 2.44375 -1.25 3.1875 C-4.44868399 5.45670668 -6.55759008 7.92729074 -9 11 C-12.31312084 13.48484063 -14.97376764 15.13227751 -19 16 C-14.37843803 10.04061745 -9.29539822 6.10663671 -3 2 C-2.01 1.34 -1.02 0.68 0 0 Z " fill="#FEDFD3" transform="translate(56,27)"/>
<path d="M0 0 C0.33 0.99 0.66 1.98 1 3 C2.32 2.67 3.64 2.34 5 2 C5.18451025 11.41002278 5.18451025 11.41002278 4 16 C2 15 2 15 0.875 13.0625 C-0.37069969 8.70255107 -0.15742081 4.50398419 0 0 Z " fill="#E93129" transform="translate(59,90)"/>
<path d="M0 0 C2.67710191 1.33855096 2.95129094 2.72058088 4.125 5.4375 C4.47820313 6.24058594 4.83140625 7.04367188 5.1953125 7.87109375 C6 10 6 10 6 12 C6.66 12 7.32 12 8 12 C8.66 13.98 9.32 15.96 10 18 C10.99 18 11.98 18 13 18 C13.33 19.98 13.66 21.96 14 24 C7.99976105 18.72706274 3.06301408 11.37839352 0 4 C0 2.68 0 1.36 0 0 Z " fill="#CA403A" transform="translate(23,125)"/>
<path d="M0 0 C0.66 0.33 1.32 0.66 2 1 C1.01 1.33 0.02 1.66 -1 2 C-1.30164062 2.77859375 -1.60328125 3.5571875 -1.9140625 4.359375 C-3.22274137 7.5416301 -4.49750893 8.43364351 -7.375 10.25 C-8.14585938 10.75015625 -8.91671875 11.2503125 -9.7109375 11.765625 C-11.84115871 12.91434497 -13.63573817 13.54657992 -16 14 C-12.17946262 7.12303272 -7.24468343 3.0629067 0 0 Z " fill="#FEF8F6" transform="translate(58,22)"/>
<path d="M0 0 C0.33 0 0.66 0 1 0 C1.73157242 7.86440354 -0.63545513 16.4531827 -5 23 C-6.56088575 19.01327906 -5.3908144 16.0466187 -4.1875 12.0625 C-3.83042969 10.85722656 -3.47335938 9.65195313 -3.10546875 8.41015625 C-2.17685162 5.54555289 -1.16390336 2.77546185 0 0 Z " fill="#DFDAE0" transform="translate(95,86)"/>
<path d="M0 0 C1.65 0.33 3.3 0.66 5 1 C1.72469104 5.63720719 -1.30435607 9.68542782 -6 13 C-5.58221009 7.2902045 -3.42453429 4.39042858 0 0 Z " fill="#E02C26" transform="translate(67,69)"/>
<path d="M0 0 C-0.88042969 0.45890625 -1.76085937 0.9178125 -2.66796875 1.390625 C-3.82941406 2.00421875 -4.99085937 2.6178125 -6.1875 3.25 C-7.33605469 3.85328125 -8.48460938 4.4565625 -9.66796875 5.078125 C-13.56684923 7.32695173 -16.82301333 9.82301333 -20 13 C-20 10 -20 10 -17.875 7.5625 C-7.06558773 -2.07197615 -7.06558773 -2.07197615 0 0 Z " fill="#F3C4CB" transform="translate(85,59)"/>
<path d="M0 0 C1.17949219 0.10183594 2.35898438 0.20367187 3.57421875 0.30859375 C4.47785156 0.39238281 5.38148437 0.47617187 6.3125 0.5625 C5.9825 1.5525 5.6525 2.5425 5.3125 3.5625 C1.0225 3.5625 -3.2675 3.5625 -7.6875 3.5625 C-7.6875 2.9025 -7.6875 2.2425 -7.6875 1.5625 C-8.3475 1.2325 -9.0075 0.9025 -9.6875 0.5625 C-6.14075997 -0.61974668 -3.71227005 -0.33079634 0 0 Z " fill="#CC2E2C" transform="translate(90.6875,59.4375)"/>
<path d="M0 0 C3 1 3 1 4 3 C4.99 3.33 5.98 3.66 7 4 C7.68502385 5.32399568 8.34859211 6.6591458 9 8 C10.32774288 9.4610504 11.70631676 10.87708074 13.125 12.25 C13.84945312 12.95640625 14.57390625 13.6628125 15.3203125 14.390625 C15.87460938 14.92171875 16.42890625 15.4528125 17 16 C16.67 16.66 16.34 17.32 16 18 C15.5875 17.56429687 15.175 17.12859375 14.75 16.6796875 C11.55289241 13.3826703 8.40492499 10.49502021 4.625 7.875 C1.12597897 5.36218953 1.12597897 5.36218953 0 2.125 C0 1.42375 0 0.7225 0 0 Z " fill="#FBB8CD" transform="translate(138,28)"/>
<path d="M0 0 C0.66 0.33 1.32 0.66 2 1 C0.91091124 3.76460993 -0.21017061 6.41193439 -1.5625 9.0625 C-3.77489429 14.09066885 -3.74214585 19.58506292 -4 25 C-4.33 25 -4.66 25 -5 25 C-6.40398848 14.85068571 -5.71546082 8.70927363 0 0 Z " fill="#F6D7DE" transform="translate(63,70)"/>
<path d="M0 0 C3.80274498 3.80274498 3.15772336 9.55996234 3.1875 14.6875 C3.20167969 15.80511719 3.21585938 16.92273438 3.23046875 18.07421875 C3 21 3 21 1 24 C1.02320313 23.0821875 1.04640625 22.164375 1.0703125 21.21875 C1.17087291 14.38064235 0.89130527 8.55652492 -1 2 C-0.67 1.34 -0.34 0.68 0 0 Z " fill="#CD2D2E" transform="translate(169,76)"/>
<path d="M0 0 C2 3 2 3 2 5 C2.99 5 3.98 5 5 5 C5.66 7.97 6.32 10.94 7 14 C4 13 4 13 2.83203125 11.328125 C-0.55343511 4.42748092 -0.55343511 4.42748092 0 0 Z " fill="#D56770" transform="translate(163,62)"/>
<path d="M0 0 C-1.20581717 3.61745151 -2.13553592 3.95114287 -5.3125 5.875 C-8.99027127 8.21222073 -11.38590829 10.4810304 -14 14 C-14.99 14.33 -15.98 14.66 -17 15 C-17 13 -17 13 -14.9375 10.6875 C-12.27897658 8.2552339 -9.62526976 6.21794205 -6.6484375 4.2109375 C-4.92909878 3.01995905 -4.92909878 3.01995905 -3.4140625 1.3515625 C-2 0 -2 0 0 0 Z " fill="#FECBBB" transform="translate(62,25)"/>
<path d="M0 0 C-2.6898885 1.793259 -5.41291463 3.46745549 -8.1875 5.125 C-9.53908203 5.93324219 -9.53908203 5.93324219 -10.91796875 6.7578125 C-11.60503906 7.16773438 -12.29210937 7.57765625 -13 8 C-13 7.01 -13 6.02 -13 5 C-11.68 4.34 -10.36 3.68 -9 3 C-9 2.34 -9 1.68 -9 1 C-5.92677456 0.08941469 -3.19902639 -0.08886184 0 0 Z " fill="#FEA599" transform="translate(83,19)"/>
<path d="M0 0 C0.66 0 1.32 0 2 0 C0.65686815 3.78091617 -1.02964684 6.65651916 -3.5 9.8125 C-4.41265625 10.99779297 -4.41265625 10.99779297 -5.34375 12.20703125 C-5.8903125 12.79871094 -6.436875 13.39039063 -7 14 C-7.66 14 -8.32 14 -9 14 C-7.45463516 10.69291925 -5.57205999 7.75273101 -3.5 4.75 C-2.8915625 3.85796875 -2.283125 2.9659375 -1.65625 2.046875 C-1.1096875 1.37140625 -0.563125 0.6959375 0 0 Z " fill="#D24D41" transform="translate(160,133)"/>
<path d="M0 0 C2.88437779 1.29299694 4.87219421 2.65941363 7 5 C6.67 5.66 6.34 6.32 6 7 C4.68 6.01 3.36 5.02 2 4 C1.34 5.98 0.68 7.96 0 10 C-0.33 10 -0.66 10 -1 10 C-1.02689216 8.52093108 -1.04634621 7.04172517 -1.0625 5.5625 C-1.07410156 4.73878906 -1.08570312 3.91507813 -1.09765625 3.06640625 C-1 1 -1 1 0 0 Z " fill="#C9322C" transform="translate(85,130)"/>
<path d="M0 0 C2.08268593 -0.08126087 4.16628658 -0.13930839 6.25 -0.1875 C7.99023438 -0.23970703 7.99023438 -0.23970703 9.765625 -0.29296875 C13.22268407 0.02017066 14.51565563 0.65709108 17 3 C14.03 3 11.06 3 8 3 C8 2.34 8 1.68 8 1 C5.36 1 2.72 1 0 1 C0 0.67 0 0.34 0 0 Z " fill="#B81916" transform="translate(89,59)"/>
<path d="M0 0 C5.26267902 3.84147426 7.83207458 6.51152543 9 13 C8.34 12.67 7.68 12.34 7 12 C7 11.34 7 10.68 7 10 C6.34 10 5.68 10 5 10 C4.67 9.01 4.34 8.02 4 7 C3.34 6.67 2.68 6.34 2 6 C1.27306096 4.02111039 0.60183749 2.02045442 0 0 Z " fill="#F35879" transform="translate(148,40)"/>
<path d="M0 0 C0.33 0 0.66 0 1 0 C1 7.59 1 15.18 1 23 C0.67 23 0.34 23 0 23 C0 15.41 0 7.82 0 0 Z " fill="#CC2220" transform="translate(173,83)"/>
<path d="M0 0 C1.65 0.33 3.3 0.66 5 1 C2.03 4.96 2.03 4.96 -1 9 C-1.33 8.34 -1.66 7.68 -2 7 C-1.3507041 5.65812182 -0.68268138 4.32520503 0 3 C0 2.01 0 1.02 0 0 Z " fill="#E3362E" transform="translate(67,69)"/>
<path d="M0 0 C5.75 0.875 5.75 0.875 8 2 C7.67 3.32 7.34 4.64 7 6 C5.83054208 5.19152271 4.66449539 4.37810888 3.5 3.5625 C2.8503125 3.11003906 2.200625 2.65757813 1.53125 2.19140625 C1.0259375 1.79824219 0.520625 1.40507813 0 1 C0 0.67 0 0.34 0 0 Z " fill="#E0BCBF" transform="translate(109,61)"/>
<path d="M0 0 C0 0.99 0 1.98 0 3 C-0.99 3 -1.98 3 -3 3 C-3.268125 3.598125 -3.53625 4.19625 -3.8125 4.8125 C-4.98493467 6.97224808 -6.19369282 8.35790256 -8 10 C-8.33 9.34 -8.66 8.68 -9 8 C-3.85714286 1.42857143 -3.85714286 1.42857143 0 0 Z " fill="#FE9A84" transform="translate(31,58)"/>
<path d="M0 0 C2.625 0.375 2.625 0.375 5 1 C5 1.33 5 1.66 5 2 C7.64 2.33 10.28 2.66 13 3 C13 3.33 13 3.66 13 4 C2.44191344 4.3690205 2.44191344 4.3690205 -2 2 C-1.34 1.34 -0.68 0.68 0 0 Z " fill="#DBA09E" transform="translate(96,135)"/>
<path d="M0 0 C0.66 0.33 1.32 0.66 2 1 C-0.31 3.64 -2.62 6.28 -5 9 C-5.66 8.34 -6.32 7.68 -7 7 C-4.69 4.69 -2.38 2.38 0 0 Z " fill="#D8C7CB" transform="translate(133,121)"/>
<path d="M0 0 C0.33 0 0.66 0 1 0 C1 6.93 1 13.86 1 21 C0.67 21 0.34 21 0 21 C0 14.07 0 7.14 0 0 Z " fill="#EE4E2A" transform="translate(14,84)"/>
<path d="M0 0 C1.11375 0.3403125 1.11375 0.3403125 2.25 0.6875 C-2.25 4.6875 -2.25 4.6875 -6.75 4.6875 C-6.75 2.6875 -6.75 2.6875 -5.0625 1 C-2.75 -0.3125 -2.75 -0.3125 0 0 Z " fill="#DB2A25" transform="translate(74.75,65.3125)"/>
<path d="M0 0 C0.33 0 0.66 0 1 0 C1.08159574 4.16138263 0.98248524 7.9472484 0 12 C-1.95143115 9.13024831 -1.98930952 7.87385237 -1.6875 4.3125 C-1 1 -1 1 0 0 Z " fill="#DCCCD3" transform="translate(95,86)"/>
<path d="M0 0 C2.97 0.33 5.94 0.66 9 1 C8 3 8 3 6.1875 3.75 C3.50171361 4.05694702 2.2747813 3.38111722 0 2 C0 1.34 0 0.68 0 0 Z " fill="#D42619" transform="translate(96,138)"/>
<path d="M0 0 C3.03869411 1.51934706 3.64410306 3.98004772 5 7 C5 7.66 5 8.32 5 9 C2 8 2 8 0.8125 6.1875 C0 4 0 4 0 0 Z " fill="#D9352D" transform="translate(23,125)"/>
<path d="M0 0 C2 3 2 3 1.75 5.5 C1 8 1 8 -1 11 C-1.14285714 3.57142857 -1.14285714 3.57142857 0 0 Z " fill="#E52E23" transform="translate(97,85)"/>
<path d="M0 0 C0.66 0.33 1.32 0.66 2 1 C1.42655063 3.86724686 1.1385485 4.8614515 -1 7 C-1.99 6.67 -2.98 6.34 -4 6 C-3.525625 5.38125 -3.05125 4.7625 -2.5625 4.125 C-0.97582559 2.09294454 -0.97582559 2.09294454 0 0 Z " fill="#FEEEEE" transform="translate(46,29)"/>
<path d="M0 0 C1.98 0.99 3.96 1.98 6 3 C6 3.99 6 4.98 6 6 C3.11562221 4.70700306 1.12780579 3.34058637 -1 1 C-0.67 0.67 -0.34 0.34 0 0 Z " fill="#EACCCC" transform="translate(55,117)"/>
<path d="M0 0 C4.95 0 9.9 0 15 0 C15 0.33 15 0.66 15 1 C10.05 1 5.1 1 0 1 C0 0.67 0 0.34 0 0 Z " fill="#FFF3F3" transform="translate(86,14)"/>
<path d="M0 0 C2.97 0 5.94 0 9 0 C9 0.33 9 0.66 9 1 C6.03 1 3.06 1 0 1 C0 0.67 0 0.34 0 0 Z " fill="#550000" transform="translate(89,174)"/>
<path d="M0 0 C2.97 0 5.94 0 9 0 C9 0.33 9 0.66 9 1 C6.03 1 3.06 1 0 1 C0 0.67 0 0.34 0 0 Z " fill="#BD2424" transform="translate(80,173)"/>
<path d="M0 0 C2.64 0 5.28 0 8 0 C8 0.33 8 0.66 8 1 C5.36 1 2.72 1 0 1 C0 0.67 0 0.34 0 0 Z " fill="#C42A22" transform="translate(99,173)"/>
<path d="M0 0 C2.31 0 4.62 0 7 0 C7 0.33 7 0.66 7 1 C4.69 1 2.38 1 0 1 C0 0.67 0 0.34 0 0 Z " fill="#FFA3B0" transform="translate(102,15)"/>
<path d="M0 0 C0.33 0 0.66 0 1 0 C1 1.98 1 3.96 1 6 C0.67 6 0.34 6 0 6 C0 4.02 0 2.04 0 0 Z " fill="#BF2A2A" transform="translate(15,106)"/>
<path d="M0 0 C1.98 0 3.96 0 6 0 C6 0.33 6 0.66 6 1 C4.02 1 2.04 1 0 1 C0 0.67 0 0.34 0 0 Z " fill="#FFF0F0" transform="translate(79,15)"/>
<path d="M0 0 C1.65 0 3.3 0 5 0 C5 0.33 5 0.66 5 1 C3.35 1 1.7 1 0 1 C0 0.67 0 0.34 0 0 Z " fill="#E13737" transform="translate(107,172)"/>
<path d="M0 0 C0.33 0 0.66 0 1 0 C1 1.65 1 3.3 1 5 C0.67 5 0.34 5 0 5 C0 3.35 0 1.7 0 0 Z " fill="#E13737" transform="translate(172,106)"/>
<path d="M0 0 C0.33 0 0.66 0 1 0 C1 1.65 1 3.3 1 5 C0.67 5 0.34 5 0 5 C0 3.35 0 1.7 0 0 Z " fill="#EE2222" transform="translate(172,78)"/>
<path d="M0 0 C0.33 0 0.66 0 1 0 C1 1.65 1 3.3 1 5 C0.67 5 0.34 5 0 5 C0 3.35 0 1.7 0 0 Z " fill="#FF7272" transform="translate(15,78)"/>
<path d="M0 0 C0.33 0 0.66 0 1 0 C1 1.65 1 3.3 1 5 C0.67 5 0.34 5 0 5 C0 3.35 0 1.7 0 0 Z " fill="#FF5454" transform="translate(16,73)"/>
<path d="M0 0 C4 1 4 1 4 1 Z " fill="#A44425" transform="translate(76,172)"/>
<path d="M0 0 C0.99 0.495 0.99 0.495 2 1 C1.67 1.66 1.34 2.32 1 3 C0.67 2.01 0.34 1.02 0 0 Z " fill="#AA1500" transform="translate(32,145)"/>
<path d="M0 0 C1 4 1 4 1 4 Z " fill="#EF2F2F" transform="translate(170,115)"/>
<path d="M0 0 C1 4 1 4 1 4 Z " fill="#EF4444" transform="translate(16,112)"/>
<path d="M0 0 C1 4 1 4 1 4 Z " fill="#FF6A2A" transform="translate(171,111)"/>
<path d="M0 0 C1 4 1 4 1 4 Z " fill="#E92A4A" transform="translate(171,74)"/>
<path d="M0 0 C1 4 1 4 1 4 Z " fill="#CF4F5F" transform="translate(170,70)"/>
<path d="M0 0 C4 1 4 1 4 1 Z " fill="#FFCFEF" transform="translate(109,16)"/>
<path d="M0 0 C4 1 4 1 4 1 Z " fill="#FFFFFF" transform="translate(74,16)"/>
<path d="M0 0 C3 1 3 1 3 1 Z " fill="#B1311C" transform="translate(112,171)"/>
<path d="M0 0 C3 1 3 1 3 1 Z " fill="#E91515" transform="translate(116,170)"/>
<path d="M0 0 C3 1 3 1 3 1 Z " fill="#E9E9E9" transform="translate(68,170)"/>
<path d="M0 0 C3 1 3 1 3 1 Z " fill="#E96A15" transform="translate(119,169)"/>
<path d="M0 0 C3 1 3 1 3 1 Z " fill="#BFBFE9" transform="translate(65,169)"/>
<path d="" fill="#E21C1C" transform="translate(0,0)"/>
<path d="" fill="#FF1C1C" transform="translate(0,0)"/>
<path d="" fill="#FF462A" transform="translate(0,0)"/>
<path d="" fill="#FF711C" transform="translate(0,0)"/>
<path d="" fill="#FF3838" transform="translate(0,0)"/>
<path d="" fill="#FFC6C6" transform="translate(0,0)"/>
<path d="" fill="#E95454" transform="translate(0,0)"/>
<path d="" fill="#FFFFFF" transform="translate(0,0)"/>
<path d="" fill="#FFE2C6" transform="translate(0,0)"/>
<path d="" fill="#E26363" transform="translate(0,0)"/>
<path d="M0 0 C3 1 3 1 3 1 Z " fill="#FFFFFF" transform="translate(71,17)"/>
<path d="M0 0 C2 1 2 1 2 1 Z " fill="#D45555" transform="translate(122,168)"/>
<path d="M0 0 C2 1 2 1 2 1 Z " fill="#94942A" transform="translate(63,168)"/>
<path d="M0 0 C2 1 2 1 2 1 Z " fill="#D42A2A" transform="translate(61,167)"/>
<path d="" fill="#FF0000" transform="translate(0,0)"/>
<path d="" fill="#FF0000" transform="translate(0,0)"/>
<path d="" fill="#FF0000" transform="translate(0,0)"/>
<path d="" fill="#BF0000" transform="translate(0,0)"/>
<path d="" fill="#FF0000" transform="translate(0,0)"/>
<path d="" fill="#D40000" transform="translate(0,0)"/>
<path d="" fill="#552A2A" transform="translate(0,0)"/>
<path d="" fill="#FF3F00" transform="translate(0,0)"/>
<path d="" fill="#FF2A00" transform="translate(0,0)"/>
<path d="" fill="#FF2A2A" transform="translate(0,0)"/>
<path d="" fill="#D42A2A" transform="translate(0,0)"/>
<path d="" fill="#FF2A2A" transform="translate(0,0)"/>
<path d="" fill="#D42A2A" transform="translate(0,0)"/>
<path d="" fill="#FF6A3F" transform="translate(0,0)"/>
<path d="" fill="#FF6A6A" transform="translate(0,0)"/>
<path d="" fill="#BF9494" transform="translate(0,0)"/>
<path d="" fill="#FFBFBF" transform="translate(0,0)"/>
<path d="" fill="#FFD4D4" transform="translate(0,0)"/>
<path d="" fill="#FFFFFF" transform="translate(0,0)"/>
<path d="" fill="#FFD4D4" transform="translate(0,0)"/>
<path d="" fill="#FF9494" transform="translate(0,0)"/>
<path d="" fill="#FFD4D4" transform="translate(0,0)"/>
<path d="" fill="#FFFF7F" transform="translate(0,0)"/>
<path d="" fill="#FFFFFF" transform="translate(0,0)"/>
<path d="" fill="#FFFFFF" transform="translate(0,0)"/>
<path d="" fill="#FFD4D4" transform="translate(0,0)"/>
<path d="" fill="#FFFFBF" transform="translate(0,0)"/>
<path d="" fill="#FFAAD4" transform="translate(0,0)"/>
<path d="" fill="#FFFFFF" transform="translate(0,0)"/>
<path d="" fill="#D4AAAA" transform="translate(0,0)"/>
<path d="M0 0 C2 1 2 1 2 1 Z " fill="#FFBFFF" transform="translate(131,24)"/>
<path d="M0 0 C2 1 2 1 2 1 Z " fill="#FF94D4" transform="translate(129,23)"/>
<path d="M0 0 C2 1 2 1 2 1 Z " fill="#FFBFBF" transform="translate(127,22)"/>
<path d="M0 0 C2 1 2 1 2 1 Z " fill="#FFD4D4" transform="translate(125,21)"/>
<path d="M0 0 C2 1 2 1 2 1 Z " fill="#FFDFDF" transform="translate(65,19)"/>
<path d="" fill="#AA5555" transform="translate(0,0)"/>
<path d="" fill="#AA5555" transform="translate(0,0)"/>
<path d="" fill="#FF5555" transform="translate(0,0)"/>
<path d="" fill="#BF3F3F" transform="translate(0,0)"/>
<path d="" fill="#7F7F7F" transform="translate(0,0)"/>
<path d="" fill="#BF3F3F" transform="translate(0,0)"/>
<path d="" fill="#FF7F7F" transform="translate(0,0)"/>
<path d="" fill="#BF3F3F" transform="translate(0,0)"/>
<path d="" fill="#FF7F7F" transform="translate(0,0)"/>
<path d="" fill="#BF3F3F" transform="translate(0,0)"/>
<path d="" fill="#FF0000" transform="translate(0,0)"/>
<path d="" fill="#BF3F3F" transform="translate(0,0)"/>
<path d="" fill="#7F0000" transform="translate(0,0)"/>
<path d="" fill="#FF5555" transform="translate(0,0)"/>
<path d="" fill="#FF5555" transform="translate(0,0)"/>
<path d="" fill="#FF7F00" transform="translate(0,0)"/>
<path d="" fill="#FF5555" transform="translate(0,0)"/>
<path d="" fill="#AA5555" transform="translate(0,0)"/>
<path d="" fill="#FF5555" transform="translate(0,0)"/>
<path d="" fill="#AA5555" transform="translate(0,0)"/>
<path d="" fill="#AA5555" transform="translate(0,0)"/>
<path d="" fill="#AA5555" transform="translate(0,0)"/>
<path d="" fill="#AA5555" transform="translate(0,0)"/>
<path d="" fill="#AA5555" transform="translate(0,0)"/>
<path d="" fill="#AA5555" transform="translate(0,0)"/>
<path d="" fill="#FFAAAA" transform="translate(0,0)"/>
<path d="" fill="#FFFFFF" transform="translate(0,0)"/>
<path d="" fill="#FFAAAA" transform="translate(0,0)"/>
<path d="" fill="#FFFFFF" transform="translate(0,0)"/>
<path d="" fill="#FFFFFF" transform="translate(0,0)"/>
<path d="" fill="#FFAAFF" transform="translate(0,0)"/>
<path d="" fill="#FFAAAA" transform="translate(0,0)"/>
<path d="" fill="#FFFFFF" transform="translate(0,0)"/>
<path d="" fill="#FFFFFF" transform="translate(0,0)"/>
<path d="" fill="#FFFFFF" transform="translate(0,0)"/>
<path d="" fill="#FFAAFF" transform="translate(0,0)"/>
<path d="" fill="#BFBFBF" transform="translate(0,0)"/>
<path d="" fill="#BF7FBF" transform="translate(0,0)"/>
<path d="" fill="#FFBFBF" transform="translate(0,0)"/>
<path d="" fill="#FFFFFF" transform="translate(0,0)"/>
<path d="" fill="#FFBFBF" transform="translate(0,0)"/>
<path d="" fill="#FFFFFF" transform="translate(0,0)"/>
<path d="" fill="#FF7FBF" transform="translate(0,0)"/>
<path d="" fill="#FFFFFF" transform="translate(0,0)"/>
<path d="" fill="#FFBFBF" transform="translate(0,0)"/>
<path d="" fill="#FFFFFF" transform="translate(0,0)"/>
<path d="" fill="#FFFFFF" transform="translate(0,0)"/>
<path d="" fill="#FFAAFF" transform="translate(0,0)"/>
<path d="" fill="#FF7FFF" transform="translate(0,0)"/>
<path d="" fill="#FFFFFF" transform="translate(0,0)"/>
<path d="" fill="#FFFFFF" transform="translate(0,0)"/>
<path d="" fill="#FFAAFF" transform="translate(0,0)"/>
</svg>
