<?xml version="1.0" encoding="UTF-8"?>
<svg version="1.1" xmlns="http://www.w3.org/2000/svg" width="96" height="96">
<path d="M0 0 C7.06714826 5.09024079 13.57490057 11.79462123 15.58203125 20.4921875 C12.76953125 20.8046875 12.76953125 20.8046875 9.58203125 20.4921875 C8.99421875 19.285625 8.99421875 19.285625 8.39453125 18.0546875 C6.8356296 15.23527037 6.8356296 15.23527037 3.95703125 14.9375 C1.16074333 14.70209821 -1.61257534 14.54458025 -4.41796875 14.4921875 C-3.92296875 17.4621875 -3.92296875 17.4621875 -3.41796875 20.4921875 C-5.06796875 20.4921875 -6.71796875 20.4921875 -8.41796875 20.4921875 C-8.91296875 17.5221875 -8.91296875 17.5221875 -9.41796875 14.4921875 C-13.04796875 14.4921875 -16.67796875 14.4921875 -20.41796875 14.4921875 C-20.41796875 16.4721875 -20.41796875 18.4521875 -20.41796875 20.4921875 C-21.73796875 20.4921875 -23.05796875 20.4921875 -24.41796875 20.4921875 C-24.41796875 18.5121875 -24.41796875 16.5321875 -24.41796875 14.4921875 C-28.04796875 14.4921875 -31.67796875 14.4921875 -35.41796875 14.4921875 C-35.74796875 16.4721875 -36.07796875 18.4521875 -36.41796875 20.4921875 C-38.06796875 20.4921875 -39.71796875 20.4921875 -41.41796875 20.4921875 C-41.08796875 18.5121875 -40.75796875 16.5321875 -40.41796875 14.4921875 C-44.14523866 14.56179696 -47.76437558 14.72014847 -51.41796875 15.4921875 C-53.26231224 17.95334297 -53.26231224 17.95334297 -54.41796875 20.4921875 C-57.60546875 20.8046875 -57.60546875 20.8046875 -60.41796875 20.4921875 C-56.47858962 9.98717649 -49.86137541 2.61525099 -40.02734375 -2.83203125 C-27.46735271 -8.32221138 -11.54328349 -7.19823494 0 0 Z M-20.41796875 -0.5078125 C-20.41796875 3.1221875 -20.41796875 6.7521875 -20.41796875 10.4921875 C-17.44796875 10.4921875 -14.47796875 10.4921875 -11.41796875 10.4921875 C-14.35671118 3.59531669 -14.35671118 3.59531669 -20.41796875 -0.5078125 Z M-30.41796875 3.4921875 C-31.67007581 5.785262 -32.51671585 8.0256006 -33.41796875 10.4921875 C-30.44796875 10.4921875 -27.47796875 10.4921875 -24.41796875 10.4921875 C-24.41796875 6.8621875 -24.41796875 3.2321875 -24.41796875 -0.5078125 C-26.86467325 -0.5078125 -28.78267207 1.97369772 -30.41796875 3.4921875 Z M-9.41796875 1.4921875 C-8.35921801 4.89531488 -7.40894721 7.50571981 -5.41796875 10.4921875 C-3.44049753 10.85516686 -3.44049753 10.85516686 -1.29296875 10.6796875 C-0.01421875 10.6178125 1.26453125 10.5559375 2.58203125 10.4921875 C-0.6409985 5.65764287 -4.24417193 3.74002641 -9.41796875 1.4921875 Z M-36.41796875 1.4921875 C-37.88097857 2.42237276 -39.33822454 3.36162777 -40.79296875 4.3046875 C-42.01113281 5.08779297 -42.01113281 5.08779297 -43.25390625 5.88671875 C-45.65147116 7.47655947 -45.65147116 7.47655947 -47.41796875 10.4921875 C-44.77796875 10.4921875 -42.13796875 10.4921875 -39.41796875 10.4921875 C-38.73734375 9.3784375 -38.05671875 8.2646875 -37.35546875 7.1171875 C-36.78119141 6.17746094 -36.78119141 6.17746094 -36.1953125 5.21875 C-35.81052734 4.36410156 -35.81052734 4.36410156 -35.41796875 3.4921875 C-35.74796875 2.8321875 -36.07796875 2.1721875 -36.41796875 1.4921875 Z " fill="#2096F3" transform="translate(70.41796875,13.5078125)"/>
<path d="M0 0 C2.8125 -0.3125 2.8125 -0.3125 6 0 C6.391875 0.804375 6.78375 1.60875 7.1875 2.4375 C8.74640165 5.25691713 8.74640165 5.25691713 11.625 5.5546875 C14.42128792 5.79008929 17.19460659 5.94760725 20 6 C19.67 4.02 19.34 2.04 19 0 C20.65 0 22.3 0 24 0 C24.33 1.98 24.66 3.96 25 6 C28.63 6 32.26 6 36 6 C36 4.02 36 2.04 36 0 C37.32 0 38.64 0 40 0 C40 1.98 40 3.96 40 6 C43.63 6 47.26 6 51 6 C51.33 4.02 51.66 2.04 52 0 C53.65 0 55.3 0 57 0 C56.67 1.98 56.34 3.96 56 6 C59.72726991 5.93039054 63.34640683 5.77203903 67 5 C68.84434349 2.53884453 68.84434349 2.53884453 70 0 C73.1875 -0.3125 73.1875 -0.3125 76 0 C72.06062087 10.50501101 65.44340666 17.87693651 55.609375 23.32421875 C45.80056397 27.61181253 33.08835769 27.73545798 22.9375 24.4375 C13.10179513 20.12967214 4.61857346 12.48950813 0.5625 2.4375 C0.376875 1.633125 0.19125 0.82875 0 0 Z M13 10 C16.22302975 14.83454463 19.82620318 16.75216109 25 19 C23.94124926 15.59687262 22.99097846 12.98646769 21 10 C19.02252878 9.63702064 19.02252878 9.63702064 16.875 9.8125 C15.59625 9.874375 14.3175 9.93625 13 10 Z M27 10 C29.93874243 16.89687081 29.93874243 16.89687081 36 21 C36 17.37 36 13.74 36 10 C33.03 10 30.06 10 27 10 Z M40 10 C40 13.63 40 17.26 40 21 C45.42662136 18.58816829 46.69589377 15.20557333 49 10 C46.03 10 43.06 10 40 10 Z M55 10 C54.319375 11.11375 53.63875 12.2275 52.9375 13.375 C52.55464844 14.00148438 52.17179687 14.62796875 51.77734375 15.2734375 C51.52082031 15.84320313 51.26429687 16.41296875 51 17 C51.33 17.66 51.66 18.32 52 19 C53.46300982 18.06981474 54.92025579 17.13055973 56.375 16.1875 C57.18710938 15.66542969 57.99921875 15.14335938 58.8359375 14.60546875 C61.23350241 13.01562803 61.23350241 13.01562803 63 10 C60.36 10 57.72 10 55 10 Z " fill="#2096F3" transform="translate(10,62)"/>
<path d="M0 0 C1.98 0 3.96 0 6 0 C6.66 1.32 7.32 2.64 8 4 C8.33 2.68 8.66 1.36 9 0 C10.98 0 12.96 0 15 0 C15.66 1.32 16.32 2.64 17 4 C17.33 2.68 17.66 1.36 18 0 C19.98 0 21.96 0 24 0 C22.62131519 17.37868481 22.62131519 17.37868481 20 20 C18.00041636 20.04080783 15.99954746 20.04254356 14 20 C13.34 17.69 12.68 15.38 12 13 C11.34 15.31 10.68 17.62 10 20 C8.02 20 6.04 20 4 20 C1.70684283 13.61191932 -0.44233875 6.85625069 0 0 Z " fill="#3E50B5" transform="translate(64,38)"/>
<path d="M0 0 C1.98 0 3.96 0 6 0 C6.66 1.32 7.32 2.64 8 4 C8.33 2.68 8.66 1.36 9 0 C10.98 0 12.96 0 15 0 C15.66 1.32 16.32 2.64 17 4 C17.33 2.68 17.66 1.36 18 0 C19.98 0 21.96 0 24 0 C22.62131519 17.37868481 22.62131519 17.37868481 20 20 C18.00041636 20.04080783 15.99954746 20.04254356 14 20 C13.34 17.69 12.68 15.38 12 13 C11.34 15.31 10.68 17.62 10 20 C8.02 20 6.04 20 4 20 C1.70684283 13.61191932 -0.44233875 6.85625069 0 0 Z " fill="#3E50B5" transform="translate(36,38)"/>
<path d="M0 0 C1.98 0 3.96 0 6 0 C6.66 1.32 7.32 2.64 8 4 C8.33 2.68 8.66 1.36 9 0 C10.98 0 12.96 0 15 0 C15.66 1.32 16.32 2.64 17 4 C17.33 2.68 17.66 1.36 18 0 C19.98 0 21.96 0 24 0 C22.62131519 17.37868481 22.62131519 17.37868481 20 20 C18.00041636 20.04080783 15.99954746 20.04254356 14 20 C13.34 17.69 12.68 15.38 12 13 C11.34 15.31 10.68 17.62 10 20 C8.02 20 6.04 20 4 20 C1.70684283 13.61191932 -0.44233875 6.85625069 0 0 Z " fill="#3E50B5" transform="translate(8,38)"/>
</svg>
