<?xml version="1.0" encoding="UTF-8"?>
<svg version="1.1" xmlns="http://www.w3.org/2000/svg" width="500" height="500">
<path d="M0 0 C0.71775604 -0.00100708 1.43551208 -0.00201416 2.17501831 -0.00305176 C12.96997324 0.00720487 23.11479816 0.6023919 33.625 3.25 C35.44451172 3.65025391 35.44451172 3.65025391 37.30078125 4.05859375 C61.74633325 9.86667105 88.50972497 23.44571756 105.625 42.25 C105.625 42.91 105.625 43.57 105.625 44.25 C106.285 44.25 106.945 44.25 107.625 44.25 C107.625 44.91 107.625 45.57 107.625 46.25 C108.285 46.25 108.945 46.25 109.625 46.25 C112.8582557 49.71803568 115.7114785 53.5120737 118.625 57.25 C119.30304688 58.11367187 119.98109375 58.97734375 120.6796875 59.8671875 C143.92426167 90.57989794 155.75278879 130.67478992 150.74926758 169.00488281 C147.30402366 192.54850663 139.96301744 215.71369641 124.625 234.25 C123.4970062 235.7268849 122.37204492 237.20609046 121.25 238.6875 C106.5341942 257.55643321 89.79749198 272.28325379 68.625 283.25 C67.70895996 283.73146484 67.70895996 283.73146484 66.77441406 284.22265625 C32.53166958 302.00433127 -7.6295288 303.94705029 -44.30224609 293.02441406 C-67.38226276 285.69457368 -87.07974005 272.95312551 -104.375 256.25 C-105.16519531 255.51136719 -105.95539063 254.77273438 -106.76953125 254.01171875 C-133.77118909 228.14498173 -148.14407635 190.79266936 -149.5 153.84375 C-150.19151296 112.69872885 -134.84521847 74.72410488 -106.375 45.25 C-105.51261719 44.32445312 -104.65023437 43.39890625 -103.76171875 42.4453125 C-76.83513821 14.28210382 -38.53053767 0.03733632 0 0 Z " fill="#42AD49" transform="translate(248.375,99.75)"/>
<path d="M0 0 C1.39025391 -0.00193359 1.39025391 -0.00193359 2.80859375 -0.00390625 C4.24138672 0.00189453 4.24138672 0.00189453 5.703125 0.0078125 C6.67378906 0.00394531 7.64445312 0.00007812 8.64453125 -0.00390625 C9.56621094 -0.00261719 10.48789063 -0.00132812 11.4375 0 C12.70158691 0.00169189 12.70158691 0.00169189 13.99121094 0.00341797 C15.953125 0.1328125 15.953125 0.1328125 16.953125 1.1328125 C18.47142391 1.35887713 19.99304318 1.56266789 21.515625 1.7578125 C39.60981689 4.97299316 57.78884458 16.45093517 68.328125 31.42578125 C80.72584074 49.76417458 85.43904169 68.82567408 82.44921875 90.84375 C78.33233764 110.27542885 68.37527745 127.94973661 52.265625 139.8828125 C31.95683229 153.01432981 10.70963944 157.22102936 -13.234375 152.9453125 C-17.8164137 151.90805978 -21.68140553 150.45002953 -25.859375 148.3203125 C-30.60001764 145.99550695 -33.48577684 145.85689236 -38.54296875 147.265625 C-41.99470177 148.461077 -45.42892688 149.68674222 -48.84375 150.984375 C-52.81032518 152.40653732 -56.8187963 153.6276194 -60.859375 154.8203125 C-61.57681885 155.03469971 -62.2942627 155.24908691 -63.03344727 155.4699707 C-67.01862491 156.63399731 -70.92685292 157.54423792 -75.046875 158.1328125 C-72.07296983 147.35240627 -68.61732328 136.869948 -64.55078125 126.44677734 C-64.21175781 125.55297363 -63.87273437 124.65916992 -63.5234375 123.73828125 C-63.21486816 122.94574951 -62.90629883 122.15321777 -62.58837891 121.33666992 C-61.22566662 115.79059064 -65.23522811 110.13722479 -67.4765625 105.2265625 C-71.24883122 96.0017799 -72.60744129 86.79860181 -72.546875 76.8828125 C-72.54187988 75.79597168 -72.53688477 74.70913086 -72.53173828 73.58935547 C-72.10320477 53.66106938 -62.85445885 36.199871 -49.171875 21.8828125 C-36.43956334 9.74500567 -17.90749763 0.02384034 0 0 Z " fill="#2CA538" transform="translate(245.046875,169.8671875)"/>
<path d="M0 0 C1.39025391 -0.00193359 1.39025391 -0.00193359 2.80859375 -0.00390625 C4.24138672 0.00189453 4.24138672 0.00189453 5.703125 0.0078125 C6.67378906 0.00394531 7.64445312 0.00007812 8.64453125 -0.00390625 C9.56621094 -0.00261719 10.48789063 -0.00132812 11.4375 0 C12.70158691 0.00169189 12.70158691 0.00169189 13.99121094 0.00341797 C15.953125 0.1328125 15.953125 0.1328125 16.953125 1.1328125 C18.47142391 1.35887713 19.99304318 1.56266789 21.515625 1.7578125 C39.60981689 4.97299316 57.78884458 16.45093517 68.328125 31.42578125 C80.72584074 49.76417458 85.43904169 68.82567408 82.44921875 90.84375 C78.33233764 110.27542885 68.37527745 127.94973661 52.265625 139.8828125 C31.95683229 153.01432981 10.70963944 157.22102936 -13.234375 152.9453125 C-17.8164137 151.90805978 -21.68140553 150.45002953 -25.859375 148.3203125 C-30.60001764 145.99550695 -33.48577684 145.85689236 -38.54296875 147.265625 C-41.99470177 148.461077 -45.42892688 149.68674222 -48.84375 150.984375 C-52.81032518 152.40653732 -56.8187963 153.6276194 -60.859375 154.8203125 C-61.57681885 155.03469971 -62.2942627 155.24908691 -63.03344727 155.4699707 C-67.01862491 156.63399731 -70.92685292 157.54423792 -75.046875 158.1328125 C-72.07296983 147.35240627 -68.61732328 136.869948 -64.55078125 126.44677734 C-64.21175781 125.55297363 -63.87273437 124.65916992 -63.5234375 123.73828125 C-63.21486816 122.94574951 -62.90629883 122.15321777 -62.58837891 121.33666992 C-61.22566662 115.79059064 -65.23522811 110.13722479 -67.4765625 105.2265625 C-71.24883122 96.0017799 -72.60744129 86.79860181 -72.546875 76.8828125 C-72.54187988 75.79597168 -72.53688477 74.70913086 -72.53173828 73.58935547 C-72.10320477 53.66106938 -62.85445885 36.199871 -49.171875 21.8828125 C-36.43956334 9.74500567 -17.90749763 0.02384034 0 0 Z M-43.046875 34.1328125 C-43.93632812 34.97392578 -43.93632812 34.97392578 -44.84375 35.83203125 C-56.51908542 47.78983446 -59.51966126 64.4116941 -59.55541992 80.3059082 C-59.38805457 90.95874758 -57.84446648 100.25928514 -51.61206055 109.18847656 C-47.91014715 114.77789284 -47.91014715 114.77789284 -48.3034668 118.67553711 C-49.12025554 121.3820215 -50.10809207 123.9152367 -51.234375 126.5078125 C-51.93929812 128.26438404 -52.64125935 130.02214795 -53.33984375 131.78125 C-53.6649292 132.54614746 -53.99001465 133.31104492 -54.32495117 134.09912109 C-55.21413989 136.24433415 -55.21413989 136.24433415 -55.046875 139.1328125 C-53.42139858 138.69708593 -51.79652687 138.25910352 -50.171875 137.8203125 C-49.16898438 137.55089844 -48.16609375 137.28148437 -47.1328125 137.00390625 C-44.32007238 136.20993024 -41.56829651 135.30804091 -38.796875 134.3828125 C-31.16533236 132.12694769 -26.17516087 134.37694494 -19.39453125 137.92578125 C-7.1333887 144.22976302 10.90260827 143.83946814 23.953125 140.1328125 C42.5378673 133.83956643 55.79747612 122.32344191 64.953125 105.1328125 C72.0753594 89.95935661 72.94295036 73.07346264 67.953125 57.1328125 C64.03523413 47.01770847 58.82631906 38.66664475 50.953125 31.1328125 C50.26734375 30.42769531 49.5815625 29.72257812 48.875 28.99609375 C35.23841105 15.73829893 18.17907517 12.67059418 -0.09765625 12.92578125 C-17.59433401 13.46297441 -31.18188906 21.99485909 -43.046875 34.1328125 Z " fill="#F9FCF9" transform="translate(245.046875,169.8671875)"/>
<path d="M0 0 C0.680625 -0.01675781 1.36125 -0.03351563 2.0625 -0.05078125 C4.71916944 0.44734427 5.37207365 1.13755539 7 3.3125 C8.18455543 5.76622196 9.2462229 8.16343913 10.25 10.6875 C10.53101563 11.3475 10.81203125 12.0075 11.1015625 12.6875 C12.67090871 16.58755841 13.53152026 19.31194007 12 23.3125 C11.13375 24.158125 10.2675 25.00375 9.375 25.875 C8.59125 26.679375 7.8075 27.48375 7 28.3125 C7.65206097 34.96895575 14.3423554 41.18740478 18.94140625 45.6328125 C23.30324638 49.19180919 28.78020252 53.42386142 34.59765625 53.22265625 C37.57172354 52.0958958 38.82190359 50.70897204 40.8125 48.25 C41.71935547 47.14978516 41.71935547 47.14978516 42.64453125 46.02734375 C43.09183594 45.46144531 43.53914063 44.89554687 44 44.3125 C48.86872054 44.90809106 52.59328841 47.03727415 56.8125 49.375 C57.50537109 49.75205078 58.19824219 50.12910156 58.91210938 50.51757812 C60.61128985 51.44333852 62.30609425 52.37712312 64 53.3125 C64.11656214 61.73827722 64.11656214 61.73827722 61.65625 65.20703125 C56.77760468 69.58672421 51.34445246 72.03620121 44.83203125 72.57421875 C40.05470307 72.24793844 36.13955904 70.94099242 31.6875 69.25 C30.84517822 68.93272949 30.00285645 68.61545898 29.13500977 68.28857422 C22.69762513 65.77086922 17.28861583 62.80498011 12 58.3125 C11.19820312 57.68085938 10.39640625 57.04921875 9.5703125 56.3984375 C-0.89759814 47.69148379 -11.54934738 34.96368819 -13.43359375 21.12890625 C-13.83119177 14.11008404 -12.83902697 9.65382232 -8.60546875 4.01953125 C-5.90811498 1.15154196 -3.86401795 0.02195465 0 0 Z " fill="#FBFDFB" transform="translate(226,211.6875)"/>
<path d="M0 0 C0.33 0 0.66 0 1 0 C1 2.64 1 5.28 1 8 C1.99 7.67 2.98 7.34 4 7 C3.98839844 7.89203125 3.97679687 8.7840625 3.96484375 9.703125 C3.95582031 10.87359375 3.94679688 12.0440625 3.9375 13.25 C3.92589844 14.41015625 3.91429687 15.5703125 3.90234375 16.765625 C3.98217908 19.40977128 4.21356222 21.49826091 5 24 C5.66 24 6.32 24 7 24 C7.33 23.34 7.66 22.68 8 22 C8 22.99 8 23.98 8 25 C8.66 25.33 9.32 25.66 10 26 C9.690625 26.8971875 9.690625 26.8971875 9.375 27.8125 C8.69328085 30.28450846 8.69328085 30.28450846 11 33 C11.37309899 34.65821773 11.70700977 36.32577014 12 38 C12.33 38.99 12.66 39.98 13 41 C13 44.01853795 12.85049285 46.77081079 12.5 49.75 C12.36078125 50.94882813 12.36078125 50.94882813 12.21875 52.171875 C12.1465625 52.77515625 12.074375 53.3784375 12 54 C12.66 54.33 13.32 54.66 14 55 C13.84402344 55.70125 13.68804687 56.4025 13.52734375 57.125 C12.98148298 60.10095205 12.74742219 62.98086228 12.5625 66 C11.11899549 85.60945364 11.11899549 85.60945364 7 94 C6.13375 94.61875 5.2675 95.2375 4.375 95.875 C1.79844913 97.71818174 1.79844913 97.71818174 1.703125 100.1796875 C1.67734375 101.02789062 1.6515625 101.87609375 1.625 102.75 C1.36106082 108.88431069 -1.65653623 111.94005215 -6 116 C-10.91834818 108.62247773 -7.00347457 95.62843085 -5.5 87.3828125 C-4.12054015 78.04990443 -3.8513237 68.79431153 -3.8671875 59.37109375 C-3.86623077 58.10080826 -3.86527405 56.83052277 -3.86428833 55.52174377 C-3.86361153 52.85178122 -3.86491812 50.18191195 -3.86962891 47.51196289 C-3.87533112 44.11771937 -3.8720346 40.72355488 -3.86605644 37.32931423 C-3.86154181 34.05157138 -3.86471698 30.77383764 -3.8671875 27.49609375 C-3.86516327 26.29166122 -3.86313904 25.0872287 -3.86105347 23.84629822 C-3.87774512 17.78336235 -4.10098456 11.91229602 -4.98123169 5.90834045 C-4.98742523 5.2785881 -4.99361877 4.64883575 -5 4 C-4.34 3.34 -3.68 2.68 -3 2 C-2.34 3.65 -1.68 5.3 -1 7 C-0.67 4.69 -0.34 2.38 0 0 Z " fill="#5BB151" transform="translate(361,194)"/>
<path d="M0 0 C17.13346706 20.75685888 21.18821989 57.77762622 18.75683594 83.58056641 C16.34510695 104.73294193 10.75126672 126.96052519 -1 145 C-2.485 145.99 -2.485 145.99 -4 147 C-2.34756073 141.63555949 0.0294084 136.93988839 2.66015625 132 C4.53790813 127.79558764 4.90775701 123.79065423 5.4375 119.25 C6 116 6 116 8 114 C8.76679965 110.16600177 9.24674659 107.74023976 8 104 C8.9375 101.8125 8.9375 101.8125 10 100 C9.34 99.34 8.68 98.68 8 98 C8.19180281 95.98607045 8.38986 93.970057 8.7109375 91.97265625 C9.20353257 88.61102772 8.97648426 85.20739414 8.9296875 81.81640625 C8.91106284 79.73177433 8.89285012 77.6471387 8.875 75.5625 C8.85824219 74.51255859 8.84148437 73.46261719 8.82421875 72.38085938 C8.81777344 71.36958984 8.81132812 70.35832031 8.8046875 69.31640625 C8.79421387 68.39287354 8.78374023 67.46934082 8.77294922 66.51782227 C9.01499198 63.83375027 9.79628449 62.37392974 11 60 C12.5296977 47.17881942 11.69024915 34.03478721 7 22 C6.56816406 20.82695312 6.13632812 19.65390625 5.69140625 18.4453125 C4.16709599 14.38350058 2.59277801 10.35290492 0.8515625 6.37890625 C0 4 0 4 0 0 Z " fill="#BAD8AB" transform="translate(381,180)"/>
<path d="M0 0 C0.33 0 0.66 0 1 0 C0.67 31.68 0.34 63.36 0 96 C-0.99 96.495 -0.99 96.495 -2 97 C-2 94.36 -2 91.72 -2 89 C-3.485 89.99 -3.485 89.99 -5 91 C-5 90.01 -5 89.02 -5 88 C-4.34 88 -3.68 88 -3 88 C-3.474375 86.906875 -3.94875 85.81375 -4.4375 84.6875 C-6.51293004 79.90498729 -7 76.24259613 -7 71 C-7.83333333 68.83333333 -7.83333333 68.83333333 -10 68 C-10 66.08590163 -9.98938146 64.17175359 -9.96484375 62.2578125 C-9.95582031 61.22398437 -9.94679688 60.19015625 -9.9375 59.125 C-9.92589844 58.09632813 -9.91429688 57.06765625 -9.90234375 56.0078125 C-9.99345255 53.20166136 -10.40587736 50.73477827 -11 48 C-11.79048122 35.94516141 -8.94397717 23.93465222 -4 13 C-3.67 12.01 -3.34 11.02 -3 10 C-2.34 10 -1.68 10 -1 10 C-1.020625 8.72125 -1.04125 7.4425 -1.0625 6.125 C-1.125 2.25 -1.125 2.25 0 0 Z " fill="#90C47C" transform="translate(136,204)"/>
<path d="M0 0 C0.66 0 1.32 0 2 0 C1.67 1.32 1.34 2.64 1 4 C1.66 4.33 2.32 4.66 3 5 C2.649375 5.556875 2.29875 6.11375 1.9375 6.6875 C0.74178128 9.63693952 1.31205511 10.90424799 2 14 C2.2471818 18.84652894 1.97851046 23.24723492 1 28 C1.33 28.99 1.66 29.98 2 31 C1.0625 34.1875 1.0625 34.1875 0 37 C0.66 37.33 1.32 37.66 2 38 C1.67620361 38.84369141 1.35240723 39.68738281 1.01879883 40.55664062 C-0.61421448 46.07593602 -0.3332805 51.648298 -0.31567383 57.35546875 C-0.3125493 59.46668925 -0.33587897 61.57645593 -0.36132812 63.6875 C-0.4088859 73.86218035 -0.07559035 84.90939042 5 94 C4.34 94.99 3.68 95.98 3 97 C-1.80975195 83.45985577 -6.20801694 70.28952009 -8 56 C-8.12890625 55.02417969 -8.2578125 54.04835938 -8.390625 53.04296875 C-10.30002493 35.88349305 -8.41859519 18.83839973 -5 2 C-3.68 2 -2.36 2 -1 2 C-0.67 1.34 -0.34 0.68 0 0 Z " fill="#A9D097" transform="translate(108,212)"/>
<path d="M0 0 C0.33 0.99 0.66 1.98 1 3 C1.66 3.33 2.32 3.66 3 4 C2.79375 4.598125 2.5875 5.19625 2.375 5.8125 C1.69328085 8.28450846 1.69328085 8.28450846 4 11 C4.37309899 12.65821773 4.70700977 14.32577014 5 16 C5.33 16.99 5.66 17.98 6 19 C6 22.01853795 5.85049285 24.77081079 5.5 27.75 C5.4071875 28.54921875 5.314375 29.3484375 5.21875 30.171875 C5.1465625 30.77515625 5.074375 31.3784375 5 32 C5.66 32.33 6.32 32.66 7 33 C6.84402344 33.70125 6.68804687 34.4025 6.52734375 35.125 C5.98148298 38.10095205 5.74742219 40.98086228 5.5625 44 C4.13437751 63.40049478 4.13437751 63.40049478 0 72 C-1.485 72.495 -1.485 72.495 -3 73 C-3.10731909 49.31054899 -3.15080972 25.66811596 -2 2 C-1.34 2 -0.68 2 0 2 C0 1.34 0 0.68 0 0 Z " fill="#AFD29E" transform="translate(368,216)"/>
<path d="M0 0 C1.00326344 3.14151853 0.94050142 5.14575346 0.1640625 8.33203125 C-1.29411407 15.06292527 -1.99674223 21.83610242 -2.625 28.6875 C-2.6907019 29.39611176 -2.75640381 30.10472351 -2.82409668 30.83480835 C-4.07560339 44.8202996 -4.27280481 58.77751588 -4.25 72.8125 C-4.24913391 73.82178558 -4.24826782 74.83107117 -4.24737549 75.87094116 C-4.22206876 90.69468554 -4.22206876 90.69468554 -2.91699219 105.44799805 C-3.02200262 108.67645124 -4.16723631 110.39199495 -6 113 C-6.66 112.67 -7.32 112.34 -8 112 C-8.02333838 101.22825394 -8.0410233 90.45651405 -8.05181217 79.6847477 C-8.05699453 74.68109865 -8.06400598 69.6774671 -8.07543945 64.67382812 C-8.08643573 59.83030403 -8.09231166 54.98679659 -8.09487724 50.14326096 C-8.09670174 48.31043613 -8.10026309 46.47761204 -8.10573006 44.64479446 C-8.13202191 35.45097132 -8.0511871 26.28536164 -7.55639648 17.10302734 C-7.51754113 16.3730636 -7.47868578 15.64309986 -7.43865299 14.89101601 C-7.19605353 10.87008889 -6.73875483 6.95965221 -6 3 C-4.35 3.33 -2.7 3.66 -1 4 C-0.67 2.68 -0.34 1.36 0 0 Z " fill="#6BB55B" transform="translate(144,193)"/>
<path d="M0 0 C0.33 0 0.66 0 1 0 C1 2.64 1 5.28 1 8 C1.99 7.67 2.98 7.34 4 7 C3.98839844 7.92683594 3.97679687 8.85367188 3.96484375 9.80859375 C3.95582031 11.00613281 3.94679688 12.20367187 3.9375 13.4375 C3.92589844 14.63246094 3.91429687 15.82742187 3.90234375 17.05859375 C3.66098208 19.88873341 3.66098208 19.88873341 5 21 C5.10154036 22.7867272 5.13083316 24.57757843 5.1328125 26.3671875 C5.13490723 27.54313477 5.13700195 28.71908203 5.13916016 29.93066406 C5.1344873 31.23229492 5.12981445 32.53392578 5.125 33.875 C5.12267365 34.86977356 5.12267365 34.86977356 5.12030029 35.88464355 C5.08753065 48.03678096 4.91796894 60.18821169 4.68060303 72.33795166 C4.64353853 74.27909795 4.60956152 76.22030565 4.57867432 78.16156006 C4.53355182 80.9048788 4.47559616 83.64763145 4.4140625 86.390625 C4.40250122 87.21742767 4.39093994 88.04423035 4.37902832 88.89608765 C4.27837881 92.75613922 4.18871802 94.71692296 2 98 C1.6325272 100.57648542 1.49630771 103.12536129 1.34375 105.72265625 C1 108 1 108 -1 110 C-1.02927916 106.00001563 -1.04689219 102.00005924 -1.0625 98 C-1.07087891 96.87464844 -1.07925781 95.74929688 -1.08789062 94.58984375 C-1.09111328 93.48769531 -1.09433594 92.38554687 -1.09765625 91.25 C-1.10289307 90.24453125 -1.10812988 89.2390625 -1.11352539 88.203125 C-1 85 -1 85 -0.5 81.29833984 C0.02442383 77.20291146 0.13498205 73.14879529 0.11352539 69.0234375 C0.11367142 68.27124435 0.11381744 67.51905121 0.1139679 66.74406433 C0.11327795 64.28767897 0.10552909 61.83137192 0.09765625 59.375 C0.0957888 57.66007529 0.09436644 55.94515004 0.09336853 54.23022461 C0.08956908 49.73893739 0.07976103 45.24768302 0.06866455 40.75640869 C0.05839486 36.16443323 0.05385905 31.57245241 0.04882812 26.98046875 C0.03813622 17.98696481 0.02109104 8.99348515 0 0 Z " fill="#7EBC6B" transform="translate(361,194)"/>
<path d="M0 0 C2.37616012 4.75232025 1.03089969 10.99277295 0 16 C0.33 16.99 0.66 17.98 1 19 C0.0625 22.1875 0.0625 22.1875 -1 25 C-0.34 25.33 0.32 25.66 1 26 C0.67620361 26.84369141 0.35240723 27.68738281 0.01879883 28.55664062 C-1.61421448 34.07593602 -1.3332805 39.648298 -1.31567383 45.35546875 C-1.3125493 47.46668925 -1.33587897 49.57645593 -1.36132812 51.6875 C-1.4088859 61.86218035 -1.07559035 72.90939042 4 82 C3.34 82.99 2.68 83.98 2 85 C0.69805584 81.21178584 -0.58962276 77.4188643 -1.875 73.625 C-2.23980469 72.56410156 -2.60460937 71.50320313 -2.98046875 70.41015625 C-5.92745821 61.67635112 -8.40332551 53.27648667 -8 44 C-7.67 44 -7.34 44 -7 44 C-6.34 46.31 -5.68 48.62 -5 51 C-5.01571045 50.00782471 -5.0314209 49.01564941 -5.04760742 47.9934082 C-5.10264294 44.24919015 -5.13661247 40.50500638 -5.16479492 36.76049805 C-5.17971634 35.15171257 -5.20006091 33.54296656 -5.22631836 31.93432617 C-5.60033671 8.40050506 -5.60033671 8.40050506 0 0 Z " fill="#BAD8AB" transform="translate(109,224)"/>
<path d="M0 0 C2.25961845 3.38942767 2.17661093 3.88616784 1.609375 7.7109375 C1.47660156 8.62617188 1.34382812 9.54140625 1.20703125 10.484375 C0.98080078 11.91523438 0.98080078 11.91523438 0.75 13.375 C0.61464844 14.32117188 0.47929687 15.26734375 0.33984375 16.2421875 C-0.7347243 23.39258427 -0.7347243 23.39258427 -2.10546875 26.53125 C-3.59157461 30.63264259 -3.15359166 34.80364013 -3.0625 39.125 C-2.9596186 47.81814195 -3.02777537 56.48942823 -3.25 65.1796875 C-3.27476913 66.15060333 -3.29953827 67.12151917 -3.32505798 68.12185669 C-3.42800803 72.07163958 -3.53417813 76.02129201 -3.64846802 79.97076416 C-3.72934232 82.77208106 -3.8044247 85.57350707 -3.87890625 88.375 C-3.90593628 89.23116913 -3.93296631 90.08733826 -3.96081543 90.9694519 C-4.01254128 92.97901144 -4.01192077 94.98981021 -4 97 C-3.67 97.33 -3.34 97.66 -3 98 C-2.953107 99.58263877 -2.96253515 101.16710998 -3 102.75 C-3.04100923 105.63294894 -3.00243917 107.98902374 -2.375 110.8125 C-1.87886948 113.70659472 -2.73923995 115.40431755 -4 118 C-4.33 118 -4.66 118 -5 118 C-6.83439872 104.46724056 -7.35952499 91.14823898 -7.3125 77.5 C-7.31167419 76.48362457 -7.31084839 75.46724915 -7.30999756 74.42007446 C-7.28467132 60.79229341 -6.87415823 47.26023639 -5.625 33.6875 C-5.56196686 32.99865723 -5.49893372 32.30981445 -5.43399048 31.60009766 C-4.78156853 24.6916335 -3.936105 17.89494285 -2.43530273 11.11669922 C-1.97824784 8.89422814 -1.69123221 6.69163216 -1.4375 4.4375 C-1 1 -1 1 0 0 Z " fill="#57B04E" transform="translate(146,188)"/>
<path d="M0 0 C2.95333353 2.61861704 3.51490375 4.51053613 3.8739624 8.4699707 C4.14579709 13.92667359 4.14153311 19.38143874 4.1328125 24.84375 C4.13348764 26.18078631 4.13445941 27.5178225 4.13571167 28.8548584 C4.13717877 31.64527566 4.13506602 34.43566072 4.13037109 37.22607422 C4.12467441 40.78314528 4.12795872 44.34014086 4.13394356 47.89720917 C4.13757593 50.65460772 4.13639834 53.4119887 4.13381577 56.16938782 C4.13283464 58.11239675 4.13584451 60.05540639 4.13894653 61.99841309 C4.12282908 68.10780367 3.8740896 73.9567976 3 80 C2.87703724 82.05835859 2.78164254 84.11861874 2.71875 86.1796875 C2.68136719 87.2728125 2.64398438 88.3659375 2.60546875 89.4921875 C2.53442623 91.77081069 2.46412857 94.04945721 2.39453125 96.328125 C2.35714844 97.41351563 2.31976563 98.49890625 2.28125 99.6171875 C2.25095703 100.60315918 2.22066406 101.58913086 2.18945312 102.60498047 C2 105 2 105 1 107 C0.34 107 -0.32 107 -1 107 C-1.90384061 103.33100939 -1.98038987 100.47228583 -1.44140625 96.7421875 C0.75170316 79.76594328 1.29120038 63.04856223 1.25 45.9375 C1.248293 44.32134796 1.248293 44.32134796 1.24655151 42.67254639 C1.21742679 28.42310399 0.80359973 14.22651842 0 0 Z " fill="#70B75F" transform="translate(358,199)"/>
<path d="M0 0 C0.33 0 0.66 0 1 0 C1.02506123 5.01301729 1.04302751 10.02599666 1.05493164 15.0390625 C1.05990387 16.73796221 1.06668402 18.43685777 1.07543945 20.13574219 C1.19423958 43.81190946 1.19423958 43.81190946 0 51 C-0.99 51.495 -0.99 51.495 -2 52 C-2 51.34 -2 50.68 -2 50 C-2.66 49.67 -3.32 49.34 -4 49 C-4 47.08590163 -3.98938146 45.17175359 -3.96484375 43.2578125 C-3.95582031 42.22398437 -3.94679688 41.19015625 -3.9375 40.125 C-3.92589844 39.09632813 -3.91429688 38.06765625 -3.90234375 37.0078125 C-3.99345255 34.20166136 -4.40587736 31.73477827 -5 29 C-5.39213249 23.01997958 -4.70230321 17.55112637 -3.625 11.6875 C-3.49899414 10.99358154 -3.37298828 10.29966309 -3.24316406 9.5847168 C-2.56677006 6.11208302 -1.80866166 3.05899734 0 0 Z " fill="#BCD9AE" transform="translate(130,223)"/>
<path d="M0 0 C11.2565587 20.75990403 5.31537663 53.84127933 -0.84375 75.3515625 C-10.17013575 104.7800905 -10.17013575 104.7800905 -18 110 C-16.54627484 105.16915947 -14.51371058 100.94341507 -12.1875 96.5 C1.51548569 69.41830482 4.51152095 40.62578295 0.4375 10.77734375 C0.01680399 7.14508444 -0.07599375 3.65244975 0 0 Z " fill="#F8FBF6" transform="translate(395,217)"/>
<path d="M0 0 C0.12375 0.5775 0.2475 1.155 0.375 1.75 C0.91842793 4.01997369 0.91842793 4.01997369 2.0625 6 C3.68428786 9.4598141 2.93354494 13.06486805 2.5 16.75 C2.4071875 17.54921875 2.314375 18.3484375 2.21875 19.171875 C2.1465625 19.77515625 2.074375 20.3784375 2 21 C2.66 21.33 3.32 21.66 4 22 C3.84402344 22.69738281 3.68804687 23.39476562 3.52734375 24.11328125 C2.97186766 27.15399853 2.7466089 30.10273661 2.5625 33.1875 C2.15748396 38.92304971 1.30113668 44.40384902 0 50 C-0.66 49.67 -1.32 49.34 -2 49 C-2.02506619 44.39591857 -2.04302973 39.79187846 -2.05493164 35.18774414 C-2.05990307 33.62751573 -2.06668257 32.06729183 -2.07543945 30.50708008 C-2.21790541 4.43581081 -2.21790541 4.43581081 0 0 Z " fill="#BFDBB0" transform="translate(371,227)"/>
<path d="M0 0 C0.66 0.33 1.32 0.66 2 1 C1.85989315 5.47936476 1.71187647 9.95843553 1.5625 14.4375 C1.52318359 15.69755859 1.48386719 16.95761719 1.44335938 18.25585938 C1.40146484 19.49013672 1.35957031 20.72441406 1.31640625 21.99609375 C1.27974854 23.12200928 1.24309082 24.2479248 1.20532227 25.40795898 C1.05659974 28.0098074 0.82090533 30.49506029 0.48852539 33.07080078 C-0.23583415 39.32482695 -0.14294274 45.58306359 -0.1328125 51.87109375 C-0.13376923 53.18860123 -0.13472595 54.5061087 -0.13571167 55.86354065 C-0.13717753 58.63958929 -0.13507046 61.41560554 -0.13037109 64.19165039 C-0.12468009 67.72271276 -0.12795594 71.25369899 -0.13394356 74.78475857 C-0.13845851 78.1885428 -0.13528241 81.59230736 -0.1328125 84.99609375 C-0.13483673 86.25054794 -0.13686096 87.50500214 -0.13894653 88.79747009 C-0.1209641 95.59451459 0.14805288 102.25395119 1 109 C0.01 109 -0.98 109 -2 109 C-2.02333838 98.22825394 -2.0410233 87.45651405 -2.05181217 76.6847477 C-2.05699453 71.68109865 -2.06400598 66.6774671 -2.07543945 61.67382812 C-2.08643573 56.83030403 -2.09231166 51.98679659 -2.09487724 47.14326096 C-2.09670174 45.31043613 -2.10026309 43.47761204 -2.10573006 41.64479446 C-2.13202191 32.45097132 -2.0511871 23.28536164 -1.55639648 14.10302734 C-1.51754113 13.3730636 -1.47868578 12.64309986 -1.43865299 11.89101601 C-1.19605353 7.87008889 -0.73875483 3.95965221 0 0 Z " fill="#7DBC6A" transform="translate(138,196)"/>
<path d="M0 0 C1.01499547 3.33939548 1.09512085 6.32236958 1.03759766 9.80322266 C1.02072906 10.97188873 1.00386047 12.14055481 0.98648071 13.34463501 C0.9625827 14.60504608 0.93868469 15.86545715 0.9140625 17.1640625 C0.89282318 18.46644867 0.87158386 19.76883484 0.84970093 21.11068726 C0.80423847 23.86959828 0.75504541 26.62841017 0.703125 29.38720703 C0.63728983 32.89700003 0.57981065 36.4068672 0.52509499 39.91684914 C0.4714921 43.2909973 0.41128035 46.66501694 0.3515625 50.0390625 C0.33171295 51.28732819 0.3118634 52.53559387 0.29141235 53.82168579 C0.15922599 60.59605005 -0.18161269 67.2722343 -1 74 C-4.14145901 70.60063671 -4.33719997 68.32395747 -4.1887207 63.76611328 C-4.15490799 62.50445343 -4.12109528 61.24279358 -4.08625793 59.94290161 C-4.03336212 58.56868215 -3.97985482 57.19448612 -3.92578125 55.8203125 C-3.88034089 54.40554241 -3.83602074 52.99073595 -3.79277039 51.57589722 C-3.6988192 48.61153324 -3.59427442 45.64779561 -3.48168945 42.68408203 C-3.33822077 38.89622463 -3.21640734 35.10806554 -3.10200214 31.31923103 C-3.01213525 28.39694813 -2.91302391 25.47503706 -2.81093407 22.55315781 C-2.76281396 21.15706951 -2.71698775 19.76090011 -2.67354774 18.36465836 C-2.61078408 16.40702151 -2.53477043 14.44982325 -2.45825195 12.49267578 C-2.41811478 11.38111115 -2.3779776 10.26954651 -2.33662415 9.1242981 C-1.98347425 5.8466201 -1.15314455 3.07970149 0 0 Z " fill="#A6CE94" transform="translate(133,214)"/>
<path d="M0 0 C0.66 0.33 1.32 0.66 2 1 C2.12554008 18.11400997 2.04225296 35.2271616 1.73654175 52.33895874 C1.70384722 54.27965469 1.67627953 56.22044379 1.65383911 58.1612854 C1.62071329 60.90486069 1.56863492 63.64745356 1.51171875 66.390625 C1.50532379 67.21743271 1.49892883 68.04424042 1.49234009 68.89610291 C1.34391277 74.60874188 1.34391277 74.60874188 -0.52702332 76.73724365 C-1.01310562 77.15395325 -1.49918793 77.57066284 -2 78 C-2.05976213 68.19984105 -1.88559743 58.42772264 -1.5625 48.6328125 C-1.51746612 47.21793217 -1.47262952 45.80304554 -1.42797852 44.38815308 C-1.31156399 40.71561321 -1.19252222 37.04316335 -1.07287598 33.37072754 C-0.95059904 29.60267249 -0.83088583 25.83453601 -0.7109375 22.06640625 C-0.47642479 14.71085687 -0.23912814 7.35540094 0 0 Z " fill="#8EC37A" transform="translate(364,214)"/>
<path d="M0 0 C0.66 0 1.32 0 2 0 C2 0.66 2 1.32 2 2 C1.34 2 0.68 2 0 2 C0 1.34 0 0.68 0 0 Z M-5 2 C-3.68 2.33 -2.36 2.66 -1 3 C-2.05805373 12.49758822 -3.2320327 21.97394897 -4.5625 31.4375 C-4.68923096 32.35490967 -4.81596191 33.27231934 -4.9465332 34.2175293 C-5.06859131 35.07258057 -5.19064941 35.92763184 -5.31640625 36.80859375 C-5.42412354 37.56970459 -5.53184082 38.33081543 -5.64282227 39.11499023 C-6 41 -6 41 -7 43 C-7.66 43 -8.32 43 -9 43 C-9.43407267 29.13378978 -7.75607282 15.57512463 -5 2 Z " fill="#85C177" transform="translate(108,212)"/>
<path d="M0 0 C2.90456256 3.46958385 4.65392426 7.32064335 6.4375 11.4375 C6.72431641 12.07365234 7.01113281 12.70980469 7.30664062 13.36523438 C12.17627178 24.50356667 14.66483501 35.47886868 15.75 47.5625 C15.87503906 48.78646484 16.00007813 50.01042969 16.12890625 51.27148438 C16.86491831 58.87020234 17.15839957 66.36778093 17 74 C16.67 74 16.34 74 16 74 C15.34 66.08 14.68 58.16 14 50 C13.34 50 12.68 50 12 50 C11.97421875 49.15179688 11.9484375 48.30359375 11.921875 47.4296875 C11.21666087 32.84457718 6.69009968 19.70427512 0.8515625 6.37890625 C0 4 0 4 0 0 Z " fill="#9FCA8B" transform="translate(381,180)"/>
<path d="M0 0 C2.58267051 2.58267051 2.35715799 3.63933533 2.4375 7.25 C2.21119186 21.79838043 -2.13239981 36.76668894 -8 50 C-8.66 50 -9.32 50 -10 50 C-9.71812064 48.20676747 -9.4241719 46.41542874 -9.125 44.625 C-8.96257812 43.62726563 -8.80015625 42.62953125 -8.6328125 41.6015625 C-8 39 -8 39 -6 37 C-5.23320035 33.16600177 -4.75325341 30.74023976 -6 27 C-5.36729133 25.65022151 -4.69937532 24.31647119 -4 23 C-4 22.01 -4 21.02 -4 20 C-3.34 19.01 -2.68 18.02 -2 17 C-2 15.989375 -2 14.97875 -2 13.9375 C-2 9.10049893 -1.05933642 4.70080536 0 0 Z " fill="#99C885" transform="translate(395,257)"/>
<path d="M0 0 C0.66 0 1.32 0 2 0 C2 23.1 2 46.2 2 70 C0.515 70.495 0.515 70.495 -1 71 C-1.10731909 47.31054899 -1.15080972 23.66811596 0 0 Z " fill="#9FCB8C" transform="translate(366,218)"/>
<path d="M0 0 C0.33 0.66 0.66 1.32 1 2 C0.443125 2.66644531 -0.11375 3.33289063 -0.6875 4.01953125 C-11.58290717 17.17868011 -20.47275378 30.68430975 -28 46 C-29 43 -29 43 -28.35424805 41.13745117 C-27.99371338 40.44627197 -27.63317871 39.75509277 -27.26171875 39.04296875 C-26.85880615 38.26687256 -26.45589355 37.49077637 -26.04077148 36.69116211 C-25.3709021 35.45184937 -25.3709021 35.45184937 -24.6875 34.1875 C-24.2325415 33.33744385 -23.77758301 32.4873877 -23.30883789 31.61157227 C-16.91458586 19.90730615 -9.20602385 9.6507593 0 0 Z " fill="#2BA538" transform="translate(140,147)"/>
<path d="M0 0 C1.47871399 1.10578918 1.47871399 1.10578918 3 3 C3.36076355 5.82841492 3.36076355 5.82841492 3.34057617 9.30737305 C3.34034958 10.60849533 3.34012299 11.90961761 3.33988953 13.25016785 C3.32456952 14.6706883 3.30892153 16.09120526 3.29296875 17.51171875 C3.28737276 18.96474266 3.28310267 20.41777224 3.28010559 21.87080383 C3.26865695 25.69320329 3.23918999 29.5152602 3.20599365 33.33752441 C3.17529295 37.23864101 3.16160028 41.13981302 3.14648438 45.04101562 C3.11431998 52.6941665 3.06312383 60.34703523 3 68 C2.67 68 2.34 68 2 68 C1.97494385 66.68620361 1.9498877 65.37240723 1.92407227 64.01879883 C1.8282597 59.03680398 1.72850026 54.05489397 1.62768555 49.07299805 C1.5849806 46.93695084 1.54327669 44.80088334 1.50268555 42.66479492 C1.23128281 28.42787839 0.76027372 14.21945061 0 0 Z " fill="#68B459" transform="translate(358,199)"/>
<path d="M0 0 C0.99 0.99 1.98 1.98 3 3 C2.625 4.9375 2.625 4.9375 2 7 C2.165 7.61875 2.33 8.2375 2.5 8.875 C3.17990599 11.76460047 2.58857238 14.12253502 2 17 C2.66 17.33 3.32 17.66 4 18 C3.84660156 18.68449219 3.69320313 19.36898437 3.53515625 20.07421875 C2.94066589 23.32438869 2.67050324 26.51716845 2.4375 29.8125 C2.35371094 30.97394531 2.26992188 32.13539063 2.18359375 33.33203125 C2.09271484 34.65267578 2.09271484 34.65267578 2 36 C1.34 36 0.68 36 0 36 C0 24.12 0 12.24 0 0 Z " fill="#CFE4C3" transform="translate(371,231)"/>
<path d="M0 0 C0.33 0.66 0.66 1.32 1 2 C1.66 2.33 2.32 2.66 3 3 C2.649375 3.61875 2.29875 4.2375 1.9375 4.875 C1.4734375 5.926875 1.4734375 5.926875 1 7 C1.33 7.66 1.66 8.32 2 9 C1.2578125 11.390625 1.2578125 11.390625 0.125 14.25 C-2.90087345 21.90990342 -3.24189353 29.22844218 -3.5625 37.375 C-3.60568359 38.39722656 -3.64886719 39.41945312 -3.69335938 40.47265625 C-3.79887792 42.98165288 -3.90099213 45.49073943 -4 48 C-4.33 48 -4.66 48 -5 48 C-5.31222413 36.33882901 -5.30300005 24.87809227 -3.625 13.3125 C-3.49891357 12.43505127 -3.37282715 11.55760254 -3.24291992 10.65356445 C-2.61808117 6.69755164 -1.93078889 3.54641806 0 0 Z " fill="#AFD39F" transform="translate(108,214)"/>
<path d="M0 0 C2 2 2 2 2.23046875 4.90625 C1.99009901 25.00990099 1.99009901 25.00990099 -1 28 C-2.24162502 23.16262894 -2.18372343 18.39613563 -2.1875 13.4375 C-2.19974609 12.58736328 -2.21199219 11.73722656 -2.22460938 10.86132812 C-2.22654297 10.03955078 -2.22847656 9.21777344 -2.23046875 8.37109375 C-2.23457764 7.62786865 -2.23868652 6.88464355 -2.24291992 6.11889648 C-1.96733278 3.71505647 -1.19207471 2.08856686 0 0 Z " fill="#C5DDB7" transform="translate(392,240)"/>
<path d="M0 0 C2.35531457 4.31645711 2.91919814 8.49410573 3.625 13.3125 C3.75688721 14.19518555 3.88877441 15.07787109 4.0246582 15.98730469 C5.1033296 23.71022928 5.31857483 31.21261516 5 39 C4.01 39.495 4.01 39.495 3 40 C2.94465088 39.17798096 2.88930176 38.35596191 2.83227539 37.5090332 C2.5790561 33.77661779 2.32083145 30.04456493 2.0625 26.3125 C1.97548828 25.01892578 1.88847656 23.72535156 1.79882812 22.39257812 C1.71181641 21.14541016 1.62480469 19.89824219 1.53515625 18.61328125 C1.456604 17.46641846 1.37805176 16.31955566 1.29711914 15.13793945 C1.03370368 12.35595188 0.55320336 9.73386381 0 7 C-0.03824623 4.66698014 -0.04574284 2.33288492 0 0 Z " fill="#EDF5E9" transform="translate(395,217)"/>
<path d="M0 0 C0.99 0.495 0.99 0.495 2 1 C2.42963413 3.39282343 2.75136662 5.71233533 3 8.125 C3.68690708 14.31942991 4.65655463 20.04442019 7.25 25.75 C7.4975 26.4925 7.745 27.235 8 28 C7.34 28.99 6.68 29.98 6 31 C1.65799919 20.32591468 -0.99843409 11.66688727 0 0 Z " fill="#A6CF94" transform="translate(105,278)"/>
<path d="M0 0 C2.97202106 3.52474449 4.70493139 7.48664922 6.5 11.6875 C6.80679687 12.40067383 7.11359375 13.11384766 7.4296875 13.84863281 C13.32518299 27.69926805 13.32518299 27.69926805 12 33 C11.34 30.03 10.68 27.06 10 24 C9.34 24 8.68 24 8 24 C3.5078125 12.76953125 3.5078125 12.76953125 2.72753906 10.80322266 C2.11244552 9.27869886 1.462366 7.76836133 0.8046875 6.26171875 C0 4 0 4 0 0 Z " fill="#9FCD90" transform="translate(381,180)"/>
<path d="M0 0 C1.125 1.5 1.125 1.5 2 4 C1.57598348 6.7773082 0.81108065 9.29639783 0 12 C0.66 12.33 1.32 12.66 2 13 C1.67 13.78375 1.34 14.5675 1 15.375 C-0.27410171 19.99361869 -0.16923936 24.24249356 0 29 C-0.33 29 -0.66 29 -1 29 C-1.81898622 25.42649959 -2.11811958 22.14340521 -2.09765625 18.48046875 C-2.09443359 17.45888672 -2.09121094 16.43730469 -2.08789062 15.38476562 C-2.07951172 14.32966797 -2.07113281 13.27457031 -2.0625 12.1875 C-2.05798828 11.11306641 -2.05347656 10.03863281 -2.04882812 8.93164062 C-2.03707729 6.28770317 -2.02064787 3.64388048 -2 1 C-1.34 0.67 -0.68 0.34 0 0 Z " fill="#CBE1BD" transform="translate(108,237)"/>
<path d="M0 0 C0.33 0 0.66 0 1 0 C1.02690844 2.62506802 1.04679404 5.24986173 1.0625 7.875 C1.07087891 8.62136719 1.07925781 9.36773437 1.08789062 10.13671875 C1.11328125 15.7734375 1.11328125 15.7734375 0 18 C-0.15378852 19.95774069 -0.24971463 21.92017352 -0.31640625 23.8828125 C-0.35830078 25.04941406 -0.40019531 26.21601563 -0.44335938 27.41796875 C-0.48267578 28.64128906 -0.52199219 29.86460937 -0.5625 31.125 C-0.60568359 32.35605469 -0.64886719 33.58710938 -0.69335938 34.85546875 C-0.79968704 37.90352853 -0.90171781 40.9516719 -1 44 C-1.33 44 -1.66 44 -2 44 C-2.02514961 40.10800178 -2.04306705 36.2160365 -2.05493164 32.32397461 C-2.06229736 30.36635673 -2.07501826 28.40876129 -2.08789062 26.45117188 C-2.14428402 4.28856804 -2.14428402 4.28856804 0 0 Z " fill="#92C47D" transform="translate(136,204)"/>
<path d="M0 0 C0.66 0 1.32 0 2 0 C2.67832319 4.99851749 3.34220368 9.99873942 4 15 C4.11730469 15.85078125 4.23460937 16.7015625 4.35546875 17.578125 C5.13982738 23.71658382 5.09412669 29.81901403 5 36 C4.67 36 4.34 36 4 36 C2.16261316 29.00490914 1.75088688 22.65038156 1.875 15.4375 C1.88402344 14.42880859 1.89304687 13.42011719 1.90234375 12.38085938 C1.92566644 9.92031543 1.95839237 7.46029104 2 5 C1.34 5 0.68 5 0 5 C0 3.35 0 1.7 0 0 Z " fill="#B0D3A0" transform="translate(393,230)"/>
<path d="M0 0 C0.33 0 0.66 0 1 0 C1.04938628 4.23582327 1.08571263 8.47149465 1.10986328 12.70751953 C1.11992963 14.14895547 1.1335838 15.59037095 1.15087891 17.03173828 C1.17510012 19.10193934 1.18647641 21.17187076 1.1953125 23.2421875 C1.20578613 24.4885498 1.21625977 25.73491211 1.22705078 27.01904297 C1 30 1 30 -1 32 C-0.98839844 31.40832031 -0.97679688 30.81664062 -0.96484375 30.20703125 C-0.88772271 25.32566198 -0.88772271 25.32566198 -1.5 20.5 C-2.90553382 13.47233092 -1.81240744 6.84507454 0 0 Z " fill="#CEE3C2" transform="translate(127,234)"/>
<path d="M0 0 C0.33 0 0.66 0 1 0 C1.26327856 6.77210969 0.87097228 13.39921768 0.125 20.125 C0.04652832 20.88353271 -0.03194336 21.64206543 -0.11279297 22.42358398 C-0.33428828 24.29268984 -0.65848241 26.14905899 -1 28 C-1.66 28.33 -2.32 28.66 -3 29 C-3.1796038 19.12179099 -1.6937249 9.71836328 0 0 Z " fill="#55AF4D" transform="translate(356,278)"/>
<path d="M0 0 C0.66 0.66 1.32 1.32 2 2 C1.63038422 8.59622016 -1.42596946 15.01475423 -4 21 C-4.66 21 -5.32 21 -6 21 C-5.71812064 19.20676747 -5.4241719 17.41542874 -5.125 15.625 C-4.96257812 14.62726563 -4.80015625 13.62953125 -4.6328125 12.6015625 C-4 10 -4 10 -2 8 C-1.63239269 5.67182036 -1.29758419 3.3381615 -1 1 C-0.67 0.67 -0.34 0.34 0 0 Z " fill="#96C682" transform="translate(391,286)"/>
<path d="M0 0 C0.66 0 1.32 0 2 0 C2 0.66 2 1.32 2 2 C1.34 2 0.68 2 0 2 C0 1.34 0 0.68 0 0 Z M-4 2 C-3.01 2.33 -2.02 2.66 -1 3 C-1.0868748 4.95917659 -1.19504512 6.91741871 -1.3125 8.875 C-1.37050781 9.96554688 -1.42851563 11.05609375 -1.48828125 12.1796875 C-1.65714844 13.11039063 -1.82601562 14.04109375 -2 15 C-2.99 15.66 -3.98 16.32 -5 17 C-6.19126781 13.42619658 -5.7349445 11.49116698 -5.0625 7.8125 C-4.86785156 6.72582031 -4.67320313 5.63914063 -4.47265625 4.51953125 C-4.31667969 3.68808594 -4.16070312 2.85664063 -4 2 Z " fill="#9FC989" transform="translate(108,212)"/>
<path d="M0 0 C2 2 2 2 2.1953125 5.0390625 C2.17210937 6.22242188 2.14890625 7.40578125 2.125 8.625 C2.10695313 9.81351562 2.08890625 11.00203125 2.0703125 12.2265625 C2.04710937 13.14179688 2.02390625 14.05703125 2 15 C0.02 15.99 0.02 15.99 -2 17 C-2.25706972 11.08739655 -1.2982126 5.76081841 0 0 Z " fill="#A8CF96" transform="translate(395,257)"/>
<path d="M0 0 C0.95139197 3.10684065 1.01111621 5.54505121 0.66015625 8.765625 C0.56669922 9.65507812 0.47324219 10.54453125 0.37695312 11.4609375 C0.22129883 12.84152344 0.22129883 12.84152344 0.0625 14.25 C-0.03740234 15.18585938 -0.13730469 16.12171875 -0.24023438 17.0859375 C-0.48724564 19.39137599 -0.74071115 21.69591548 -1 24 C-1.33 24 -1.66 24 -2 24 C-2.05410136 20.93726169 -2.09372225 17.87548548 -2.125 14.8125 C-2.14175781 13.94818359 -2.15851563 13.08386719 -2.17578125 12.19335938 C-2.21038233 7.67791897 -2.15567916 4.09918517 0 0 Z " fill="#73B862" transform="translate(141,197)"/>
<path d="M0 0 C0.66 0.66 1.32 1.32 2 2 C-1.96 5.96 -5.92 9.92 -10 14 C-10.66 13.34 -11.32 12.68 -12 12 C-8.04 8.04 -4.08 4.08 0 0 Z " fill="#21A12D" transform="translate(210,196)"/>
<path d="M0 0 C1.71569886 3.43139773 1.52917873 7.24764173 1 11 C-1 13.0625 -1 13.0625 -3 14 C-3.29341888 8.32723489 -3.00559652 5.00932754 0 0 Z " fill="#BEDAB0" transform="translate(109,224)"/>
<path d="M0 0 C3.2066604 4.80999061 2.14506606 10.47680637 1.625 15.9375 C1.41875 16.948125 1.2125 17.95875 1 19 C0.34 19.33 -0.32 19.66 -1 20 C-1.02689449 17.04160645 -1.04678741 14.08345573 -1.0625 11.125 C-1.07087891 10.28324219 -1.07925781 9.44148437 -1.08789062 8.57421875 C-1.09111328 7.76855469 -1.09433594 6.96289062 -1.09765625 6.1328125 C-1.10289307 5.38918457 -1.10812988 4.64555664 -1.11352539 3.87939453 C-1 2 -1 2 0 0 Z " fill="#CDE3C1" transform="translate(391,242)"/>
<path d="M0 0 C0.99 0.33 1.98 0.66 3 1 C4.203125 3.58203125 4.203125 3.58203125 5.25 6.8125 C5.60578125 7.87082031 5.9615625 8.92914063 6.328125 10.01953125 C7 13 7 13 6 17 C5.34 14.03 4.68 11.06 4 8 C3.34 8 2.68 8 2 8 C0.74335022 5.09399739 0 3.20395416 0 0 Z " fill="#BADAAD" transform="translate(387,196)"/>
<path d="M0 0 C0.33 0.66 0.66 1.32 1 2 C-0.109375 4.86328125 -0.109375 4.86328125 -1.75 8.3125 C-2.54664062 10.00826172 -2.54664062 10.00826172 -3.359375 11.73828125 C-4.79112323 14.58473308 -6.31637158 17.29706641 -8 20 C-8.33 19.34 -8.66 18.68 -9 18 C-8.39501953 16.22827148 -8.39501953 16.22827148 -7.3828125 14.12109375 C-6.84333984 12.98704102 -6.84333984 12.98704102 -6.29296875 11.83007812 C-5.90753906 11.04052734 -5.52210937 10.25097656 -5.125 9.4375 C-4.74730469 8.64408203 -4.36960937 7.85066406 -3.98046875 7.03320312 C-1.16333128 1.16333128 -1.16333128 1.16333128 0 0 Z " fill="#7DBC6A" transform="translate(119,178)"/>
<path d="M0 0 C3 1 3 1 4.16796875 3.06640625 C4.50441406 3.89011719 4.84085937 4.71382813 5.1875 5.5625 C5.53167969 6.38878906 5.87585938 7.21507812 6.23046875 8.06640625 C6.48441406 8.70449219 6.73835938 9.34257812 7 10 C6.34 10.66 5.68 11.32 5 12 C4.16180842 10.37750059 3.3295884 8.75191503 2.5 7.125 C2.0359375 6.22007812 1.571875 5.31515625 1.09375 4.3828125 C0 2 0 2 0 0 Z " fill="#A0CE92" transform="translate(112,309)"/>
<path d="M0 0 C0.95465783 2.16967689 1.14401212 3.56328793 0.3984375 5.82421875 C-0.35870385 7.5684743 -1.17609198 9.28627131 -2 11 C-2.66 11 -3.32 11 -4 11 C-3.505 9.6078125 -3.505 9.6078125 -3 8.1875 C-1.85032996 5.07970709 -1.85032996 5.07970709 -2 2 C-1.34 1.34 -0.68 0.68 0 0 Z " fill="#A9D098" transform="translate(393,275)"/>
<path d="M0 0 C0.33 0.66 0.66 1.32 1 2 C1.66 2.33 2.32 2.66 3 3 C1.33333333 6.33333333 -0.33333333 9.66666667 -2 13 C-2.05447047 11.58376784 -2.09300508 10.16691809 -2.125 8.75 C-2.14820312 7.96109375 -2.17140625 7.1721875 -2.1953125 6.359375 C-1.9828378 3.79268059 -1.28654105 2.2083933 0 0 Z " fill="#A7CF95" transform="translate(108,214)"/>
<path d="M0 0 C0.33 0.99 0.66 1.98 1 3 C0.67 3.66 0.34 4.32 0 5 C0.66 5.33 1.32 5.66 2 6 C1.01 7.98 0.02 9.96 -1 12 C-1.33 12 -1.66 12 -2 12 C-2.17835515 7.45194365 -1.99785435 4.1205746 0 0 Z " fill="#5FB459" transform="translate(110,193)"/>
<path d="M0 0 C3.32378142 2.21585428 3.98819642 3.22873209 5 7 C4.01 8.485 4.01 8.485 3 10 C2.01 6.7 1.02 3.4 0 0 Z " fill="#B6D8A8" transform="translate(108,299)"/>
<path d="M0 0 C0.33 0.99 0.66 1.98 1 3 C1.66 3 2.32 3 3 3 C2.67 5.64 2.34 8.28 2 11 C1.67 11 1.34 11 1 11 C0.67 7.37 0.34 3.74 0 0 Z " fill="#97C682" transform="translate(102,268)"/>
<path d="M0 0 C0.99 0.99 1.98 1.98 3 3 C2.79846293 5.84875378 1.85624823 8.25099253 1 11 C0.67 11 0.34 11 0 11 C0 7.37 0 3.74 0 0 Z " fill="#C5DEB6" transform="translate(371,231)"/>
<path d="M0 0 C0.99 0.495 0.99 0.495 2 1 C2.40729228 3.32156597 2.74438677 5.6568787 3 8 C2.01 7.34 1.02 6.68 0 6 C-0.1875 2.875 -0.1875 2.875 0 0 Z " fill="#98C885" transform="translate(107,292)"/>
<path d="M0 0 C0.66 0 1.32 0 2 0 C2 0.66 2 1.32 2 2 C1.34 2 0.68 2 0 2 C0 1.34 0 0.68 0 0 Z M-4 2 C-3.01 2.33 -2.02 2.66 -1 3 C-1.33 4.32 -1.66 5.64 -2 7 C-2.66 6.67 -3.32 6.34 -4 6 C-4 4.68 -4 3.36 -4 2 Z " fill="#96C782" transform="translate(108,212)"/>
<path d="" fill="#FFFFFF" transform="translate(0,0)"/>
</svg>
