<?xml version="1.0" encoding="UTF-8"?>
<svg version="1.1" xmlns="http://www.w3.org/2000/svg" width="96" height="96">
<path d="M0 0 C0.94793427 -0.00637985 1.89586853 -0.0127597 2.87252808 -0.01933289 C3.89959869 -0.02044571 4.92666931 -0.02155853 5.98486328 -0.02270508 C7.03795685 -0.02603348 8.09105042 -0.02936188 9.17605591 -0.03279114 C11.4070797 -0.03786075 13.63811108 -0.04019945 15.86914062 -0.04003906 C19.28414414 -0.04222288 22.69882333 -0.06037104 26.11376953 -0.0793457 C28.27913301 -0.08228013 30.44449802 -0.08426459 32.60986328 -0.08520508 C33.63288544 -0.09239059 34.65590759 -0.09957611 35.70993042 -0.10697937 C36.66416901 -0.10390274 37.61840759 -0.10082611 38.6015625 -0.09765625 C39.43936249 -0.09908127 40.27716248 -0.10050629 41.14035034 -0.10197449 C43.70624866 0.17507195 45.26370889 0.75223449 47.43017578 2.14526367 C50.61426075 6.92139112 49.80208513 12.38405996 49.80078125 17.96923828 C49.80515414 20.07235723 49.84148057 22.17337543 49.87939453 24.27612305 C49.88526328 25.61661068 49.88923229 26.95710826 49.89111328 28.29760742 C49.89933105 29.51440186 49.90754883 30.73119629 49.91601562 31.98486328 C49.34052145 35.72846738 48.37311908 36.85048084 45.43017578 39.14526367 C43.03488011 40.34291151 41.53447129 40.27833756 38.86035156 40.29052734 C37.9124173 40.2969072 36.96448303 40.30328705 35.98782349 40.30986023 C34.96075287 40.31097305 33.93368225 40.31208588 32.87548828 40.31323242 C31.29584793 40.31822502 31.29584793 40.31822502 29.68429565 40.32331848 C27.45327187 40.3283881 25.22224048 40.3307268 22.99121094 40.33056641 C19.57620742 40.33275022 16.16152823 40.35089839 12.74658203 40.36987305 C10.58121856 40.37280747 8.41585354 40.37479194 6.25048828 40.37573242 C4.71595505 40.3865107 4.71595505 40.3865107 3.15042114 40.39750671 C2.19618256 40.39443008 1.24194397 40.39135345 0.25878906 40.38818359 C-0.57901093 40.38960861 -1.41681091 40.39103363 -2.27999878 40.39250183 C-4.8458971 40.11545539 -6.40335733 39.53829285 -8.56982422 38.14526367 C-11.75390918 33.36913623 -10.94173357 27.90646738 -10.94042969 22.32128906 C-10.94480258 20.21817012 -10.98112901 18.11715191 -11.01904297 16.0144043 C-11.02491171 14.67391666 -11.02888072 13.33341909 -11.03076172 11.99291992 C-11.03897949 10.77612549 -11.04719727 9.55933105 -11.05566406 8.30566406 C-10.48016988 4.56205996 -9.51276752 3.44004651 -6.56982422 1.14526367 C-4.17452855 -0.05238416 -2.67411973 0.01218978 0 0 Z " fill="#F44E42" transform="translate(28.56982421875,43.854736328125)"/>
<path d="M0 0 C1.32 0 2.64 0 4 0 C4.33 2.31 4.66 4.62 5 7 C5.804375 7.144375 6.60875 7.28875 7.4375 7.4375 C10 8 10 8 11 9 C11.10002455 11.65653443 11.13877463 14.28129272 11.125 16.9375 C11.12886719 17.67935547 11.13273437 18.42121094 11.13671875 19.18554688 C11.12663501 24.74672998 11.12663501 24.74672998 10 27 C6.7 27 3.4 27 0 27 C0 18.09 0 9.18 0 0 Z " fill="#FDE7E6" transform="translate(49,50)"/>
<path d="M0 0 C1.65 0 3.3 0 5 0 C5.66 1.98 6.32 3.96 7 6 C7.66 4.02 8.32 2.04 9 0 C10.98 0 12.96 0 15 0 C14.72285156 0.84820312 14.44570313 1.69640625 14.16015625 2.5703125 C11.4854332 11.232227 10.27592106 18.92219701 10 28 C8.35 28 6.7 28 5 28 C4.89042969 27.03320312 4.78085937 26.06640625 4.66796875 25.0703125 C3.82193524 18.12320803 2.87062705 11.60360746 0.5859375 4.953125 C0 3 0 3 0 0 Z " fill="#455A63" transform="translate(29,12)"/>
<path d="M0 0 C3.5 -0.3125 3.5 -0.3125 7 0 C9 2 9 2 9.1953125 4.1640625 C9.17210938 4.97617187 9.14890625 5.78828125 9.125 6.625 C9.10695313 7.44226563 9.08890625 8.25953125 9.0703125 9.1015625 C9.03550781 10.04128906 9.03550781 10.04128906 9 11 C7.02 11 5.04 11 3 11 C3 12.65 3 14.3 3 16 C3.66 16 4.32 16 5 16 C5 14.68 5 13.36 5 12 C6.32 12 7.64 12 9 12 C9.36190476 17.42857143 9.36190476 17.42857143 7.8125 19.875 C5.31963619 21.42229478 3.88032665 21.50405716 1 21 C-1.50930696 18.56854743 -1.98233088 17.16282187 -2.36328125 13.65234375 C-2.34652344 12.42644531 -2.32976563 11.20054688 -2.3125 9.9375 C-2.30863281 8.70902344 -2.30476563 7.48054688 -2.30078125 6.21484375 C-2 3 -2 3 0 0 Z " fill="#FEEEED" transform="translate(64,57)"/>
<path d="M0 0 C3.375 0.6875 3.375 0.6875 4.375 1.6875 C4.50167764 4.67768161 4.56020838 7.63444108 4.5625 10.625 C4.57474609 11.46224609 4.58699219 12.29949219 4.59960938 13.16210938 C4.60250977 14.36383789 4.60250977 14.36383789 4.60546875 15.58984375 C4.60957764 16.32710693 4.61368652 17.06437012 4.61791992 17.82397461 C4.375 19.6875 4.375 19.6875 2.375 21.6875 C-1.125 21.9375 -1.125 21.9375 -4.625 21.6875 C-7.39574229 18.91675771 -6.91360048 16.99367575 -6.94726562 13.2109375 C-6.94404297 12.37820312 -6.94082031 11.54546875 -6.9375 10.6875 C-6.95361328 9.85476562 -6.96972656 9.02203125 -6.98632812 8.1640625 C-6.98697266 7.36742187 -6.98761719 6.57078125 -6.98828125 5.75 C-6.99126221 5.01910156 -6.99424316 4.28820312 -6.99731445 3.53515625 C-6.18781223 -0.48209807 -3.49847148 -0.30159237 0 0 Z M-1.625 4.6875 C-2.91112676 5.74728933 -2.91112676 5.74728933 -2.72265625 8.19140625 C-2.71105469 9.20074219 -2.69945312 10.21007812 -2.6875 11.25 C-2.67847656 12.26191406 -2.66945312 13.27382813 -2.66015625 14.31640625 C-2.64855469 15.09886719 -2.63695312 15.88132812 -2.625 16.6875 C-1.635 16.6875 -0.645 16.6875 0.375 16.6875 C0.375 13.0575 0.375 9.4275 0.375 5.6875 C-0.285 5.3575 -0.945 5.0275 -1.625 4.6875 Z " fill="#445862" transform="translate(49.625,18.3125)"/>
<path d="M0 0 C1.32 0 2.64 0 4 0 C4 5.28 4 10.56 4 16 C4.66 15.67 5.32 15.34 6 15 C6.31241371 12.45058627 6.51303421 9.99638487 6.625 7.4375 C6.66367187 6.72658203 6.70234375 6.01566406 6.7421875 5.28320312 C6.83671783 3.52257575 6.91945817 1.76132272 7 0 C8.32 0 9.64 0 11 0 C11 6.93 11 13.86 11 21 C7.37 21 3.74 21 0 21 C0 14.07 0 7.14 0 0 Z " fill="#445863" transform="translate(57,19)"/>
<path d="M0 0 C1.32 0 2.64 0 4 0 C4 5.28 4 10.56 4 16 C4.66 15.67 5.32 15.34 6 15 C6.31241371 12.45058627 6.51303421 9.99638487 6.625 7.4375 C6.66367187 6.72658203 6.70234375 6.01566406 6.7421875 5.28320312 C6.83671783 3.52257575 6.91945817 1.76132272 7 0 C8.32 0 9.64 0 11 0 C11 6.6 11 13.2 11 20 C7.7 20 4.4 20 1 20 C0 19 0 19 -0.11352539 17.14233398 C-0.10828857 16.35157471 -0.10305176 15.56081543 -0.09765625 14.74609375 C-0.09443359 13.89208984 -0.09121094 13.03808594 -0.08789062 12.15820312 C-0.07951172 11.26037109 -0.07113281 10.36253906 -0.0625 9.4375 C-0.05798828 8.53580078 -0.05347656 7.63410156 -0.04882812 6.70507812 C-0.03700225 4.46998686 -0.0205222 2.23502563 0 0 Z " fill="#FEFEFE" transform="translate(35,57)"/>
<path d="M0 0 C4.62 0 9.24 0 14 0 C14 1.65 14 3.3 14 5 C12.35 5 10.7 5 9 5 C9 12.26 9 19.52 9 27 C7.68 27 6.36 27 5 27 C5 19.74 5 12.48 5 5 C3.35 5 1.7 5 0 5 C0 3.35 0 1.7 0 0 Z " fill="#FEF7F6" transform="translate(22,50)"/>
</svg>
